<svg width="23" height="25" viewBox="0 0 23 25" fill="none" xmlns="http://www.w3.org/2000/svg">
<g clip-path="url(#clip0_350_891)">
<path d="M8.69707 0.526965C8.22279 0.518652 7.76005 0.618361 7.30557 0.894567L7.306 0.893317C7.08193 1.02964 6.84614 1.22714 6.62255 1.2749C5.89095 1.43165 5.27396 1.8485 4.57753 2.06993C4.24626 2.17502 4.08692 2.3778 4.09686 2.72123C3.96097 2.96741 3.74647 3.12151 3.49722 3.23924C3.27642 3.34313 3.06604 3.46182 3.00031 3.72385L2.99709 3.72639C2.73741 4.02903 2.46433 4.32119 2.19951 4.7736L10.3188 2.10904C9.96758 1.77513 9.60286 1.49253 10.0088 0.980148C9.64471 1.0049 9.3873 1.21609 9.08058 1.16866C9.25462 0.909655 9.62708 0.964483 9.82606 0.710045C9.44179 0.605195 9.06592 0.533404 8.69707 0.526965ZM13.0542 2.14374C12.7121 2.16498 12.3829 2.19198 12.099 2.43772C11.7617 2.72777 11.3825 2.81018 11 2.4876C10.7113 2.24398 10.43 2.29011 10.1026 2.44858C9.34664 2.81546 8.57122 3.14328 7.80445 3.48671C6.02545 4.28736 4.24714 5.08871 2.46952 5.89077C1.90116 6.07664 1.87598 6.1283 2.00668 6.69445C2.10221 7.1078 2.27457 7.54291 1.78958 7.85117C1.73641 7.87523 1.69142 7.91427 1.66012 7.96352C1.62882 8.01277 1.61257 8.07008 1.61337 8.12843C1.61292 8.12869 1.61246 8.1289 1.61198 8.12906C1.48608 8.56893 1.59165 8.99655 1.67156 9.42859C1.72235 9.7021 1.84955 9.69167 2.05968 9.59182C2.53511 9.36521 3.01751 9.15286 3.49943 8.94057C5.02317 8.27072 6.54719 7.60134 8.07148 6.93245C8.1142 6.93426 8.15698 6.93035 8.19867 6.92083C8.14918 6.94697 8.10343 6.97801 8.07844 7.03625L6.51534 7.95237L4.16159 9.15152C3.48727 9.2679 2.90242 9.63219 2.26328 9.83886C1.86771 9.96649 1.94632 10.1042 2.21595 10.2818C2.46822 10.5857 2.83991 10.6608 3.18853 10.7789L3.18997 10.7781C3.46012 10.9048 3.72864 11.0357 4.00182 11.1562C4.25582 11.2691 4.49195 11.3081 4.64654 10.986C4.73341 10.8032 4.89146 10.7767 5.08074 10.8635C5.37568 11.001 5.68793 11.005 6.00363 10.9505L6.00335 10.9508C6.00405 10.9508 6.00469 10.9508 6.00527 10.9509L6.00685 10.9522L6.00906 10.9512C6.12871 10.9616 6.24688 10.9631 6.35072 10.8871C6.49358 10.8871 6.63769 10.8758 6.77882 10.8901C7.45093 10.9587 8.15081 10.7303 8.79817 11.0881C8.92109 11.1558 9.0357 11.0217 9.14554 10.9657C10.3118 10.3688 11.4768 9.76917 12.6407 9.16675C14.1865 8.3702 15.7316 7.57376 17.2762 6.77744C17.4086 6.70887 17.7104 6.67893 17.4473 6.41104V6.40883C17.2669 6.0455 17.1052 5.67526 17.0412 5.27046L17.0425 5.26902C17.0221 4.9673 16.9192 4.69076 16.7889 4.4207C16.676 4.18928 16.5488 4.12494 16.2853 4.24219C15.6752 4.51397 15.0495 4.76197 14.4243 4.98556C13.7991 5.20915 13.2185 5.56041 12.5464 5.65157L12.5444 5.65133L12.5447 5.65114C12.5386 5.54821 12.6315 5.55993 12.6875 5.5287L16.0041 3.68209C16.0162 3.37249 15.9051 3.09417 15.787 2.81801L15.7862 2.81835L15.7864 2.81801C15.6275 2.41552 15.3488 2.29779 14.9459 2.45887C14.6727 2.57208 14.3816 2.63591 14.0861 2.64738V2.64646L14.084 2.64723L13.8543 2.62868C13.5312 2.55963 13.3281 2.29347 13.0541 2.14369L13.0542 2.14374ZM17.9354 7.38179C17.8603 7.38631 17.7754 7.41783 17.6753 7.4704C16.4526 8.11171 15.219 8.73207 13.989 9.35862C12.5436 10.0967 11.0959 10.8271 9.65576 11.573C9.56504 11.6194 9.31027 11.6095 9.43184 11.8365C9.59061 12.1321 9.5425 12.4445 9.55067 12.7543C9.55051 12.7543 9.55037 12.7544 9.55024 12.7545V12.7557C9.54681 12.9076 9.54366 13.0593 9.54078 13.2108C9.57455 13.454 9.66367 13.6862 9.80127 13.8895L9.80281 13.8898L9.8017 13.8903L9.97752 14.1244L10.3896 14.6402C10.4599 15.1199 10.7043 15.1251 11.1168 14.984C12.6122 14.4717 14.1223 14.001 15.6268 13.5147L15.7136 13.6042L15.7148 13.604L14.0751 14.3801C13.8019 14.453 13.554 14.5807 13.3087 14.7192C13.2727 14.7151 13.2363 14.7211 13.2036 14.7364C13.1708 14.7517 13.1429 14.7758 13.1229 14.806C12.4716 15.0483 11.837 15.3335 11.2233 15.6596C11.2132 15.6548 11.2016 15.6542 11.191 15.6577C11.1804 15.6613 11.1716 15.6688 11.1664 15.6787C11.0341 15.6931 10.9099 15.7492 10.8117 15.8389C10.5837 15.8901 10.3275 15.9644 10.3396 16.2362C10.37 16.9156 10.1343 17.5335 9.95888 18.1673L9.95845 18.1675C9.90451 18.2614 9.88071 18.3697 9.89026 18.4776C9.89982 18.5856 9.94227 18.688 10.0119 18.771C10.1456 18.9312 10.3232 18.7423 10.4699 18.6889C12.6972 17.8814 14.9226 17.0687 17.1461 16.2509C17.44 16.1432 17.8172 16.0955 17.9957 15.8849C18.1876 15.6578 17.9279 15.2918 17.9479 14.9805C17.973 14.8469 17.9985 14.7133 18.0236 14.5792C18.0237 14.5791 18.0238 14.5789 18.024 14.5788C18.1577 14.1677 18.4851 13.865 18.6523 13.4725L19.4147 12.4132C19.5767 12.0659 19.9739 11.9564 20.1849 11.6581L20.1751 11.6615L20.1828 11.6573C20.6365 11.3789 20.8305 10.9074 21.1501 10.4168L19.0869 11.0506C18.97 11.0583 18.855 11.0755 18.7409 11.0975C18.8015 11.0626 18.8546 11.0162 18.8972 10.9608C19.024 10.9 19.152 10.8406 19.2779 10.7776C19.9423 10.4459 20.6713 10.2526 21.2965 9.83756C21.2796 9.83444 21.2643 9.82572 21.2531 9.81281C21.2674 9.8206 21.2817 9.82843 21.2965 9.83756C21.3568 9.6565 21.3342 9.47236 21.3 9.29303L21.3012 9.29567C21.2526 9.04167 21.141 8.9114 20.8671 9.09462C20.694 9.21864 20.4943 9.30058 20.284 9.33392L20.2823 9.33493C20.2823 9.33427 20.2825 9.33362 20.2827 9.33301C19.9019 9.30432 19.509 9.31177 19.2476 8.95445H19.2489C19.1264 8.78642 18.9962 8.90751 18.872 8.957C17.9123 9.34262 16.9529 9.72892 15.9937 10.1159C15.9218 10.1226 15.8529 10.1389 15.7855 10.1602C15.8267 10.1204 15.8628 10.0755 15.8874 10.0191C16.5812 9.65927 17.2742 9.29832 17.9662 8.93619C18.268 8.77815 18.7613 8.66441 18.8186 8.44125C18.8933 8.15203 18.4248 7.9145 18.2541 7.61057C18.1586 7.44152 18.0607 7.37425 17.9355 7.38179H17.9354ZM18.0611 16.304C18.0193 16.3012 17.9656 16.3133 17.8967 16.3417C15.4735 17.3418 13.0479 18.3364 10.6201 19.3254C10.4347 19.4027 10.3948 19.4704 10.4899 19.6632C10.7217 20.1321 10.9349 20.6109 11.0543 21.1245L11.0535 21.1247H11.0543V21.1252C11.0687 21.2663 11.103 21.4092 11.0938 21.5491C11.0721 21.8725 11.1307 21.9719 11.4824 21.8156C13.0915 21.0991 14.718 20.4227 16.3266 19.7059C17.0114 19.4006 17.4777 18.8584 17.7638 18.1637L17.7622 18.1638C17.7626 18.1637 17.7627 18.1635 17.7631 18.1631C18.1782 17.6881 18.2429 17.1202 18.1973 16.5236C18.1868 16.3881 18.153 16.31 18.0611 16.304L18.0611 16.304ZM20.7326 17.1919C20.5392 17.1933 20.4126 17.3932 20.323 17.5721C20.2428 17.7315 20.1848 17.9022 20.1168 18.068L20.1163 18.0686C19.9973 18.3139 19.9022 18.5331 19.5249 18.4732C19.2596 18.431 18.8957 18.6416 18.9213 18.893C18.9743 19.4179 18.6231 19.8674 18.7308 20.3797C18.7722 20.4177 18.8125 20.4321 18.8522 20.4331C18.8043 20.4622 18.7595 20.4969 18.7216 20.5438C18.6547 20.7987 18.5818 21.0527 18.6526 21.3197L18.6539 21.3196C18.8606 21.7749 19.0159 21.8328 19.4625 21.7053C20.0036 21.5501 20.0014 21.0892 20.0909 20.6733C20.1729 20.4602 20.2332 20.245 20.2085 19.9911L19.4269 20.2282L19.4264 20.2303C19.365 20.2534 19.2948 20.2359 19.2331 20.2615C19.273 20.2297 19.3084 20.1925 19.3352 20.1448C19.4681 20.0671 19.5944 19.9729 19.7355 19.9139C20.7137 19.5071 20.8722 18.6495 20.9456 17.743C20.9499 17.5488 21.0845 17.2779 20.8197 17.2041C20.7914 17.196 20.762 17.1919 20.7326 17.192V17.1919ZM16.3236 20.0353C14.6776 20.885 13.105 21.7144 11.5133 22.505C11.1043 22.7087 11.0322 22.9301 11.2427 23.297C11.3321 23.6286 11.5647 23.8373 11.8502 24.0014V24.0017L11.8505 24.0016L11.8507 24.0017L11.8515 24.0019C11.9574 24.144 12.1066 24.1994 12.2749 24.2175C12.871 24.5692 13.5826 24.2518 13.9104 23.4876C14.3273 23.2515 14.7415 23.0057 15.1618 22.7739C15.4317 22.625 15.6219 22.441 15.5579 22.1021L15.5582 22.1016C15.6386 21.8789 15.926 21.8233 15.9807 21.5806C15.9317 21.0565 16.3736 20.6253 16.3241 20.0362L16.3236 20.0353Z" fill="#038B25"/>
</g>
<defs>
<clipPath id="clip0_350_891">
<rect width="21.5275" height="24.6029" fill="white" transform="translate(0.680176 0.14209)"/>
</clipPath>
</defs>
</svg>
