<svg width="197" height="37" viewBox="0 0 197 37" fill="none" xmlns="http://www.w3.org/2000/svg">
<g clip-path="url(#clip0_896_2)">
<path fill-rule="evenodd" clip-rule="evenodd" d="M12.5416 15.2019L24.0614 13.8013C24.1532 13.7902 24.2449 13.7803 24.3365 13.7711L26.3315 13.7178C32.0722 13.989 36.9846 17.9187 37.7475 23.222C38.6094 29.214 33.8611 34.7794 27.1956 35.5898L15.6758 36.9904C15.0473 37.0669 14.4664 36.6671 14.3851 36.102L12.6319 23.9137L12.0022 19.5356L12.0021 19.5351L11.5465 16.3683C11.4653 15.8032 11.913 15.2784 12.5415 15.202L12.5416 15.2019Z" fill="#003399"/>
<path fill-rule="evenodd" clip-rule="evenodd" d="M25.9034 13.7292C24.6639 17.9246 20.7128 21.2732 15.6586 21.8878L12.3976 22.2843L12.2161 21.0227L14.6715 20.7242C19.2328 20.1696 22.8957 17.3882 24.478 13.7673L25.9034 13.7293L25.9034 13.7292Z" fill="#2875DB" fill-opacity="0.019608"/>
<path fill-rule="evenodd" clip-rule="evenodd" d="M1.00467 1.4999L12.5244 0.0993143C19.1898 -0.711078 25.3486 3.52827 26.2105 9.52003L26.2105 9.52014C27.0724 15.5119 22.324 21.0774 15.6586 21.8878L4.13885 23.2884C3.51021 23.3648 2.92946 22.9651 2.84812 22.4L0.00949897 2.66627C-0.0717644 2.10117 0.376026 1.57637 1.00463 1.49993L1.00467 1.4999Z" fill="#204DFE" fill-opacity="0.901961"/>
<path d="M45.8469 30.6333V14.7071H52.2236C53.3953 14.7071 54.3725 14.8808 55.1553 15.2281C55.9382 15.5755 56.5266 16.0576 56.9206 16.6745C57.3146 17.2863 57.5116 17.9913 57.5116 18.7897C57.5116 19.4118 57.3872 19.9588 57.1383 20.4306C56.8895 20.8972 56.5473 21.2808 56.1119 21.5815C55.6816 21.877 55.189 22.087 54.6343 22.2114V22.3669C55.2409 22.3928 55.8086 22.5639 56.3374 22.8802C56.8714 23.1964 57.3042 23.6397 57.636 24.2099C57.9678 24.775 58.1337 25.449 58.1337 26.2318C58.1337 27.0769 57.9238 27.8312 57.5038 28.4948C57.0891 29.1532 56.4748 29.6742 55.6608 30.0578C54.8469 30.4415 53.8437 30.6333 52.6513 30.6333H45.8469ZM49.2141 27.8804H51.9592C52.8976 27.8804 53.5819 27.7016 54.0122 27.3439C54.4425 26.9809 54.6577 26.4988 54.6577 25.8974C54.6577 25.4568 54.5514 25.0679 54.3388 24.731C54.1263 24.394 53.823 24.1296 53.429 23.9378C53.0401 23.7459 52.5761 23.65 52.037 23.65H49.2141V27.8804ZM49.2141 21.3715H51.7104C52.1718 21.3715 52.5813 21.2912 52.9391 21.1304C53.302 20.9645 53.5871 20.7313 53.7945 20.4306C54.007 20.1299 54.1133 19.7696 54.1133 19.3496C54.1133 18.7742 53.9085 18.3102 53.499 17.9576C53.0946 17.6051 52.5191 17.4288 51.7726 17.4288H49.2141V21.3715ZM65.6594 30.8666C64.4515 30.8666 63.4068 30.61 62.5255 30.0967C61.6494 29.5783 60.9728 28.8577 60.4958 27.9349C60.0189 27.0069 59.7804 25.9311 59.7804 24.7076C59.7804 23.4738 60.0189 22.3954 60.4958 21.4726C60.9728 20.5446 61.6494 19.824 62.5255 19.3108C63.4068 18.7923 64.4515 18.5331 65.6594 18.5331C66.8674 18.5331 67.9094 18.7923 68.7856 19.3108C69.6669 19.824 70.346 20.5446 70.823 21.4726C71.3 22.3954 71.5384 23.4738 71.5384 24.7076C71.5384 25.9311 71.3 27.0069 70.823 27.9349C70.346 28.8577 69.6669 29.5783 68.7856 30.0967C67.9094 30.61 66.8674 30.8666 65.6594 30.8666ZM65.675 28.3004C66.2245 28.3004 66.6833 28.1448 67.0514 27.8338C67.4195 27.5175 67.6969 27.0872 67.8835 26.5429C68.0753 25.9985 68.1712 25.379 68.1712 24.6843C68.1712 23.9896 68.0753 23.3701 67.8835 22.8257C67.6969 22.2814 67.4195 21.8511 67.0514 21.5348C66.6833 21.2186 66.2245 21.0605 65.675 21.0605C65.1203 21.0605 64.6537 21.2186 64.2752 21.5348C63.9019 21.8511 63.6194 22.2814 63.4276 22.8257C63.2409 23.3701 63.1476 23.9896 63.1476 24.6843C63.1476 25.379 63.2409 25.9985 63.4276 26.5429C63.6194 27.0872 63.9019 27.5175 64.2752 27.8338C64.6537 28.1448 65.1203 28.3004 65.675 28.3004ZM81.3523 25.5475V18.6886H84.6651V30.6333H81.4845V28.4637H81.3601C81.0905 29.1635 80.6421 29.726 80.0148 30.1512C79.3927 30.5763 78.6332 30.7888 77.7363 30.7888C76.9379 30.7888 76.2354 30.6074 75.6289 30.2445C75.0223 29.8816 74.5479 29.3657 74.2058 28.697C73.8688 28.0282 73.6977 27.2272 73.6925 26.294V18.6886H77.0053V25.703C77.0105 26.4081 77.1997 26.9654 77.573 27.375C77.9463 27.7845 78.4465 27.9893 79.0738 27.9893C79.473 27.9893 79.8463 27.8986 80.1937 27.7171C80.541 27.5305 80.821 27.2557 81.0335 26.8928C81.2513 26.5299 81.3575 26.0815 81.3523 25.5475ZM90.6277 23.7278V30.6333H87.315V18.6886H90.4722V20.7961H90.6122C90.8766 20.1014 91.3198 19.5518 91.942 19.1474C92.5641 18.7379 93.3184 18.5331 94.2049 18.5331C95.0344 18.5331 95.7576 18.7146 96.3746 19.0775C96.9915 19.4404 97.471 19.9588 97.8132 20.6328C98.1554 21.3015 98.3265 22.0999 98.3265 23.0279V30.6333H95.0137V23.6189C95.0189 22.8879 94.8322 22.3177 94.4538 21.9081C94.0753 21.4933 93.5543 21.286 92.8907 21.286C92.4448 21.286 92.0508 21.3819 91.7087 21.5737C91.3717 21.7655 91.1073 22.0455 90.9155 22.4136C90.7288 22.7765 90.6329 23.2145 90.6277 23.7278ZM105.339 30.8277C104.432 30.8277 103.61 30.5944 102.874 30.1278C102.143 29.6561 101.562 28.964 101.132 28.0515C100.707 27.1339 100.494 26.0089 100.494 24.6765C100.494 23.3079 100.714 22.1699 101.155 21.2626C101.596 20.3502 102.182 19.6685 102.913 19.2174C103.649 18.7612 104.455 18.5331 105.331 18.5331C106 18.5331 106.557 18.6472 107.003 18.8753C107.454 19.0982 107.817 19.3781 108.092 19.7151C108.372 20.0469 108.584 20.3735 108.729 20.695H108.831V14.7071H112.136V30.6333H108.869V28.7203H108.729C108.574 29.0521 108.354 29.3813 108.068 29.7079C107.788 30.0293 107.423 30.2963 106.972 30.5089C106.526 30.7214 105.982 30.8277 105.339 30.8277ZM106.389 28.1915C106.923 28.1915 107.374 28.0463 107.742 27.756C108.115 27.4605 108.4 27.0483 108.597 26.5195C108.799 25.9907 108.901 25.3712 108.901 24.661C108.901 23.9507 108.802 23.3338 108.605 22.8102C108.408 22.2865 108.123 21.8822 107.75 21.597C107.376 21.3119 106.923 21.1693 106.389 21.1693C105.844 21.1693 105.386 21.3171 105.012 21.6126C104.639 21.9081 104.356 22.3177 104.165 22.8413C103.973 23.3649 103.877 23.9715 103.877 24.661C103.877 25.3557 103.973 25.97 104.165 26.504C104.362 27.0328 104.644 27.4475 105.012 27.7482C105.386 28.0437 105.844 28.1915 106.389 28.1915ZM118.172 14.7071V30.6333H114.859V14.7071H118.172ZM126.269 30.8666C125.041 30.8666 123.983 30.6177 123.096 30.1201C122.215 29.6172 121.536 28.9069 121.059 27.9893C120.582 27.0665 120.344 25.9752 120.344 24.7154C120.344 23.4867 120.582 22.4084 121.059 21.4804C121.536 20.5524 122.207 19.8292 123.073 19.3108C123.944 18.7923 124.965 18.5331 126.137 18.5331C126.925 18.5331 127.659 18.6601 128.338 18.9142C129.022 19.163 129.618 19.5389 130.126 20.0417C130.64 20.5446 131.039 21.1771 131.324 21.9392C131.609 22.6961 131.752 23.5826 131.752 24.5988V25.5086H121.666V23.4556H128.633C128.633 22.9787 128.53 22.5561 128.322 22.188C128.115 21.82 127.827 21.5322 127.459 21.3249C127.096 21.1123 126.674 21.006 126.192 21.006C125.689 21.006 125.243 21.1227 124.854 21.356C124.47 21.5841 124.17 21.8925 123.952 22.2814C123.734 22.665 123.623 23.0927 123.617 23.5645V25.5164C123.617 26.1074 123.726 26.618 123.944 27.0483C124.167 27.4786 124.481 27.8104 124.885 28.0437C125.289 28.277 125.769 28.3937 126.324 28.3937C126.692 28.3937 127.029 28.3418 127.335 28.2381C127.641 28.1345 127.902 27.9789 128.12 27.7716C128.338 27.5642 128.504 27.3102 128.618 27.0095L131.682 27.2117C131.526 27.9478 131.207 28.5907 130.725 29.1402C130.248 29.6846 129.631 30.1097 128.874 30.4156C128.123 30.7162 127.254 30.8666 126.269 30.8666ZM143.852 22.0947L140.819 22.2814C140.767 22.0221 140.656 21.7889 140.485 21.5815C140.314 21.3689 140.088 21.2004 139.808 21.076C139.533 20.9464 139.204 20.8816 138.821 20.8816C138.307 20.8816 137.874 20.9905 137.522 21.2082C137.169 21.4208 136.993 21.7059 136.993 22.0636C136.993 22.3488 137.107 22.5898 137.335 22.7868C137.563 22.9838 137.955 23.142 138.509 23.2612L140.671 23.6967C141.833 23.9352 142.698 24.3188 143.269 24.8476C143.839 25.3764 144.124 26.0711 144.124 26.9317C144.124 27.7145 143.893 28.4015 143.432 28.9925C142.976 29.5835 142.348 30.0449 141.55 30.3767C140.757 30.7033 139.842 30.8666 138.805 30.8666C137.224 30.8666 135.964 30.5374 135.026 29.879C134.092 29.2154 133.545 28.3133 133.385 27.1728L136.643 27.0017C136.742 27.4838 136.98 27.8519 137.359 28.1059C137.737 28.3548 138.222 28.4792 138.813 28.4792C139.393 28.4792 139.86 28.3678 140.212 28.1448C140.57 27.9167 140.752 27.6238 140.757 27.2661C140.752 26.9654 140.625 26.7191 140.376 26.5273C140.127 26.3303 139.743 26.18 139.225 26.0763L137.156 25.6641C135.99 25.4308 135.121 25.0265 134.551 24.451C133.986 23.8755 133.704 23.142 133.704 22.2503C133.704 21.483 133.911 20.822 134.326 20.2673C134.746 19.7125 135.334 19.2848 136.091 18.9841C136.853 18.6834 137.745 18.5331 138.766 18.5331C140.275 18.5331 141.462 18.8519 142.328 19.4896C143.199 20.1273 143.707 20.9957 143.852 22.0947ZM156.148 22.0947L153.116 22.2814C153.064 22.0221 152.952 21.7889 152.781 21.5815C152.61 21.3689 152.385 21.2004 152.105 21.076C151.83 20.9464 151.501 20.8816 151.117 20.8816C150.604 20.8816 150.171 20.9905 149.818 21.2082C149.466 21.4208 149.29 21.7059 149.29 22.0636C149.29 22.3488 149.404 22.5898 149.632 22.7868C149.86 22.9838 150.251 23.142 150.806 23.2612L152.968 23.6967C154.129 23.9352 154.995 24.3188 155.565 24.8476C156.135 25.3764 156.421 26.0711 156.421 26.9317C156.421 27.7145 156.19 28.4015 155.729 28.9925C155.272 29.5835 154.645 30.0449 153.847 30.3767C153.053 30.7033 152.138 30.8666 151.102 30.8666C149.52 30.8666 148.26 30.5374 147.322 29.879C146.389 29.2154 145.842 28.3133 145.681 27.1728L148.94 27.0017C149.038 27.4838 149.277 27.8519 149.655 28.1059C150.034 28.3548 150.518 28.4792 151.109 28.4792C151.69 28.4792 152.157 28.3678 152.509 28.1448C152.867 27.9167 153.048 27.6238 153.053 27.2661C153.048 26.9654 152.921 26.7191 152.672 26.5273C152.424 26.3303 152.04 26.18 151.521 26.0763L149.453 25.6641C148.286 25.4308 147.418 25.0265 146.848 24.451C146.283 23.8755 146 23.142 146 22.2503C146 21.483 146.208 20.822 146.622 20.2673C147.042 19.7125 147.631 19.2848 148.388 18.9841C149.15 18.6834 150.041 18.5331 151.063 18.5331C152.571 18.5331 153.758 18.8519 154.624 19.4896C155.495 20.1273 156.003 20.9957 156.148 22.0947Z" fill="#003399"/>
<path d="M158.937 30.6333V14.7071H165.22C166.428 14.7071 167.457 14.9378 168.307 15.3992C169.158 15.8554 169.806 16.4905 170.252 17.3044C170.703 18.1132 170.928 19.0464 170.928 20.104C170.928 21.1616 170.7 22.0947 170.244 22.9035C169.788 23.7122 169.127 24.3421 168.261 24.7932C167.4 25.2442 166.358 25.4697 165.135 25.4697H161.13V22.7713H164.59C165.238 22.7713 165.772 22.6598 166.192 22.4369C166.617 22.2088 166.934 21.8951 167.141 21.4959C167.354 21.0916 167.46 20.6276 167.46 20.104C167.46 19.5752 167.354 19.1137 167.141 18.7197C166.934 18.3205 166.617 18.0121 166.192 17.7943C165.767 17.5714 165.228 17.46 164.575 17.46H162.304V30.6333H158.937ZM176.138 30.8588C175.376 30.8588 174.697 30.7266 174.101 30.4622C173.505 30.1926 173.033 29.796 172.686 29.2724C172.343 28.7436 172.172 28.0852 172.172 27.2972C172.172 26.6336 172.294 26.0763 172.538 25.6253C172.781 25.1742 173.113 24.8113 173.533 24.5365C173.953 24.2618 174.43 24.0544 174.964 23.9144C175.503 23.7744 176.068 23.6759 176.659 23.6189C177.354 23.5463 177.914 23.4789 178.339 23.4167C178.764 23.3493 179.073 23.2508 179.264 23.1212C179.456 22.9916 179.552 22.7998 179.552 22.5458V22.4991C179.552 22.0066 179.397 21.6255 179.086 21.356C178.78 21.0864 178.344 20.9516 177.779 20.9516C177.183 20.9516 176.709 21.0838 176.356 21.3482C176.004 21.6074 175.77 21.934 175.656 22.328L172.592 22.0792C172.748 21.3534 173.054 20.7261 173.51 20.1973C173.966 19.6633 174.555 19.2537 175.275 18.9686C176.001 18.6783 176.841 18.5331 177.795 18.5331C178.458 18.5331 179.093 18.6109 179.7 18.7664C180.312 18.9219 180.853 19.163 181.325 19.4896C181.802 19.8162 182.178 20.2362 182.453 20.7494C182.728 21.2575 182.865 21.8666 182.865 22.5769V30.6333H179.723V28.9769H179.63C179.438 29.3502 179.182 29.6794 178.86 29.9645C178.539 30.2445 178.152 30.4648 177.701 30.6255C177.25 30.7811 176.729 30.8588 176.138 30.8588ZM177.087 28.5725C177.574 28.5725 178.005 28.4766 178.378 28.2848C178.751 28.0878 179.044 27.8234 179.257 27.4916C179.469 27.1598 179.576 26.7839 179.576 26.364V25.0965C179.472 25.1638 179.329 25.2261 179.148 25.2831C178.972 25.3349 178.772 25.3842 178.549 25.4308C178.326 25.4723 178.103 25.5112 177.88 25.5475C177.657 25.5786 177.455 25.6071 177.274 25.633C176.885 25.6901 176.545 25.7808 176.255 25.9052C175.965 26.0296 175.739 26.1981 175.578 26.4107C175.418 26.618 175.337 26.8773 175.337 27.1883C175.337 27.6394 175.501 27.9841 175.827 28.2226C176.159 28.4559 176.579 28.5725 177.087 28.5725Z" fill="#204DFE"/>
<path d="M187.797 35.1126C187.377 35.1126 186.983 35.0789 186.615 35.0115C186.252 34.9492 185.952 34.8689 185.713 34.7704L186.46 32.2975C186.848 32.4167 187.198 32.4815 187.509 32.4919C187.826 32.5022 188.098 32.4297 188.326 32.2741C188.559 32.1186 188.749 31.8542 188.894 31.4809L189.088 30.9755L184.803 18.6886H188.287L190.76 27.4605H190.884L193.381 18.6886H196.888L192.245 31.9242C192.022 32.5671 191.719 33.127 191.336 33.6039C190.957 34.0861 190.477 34.4567 189.897 34.716C189.316 34.9804 188.616 35.1126 187.797 35.1126Z" fill="#204DFE"/>
</g>
<defs>
<clipPath id="clip0_896_2">
<rect width="196.175" height="37" fill="white"/>
</clipPath>
</defs>
</svg>
