<svg width="194" height="41" viewBox="0 0 194 41" fill="none" xmlns="http://www.w3.org/2000/svg">
<g clip-path="url(#clip0_851_3)">
<path fill-rule="evenodd" clip-rule="evenodd" d="M12.4025 16.7407L23.7946 15.1987C23.8854 15.1864 23.9761 15.1755 24.0667 15.1654L26.0396 15.1067C31.7166 15.4053 36.5745 19.7319 37.329 25.5708C38.1813 32.1679 33.4857 38.2953 26.8941 39.1876L15.502 40.7297C14.8804 40.8139 14.306 40.3737 14.2256 39.7516L12.4919 26.3323L11.8691 21.5121L11.869 21.5115L11.4185 18.0249C11.3381 17.4027 11.781 16.8249 12.4025 16.7408L12.4025 16.7407Z" fill="#003399"/>
<path fill-rule="evenodd" clip-rule="evenodd" d="M25.6162 15.1194C24.3904 19.7384 20.4832 23.4253 15.485 24.1019L12.2601 24.5384L12.0807 23.1494L14.5089 22.8207C19.0196 22.2101 22.6419 19.1478 24.2066 15.1613L25.6162 15.1194L25.6162 15.1194Z" fill="#2875DB" fill-opacity="0.019608"/>
<path fill-rule="evenodd" clip-rule="evenodd" d="M0.993559 1.65479L12.3855 0.112762C18.9771 -0.779473 25.0675 3.88801 25.9199 10.4849L25.9199 10.485C26.7723 17.0819 22.0765 23.2094 15.485 24.1017L4.09299 25.6438C3.47131 25.7279 2.897 25.2878 2.81657 24.6656L0.00942006 2.93896C-0.0709423 2.31678 0.371883 1.73899 0.99352 1.65483L0.993559 1.65479Z" fill="#204DFE" fill-opacity="0.901961"/>
<path d="M45.4929 33.6096V16.0843H52.5099C53.7992 16.0843 54.8746 16.2754 55.736 16.6576C56.5974 17.0398 57.2449 17.5704 57.6785 18.2493C58.1121 18.9224 58.3289 19.6983 58.3289 20.5768C58.3289 21.2614 58.192 21.8633 57.9181 22.3824C57.6443 22.8959 57.2678 23.318 56.7886 23.6489C56.3151 23.9741 55.7731 24.2051 55.1627 24.3421V24.5132C55.8301 24.5417 56.4548 24.73 57.0367 25.078C57.6243 25.426 58.1007 25.9138 58.4658 26.5413C58.8309 27.1631 59.0135 27.9048 59.0135 28.7662C59.0135 29.6961 58.7824 30.5261 58.3203 31.2564C57.8639 31.9809 57.1879 32.5542 56.2922 32.9764C55.3966 33.3985 54.2927 33.6096 52.9806 33.6096H45.4929ZM49.1982 30.5803H52.219C53.2515 30.5803 54.0046 30.3835 54.4781 29.9899C54.9516 29.5905 55.1883 29.06 55.1883 28.3982C55.1883 27.9133 55.0714 27.4854 54.8375 27.1146C54.6036 26.7438 54.2699 26.4529 53.8363 26.2418C53.4084 26.0307 52.8978 25.9252 52.3045 25.9252H49.1982V30.5803ZM49.1982 23.4179H51.9451C52.4529 23.4179 52.9035 23.3294 53.2972 23.1526C53.6965 22.97 54.0103 22.7133 54.2385 22.3824C54.4724 22.0516 54.5893 21.6551 54.5893 21.193C54.5893 20.5597 54.364 20.0491 53.9133 19.6612C53.4683 19.2733 52.8351 19.0793 52.0136 19.0793H49.1982V23.4179ZM67.2948 33.8663C65.9655 33.8663 64.816 33.5839 63.8462 33.0192C62.8821 32.4487 62.1376 31.6557 61.6127 30.6402C61.0879 29.6191 60.8255 28.4353 60.8255 27.089C60.8255 25.7312 61.0879 24.5446 61.6127 23.5291C62.1376 22.5079 62.8821 21.715 63.8462 21.1502C64.816 20.5797 65.9655 20.2945 67.2948 20.2945C68.624 20.2945 69.7707 20.5797 70.7348 21.1502C71.7046 21.715 72.452 22.5079 72.9768 23.5291C73.5017 24.5446 73.7641 25.7312 73.7641 27.089C73.7641 28.4353 73.5017 29.6191 72.9768 30.6402C72.452 31.6557 71.7046 32.4487 70.7348 33.0192C69.7707 33.5839 68.624 33.8663 67.2948 33.8663ZM67.3119 31.0424C67.9166 31.0424 68.4215 30.8713 68.8265 30.529C69.2316 30.181 69.5368 29.7075 69.7422 29.1085C69.9533 28.5095 70.0588 27.8277 70.0588 27.0633C70.0588 26.2988 69.9533 25.6171 69.7422 25.0181C69.5368 24.4191 69.2316 23.9456 68.8265 23.5976C68.4215 23.2496 67.9166 23.0756 67.3119 23.0756C66.7015 23.0756 66.188 23.2496 65.7716 23.5976C65.3608 23.9456 65.0499 24.4191 64.8388 25.0181C64.6335 25.6171 64.5308 26.2988 64.5308 27.0633C64.5308 27.8277 64.6335 28.5095 64.8388 29.1085C65.0499 29.7075 65.3608 30.181 65.7716 30.529C66.188 30.8713 66.7015 31.0424 67.3119 31.0424ZM84.5634 28.0131V20.4656H88.2088V33.6096H84.7089V31.2221H84.572C84.2753 31.9923 83.7819 32.6113 83.0916 33.0791C82.407 33.5469 81.5712 33.7808 80.5843 33.7808C79.7057 33.7808 78.9327 33.5811 78.2652 33.1818C77.5978 32.7824 77.0758 32.2148 76.6993 31.4789C76.3284 30.7429 76.1402 29.8615 76.1345 28.8346V20.4656H79.7799V28.1843C79.7856 28.9602 79.9938 29.5734 80.4046 30.0241C80.8153 30.4748 81.3658 30.7001 82.0561 30.7001C82.4954 30.7001 82.9062 30.6003 83.2884 30.4006C83.6706 30.1953 83.9787 29.8929 84.2126 29.4936C84.4522 29.0942 84.5691 28.6007 84.5634 28.0131ZM94.7701 26.0107V33.6096H91.1247V20.4656H94.599V22.7846H94.753C95.044 22.0202 95.5317 21.4155 96.2163 20.9705C96.9009 20.5198 97.731 20.2945 98.7065 20.2945C99.6193 20.2945 100.415 20.4941 101.094 20.8935C101.773 21.2928 102.301 21.8633 102.677 22.6049C103.054 23.3409 103.242 24.2194 103.242 25.2406V33.6096H99.5965V25.8909C99.6022 25.0865 99.3968 24.459 98.9803 24.0083C98.5639 23.5519 97.9905 23.3237 97.2603 23.3237C96.7697 23.3237 96.3361 23.4293 95.9596 23.6404C95.5888 23.8514 95.2978 24.1595 95.0868 24.5645C94.8814 24.9639 94.7758 25.446 94.7701 26.0107ZM110.958 33.8236C109.96 33.8236 109.056 33.5668 108.246 33.0534C107.441 32.5343 106.802 31.7727 106.329 30.7686C105.861 29.7588 105.627 28.5209 105.627 27.0547C105.627 25.5486 105.87 24.2964 106.355 23.2981C106.84 22.294 107.484 21.5438 108.289 21.0475C109.099 20.5455 109.986 20.2945 110.95 20.2945C111.686 20.2945 112.299 20.42 112.79 20.671C113.286 20.9163 113.685 21.2243 113.988 21.5952C114.296 21.9603 114.53 22.3197 114.689 22.6734H114.801V16.0843H118.438V33.6096H114.843V31.5045H114.689C114.518 31.8696 114.276 32.2319 113.962 32.5913C113.654 32.945 113.252 33.2388 112.755 33.4727C112.265 33.7066 111.666 33.8236 110.958 33.8236ZM112.114 30.9226C112.701 30.9226 113.198 30.7629 113.603 30.4434C114.013 30.1182 114.327 29.6647 114.544 29.0828C114.766 28.5009 114.878 27.8192 114.878 27.0376C114.878 26.256 114.769 25.5772 114.552 25.001C114.336 24.4248 114.022 23.9798 113.611 23.666C113.2 23.3523 112.701 23.1954 112.114 23.1954C111.515 23.1954 111.01 23.358 110.599 23.6831C110.188 24.0083 109.877 24.459 109.666 25.0352C109.455 25.6114 109.35 26.2789 109.35 27.0376C109.35 27.8021 109.455 28.4781 109.666 29.0657C109.883 29.6476 110.194 30.104 110.599 30.4349C111.01 30.76 111.515 30.9226 112.114 30.9226ZM125.08 16.0843V33.6096H121.435V16.0843H125.08ZM133.99 33.8663C132.638 33.8663 131.475 33.5925 130.499 33.0448C129.529 32.4915 128.782 31.7099 128.257 30.7001C127.732 29.6847 127.47 28.4838 127.47 27.0975C127.47 25.7455 127.732 24.5588 128.257 23.5377C128.782 22.5165 129.521 21.7207 130.473 21.1502C131.432 20.5797 132.556 20.2945 133.845 20.2945C134.712 20.2945 135.519 20.4342 136.267 20.7138C137.02 20.9876 137.676 21.4012 138.235 21.9546C138.8 22.5079 139.239 23.2039 139.553 24.0426C139.866 24.8755 140.023 25.851 140.023 26.9692V27.9704H128.924V25.7112H136.592C136.592 25.1864 136.478 24.7214 136.25 24.3164C136.021 23.9113 135.705 23.5947 135.3 23.3665C134.9 23.1326 134.435 23.0157 133.905 23.0157C133.351 23.0157 132.861 23.144 132.433 23.4008C132.011 23.6518 131.68 23.9912 131.44 24.4191C131.201 24.8412 131.078 25.3119 131.072 25.831V27.9789C131.072 28.6293 131.192 29.1912 131.432 29.6647C131.677 30.1382 132.022 30.5033 132.467 30.76C132.912 31.0168 133.44 31.1451 134.05 31.1451C134.455 31.1451 134.826 31.0881 135.163 30.974C135.499 30.8599 135.787 30.6887 136.027 30.4605C136.267 30.2323 136.449 29.9528 136.575 29.6219L139.946 29.8444C139.775 30.6545 139.424 31.3619 138.894 31.9666C138.369 32.5656 137.69 33.0334 136.857 33.37C136.03 33.7009 135.074 33.8663 133.99 33.8663ZM153.338 24.2137L150.001 24.4191C149.944 24.1338 149.821 23.8771 149.633 23.6489C149.445 23.415 149.197 23.2296 148.889 23.0927C148.586 22.9501 148.224 22.8788 147.802 22.8788C147.237 22.8788 146.761 22.9986 146.373 23.2382C145.985 23.4721 145.791 23.7858 145.791 24.1795C145.791 24.4932 145.916 24.7585 146.167 24.9753C146.418 25.1921 146.849 25.3661 147.46 25.4973L149.839 25.9765C151.116 26.2389 152.069 26.6611 152.697 27.243C153.324 27.8249 153.638 28.5893 153.638 29.5363C153.638 30.3978 153.384 31.1537 152.876 31.804C152.374 32.4544 151.684 32.9621 150.806 33.3272C149.933 33.6866 148.926 33.8663 147.785 33.8663C146.045 33.8663 144.659 33.5041 143.626 32.7796C142.599 32.0493 141.997 31.0567 141.82 29.8016L145.406 29.6134C145.514 30.1439 145.777 30.549 146.193 30.8285C146.61 31.1023 147.143 31.2392 147.793 31.2392C148.432 31.2392 148.946 31.1166 149.334 30.8713C149.727 30.6203 149.927 30.2979 149.933 29.9043C149.927 29.5734 149.787 29.3024 149.513 29.0914C149.24 28.8746 148.817 28.7091 148.247 28.595L145.971 28.1415C144.687 27.8848 143.731 27.4398 143.104 26.8066C142.482 26.1733 142.171 25.3661 142.171 24.3848C142.171 23.5405 142.399 22.8132 142.856 22.2027C143.318 21.5923 143.965 21.1217 144.798 20.7908C145.637 20.4599 146.618 20.2945 147.742 20.2945C149.402 20.2945 150.709 20.6453 151.661 21.347C152.62 22.0487 153.179 23.0043 153.338 24.2137ZM166.87 24.2137L163.532 24.4191C163.475 24.1338 163.353 23.8771 163.164 23.6489C162.976 23.415 162.728 23.2296 162.42 23.0927C162.118 22.9501 161.755 22.8788 161.333 22.8788C160.768 22.8788 160.292 22.9986 159.904 23.2382C159.516 23.4721 159.322 23.7858 159.322 24.1795C159.322 24.4932 159.448 24.7585 159.699 24.9753C159.95 25.1921 160.38 25.3661 160.991 25.4973L163.37 25.9765C164.648 26.2389 165.6 26.6611 166.228 27.243C166.855 27.8249 167.169 28.5893 167.169 29.5363C167.169 30.3978 166.915 31.1537 166.408 31.804C165.906 32.4544 165.215 32.9621 164.337 33.3272C163.464 33.6866 162.457 33.8663 161.316 33.8663C159.576 33.8663 158.19 33.5041 157.157 32.7796C156.13 32.0493 155.528 31.0567 155.352 29.8016L158.937 29.6134C159.045 30.1439 159.308 30.549 159.724 30.8285C160.141 31.1023 160.674 31.2392 161.325 31.2392C161.964 31.2392 162.477 31.1166 162.865 30.8713C163.259 30.6203 163.458 30.2979 163.464 29.9043C163.458 29.5734 163.318 29.3024 163.045 29.0914C162.771 28.8746 162.349 28.7091 161.778 28.595L159.502 28.1415C158.218 27.8848 157.263 27.4398 156.635 26.8066C156.013 26.1733 155.702 25.3661 155.702 24.3848C155.702 23.5405 155.931 22.8132 156.387 22.2027C156.849 21.5923 157.497 21.1217 158.33 20.7908C159.168 20.4599 160.149 20.2945 161.273 20.2945C162.933 20.2945 164.24 20.6453 165.192 21.347C166.151 22.0487 166.71 23.0043 166.87 24.2137Z" fill="#003399"/>
<path d="M157.329 33.6096V16.0843H164.243C165.572 16.0843 166.705 16.3381 167.64 16.8459C168.576 17.3479 169.289 18.0467 169.78 18.9424C170.276 19.8324 170.524 20.8592 170.524 22.023C170.524 23.1868 170.273 24.2137 169.771 25.1037C169.269 25.9936 168.542 26.6868 167.589 27.1831C166.642 27.6794 165.495 27.9276 164.149 27.9276H159.742V24.9582H163.55C164.263 24.9582 164.851 24.8355 165.313 24.5902C165.781 24.3392 166.129 23.9941 166.357 23.5548C166.591 23.1098 166.708 22.5992 166.708 22.023C166.708 21.4411 166.591 20.9334 166.357 20.4998C166.129 20.0606 165.781 19.7211 165.313 19.4815C164.845 19.2362 164.252 19.1135 163.533 19.1135H161.034V33.6096H157.329ZM176.258 33.8578C175.419 33.8578 174.672 33.7123 174.016 33.4214C173.36 33.1247 172.84 32.6883 172.458 32.1121C172.082 31.5302 171.893 30.8057 171.893 29.9385C171.893 29.2083 172.027 28.595 172.296 28.0987C172.564 27.6024 172.929 27.2031 173.391 26.9007C173.853 26.5983 174.378 26.3701 174.965 26.2161C175.559 26.0621 176.181 25.9537 176.831 25.8909C177.595 25.8111 178.212 25.7369 178.679 25.6684C179.147 25.5943 179.487 25.4859 179.698 25.3433C179.909 25.2006 180.014 24.9896 180.014 24.71V24.6587C180.014 24.1167 179.843 23.6974 179.501 23.4008C179.164 23.1041 178.685 22.9558 178.063 22.9558C177.407 22.9558 176.885 23.1013 176.497 23.3922C176.109 23.6774 175.853 24.0368 175.727 24.4704L172.356 24.1966C172.527 23.3979 172.863 22.7076 173.365 22.1257C173.867 21.5381 174.515 21.0874 175.308 20.7737C176.106 20.4542 177.031 20.2945 178.08 20.2945C178.811 20.2945 179.509 20.38 180.177 20.5512C180.85 20.7223 181.446 20.9876 181.965 21.347C182.49 21.7064 182.904 22.1685 183.206 22.7333C183.509 23.2924 183.66 23.9627 183.66 24.7443V33.6096H180.203V31.7869H180.1C179.889 32.1977 179.606 32.5599 179.253 32.8737C178.899 33.1818 178.474 33.4242 177.978 33.6011C177.481 33.7722 176.908 33.8578 176.258 33.8578ZM177.302 31.3419C177.838 31.3419 178.311 31.2364 178.722 31.0253C179.133 30.8085 179.455 30.5176 179.689 30.1525C179.923 29.7874 180.04 29.3738 180.04 28.9117V27.5168C179.926 27.591 179.769 27.6594 179.569 27.7222C179.375 27.7792 179.156 27.8334 178.91 27.8848C178.665 27.9304 178.42 27.9732 178.174 28.0131C177.929 28.0474 177.707 28.0787 177.507 28.1073C177.079 28.17 176.705 28.2699 176.386 28.4068C176.067 28.5437 175.818 28.7291 175.642 28.963C175.465 29.1912 175.376 29.4764 175.376 29.8187C175.376 30.3151 175.556 30.6944 175.915 30.9569C176.28 31.2136 176.743 31.3419 177.302 31.3419Z" fill="#204DFE"/>
<path d="M186.09 38.5386C185.628 38.5386 185.195 38.5015 184.79 38.4274C184.39 38.3589 184.059 38.2705 183.797 38.1621L184.619 35.4409C185.046 35.5721 185.432 35.6434 185.774 35.6548C186.122 35.6662 186.421 35.5864 186.672 35.4152C186.929 35.2441 187.137 34.9531 187.297 34.5424L187.511 33.9861L182.796 20.4656H186.63L189.351 30.1182H189.488L192.235 20.4656H196.094L190.985 35.0301C190.74 35.7375 190.406 36.3537 189.984 36.8785C189.568 37.4091 189.04 37.817 188.401 38.1022C187.762 38.3932 186.992 38.5386 186.09 38.5386Z" fill="#204DFE"/>
</g>
<defs>
<clipPath id="clip0_851_3">
<rect width="194" height="40.7367" fill="white" transform="translate(0 0.00341797)"/>
</clipPath>
</defs>
</svg>
