<svg width="37" height="37" viewBox="0 0 37 37" fill="none" xmlns="http://www.w3.org/2000/svg">
<path fill-rule="evenodd" clip-rule="evenodd" d="M10.667 10.3074C8.07424 10.3074 5.97232 12.4092 5.97232 15.002C5.97232 17.5947 8.07417 19.6966 10.667 19.6966C13.2597 19.6966 15.3617 17.5947 15.3617 15.002C15.3617 12.4092 13.2597 10.3074 10.667 10.3074ZM15.019 0.989319H25.9507C26.4891 0.989319 26.9296 1.42992 26.9296 1.9683V8.64904C26.9296 9.18742 26.4891 9.62802 25.9507 9.62802H20.1427L16.5526 12.5872V9.62795H15.019C14.4807 9.62795 14.0401 9.18749 14.0401 8.64897V1.9683C14.0401 1.42985 14.4806 0.989319 15.019 0.989319ZM19.9067 2.49873V2.83354C19.6641 2.91007 19.4466 3.04441 19.2709 3.22023C18.2833 4.20774 18.9964 5.88683 20.3749 5.88683C20.5758 5.88683 20.7354 5.8606 20.8814 6.00665C21.1418 6.26709 20.9475 6.69946 20.5949 6.69946C20.3199 6.69946 20.1104 6.74463 19.9543 6.52898C19.7673 6.27078 19.4063 6.21318 19.1482 6.40028C18.8899 6.58738 18.8324 6.94834 19.0194 7.20647C19.2326 7.50103 19.5505 7.71681 19.9068 7.80794V8.11868C19.9068 8.43795 20.1657 8.69681 20.4849 8.69681C20.8042 8.69681 21.063 8.43795 21.063 8.11868V7.78388C21.3057 7.70735 21.5232 7.57293 21.699 7.39718C22.6863 6.40989 21.9736 4.73065 20.595 4.73065C20.3939 4.73065 20.2345 4.75689 20.0884 4.61084C19.828 4.35047 20.0223 3.91803 20.3749 3.91803C20.6499 3.91803 20.8593 3.87286 21.0154 4.0885C21.2025 4.34664 21.5634 4.4043 21.8216 4.21721C22.0798 4.03011 22.1374 3.66922 21.9503 3.41101C21.7371 3.11646 21.4192 2.90067 21.063 2.80955V2.49888C21.063 2.17961 20.8041 1.92075 20.4848 1.92075C20.1656 1.92061 19.9067 2.17946 19.9067 2.49873ZM32.6523 4.69496H28.0858V6.27663H31.512C31.8313 6.27663 32.0901 6.53549 32.0901 6.85476C32.0901 7.17403 31.8313 7.43288 31.512 7.43288H28.0858V8.43622H31.512C31.8313 8.43622 32.0901 8.69507 32.0901 9.01434C32.0901 9.33361 31.8313 9.59247 31.512 9.59247H27.8654C27.6462 10.0352 27.278 10.3918 26.8267 10.5959H31.512C31.8313 10.5959 32.0901 10.8547 32.0901 11.174C32.0901 11.4933 31.8313 11.7521 31.512 11.7521H22.8608C22.357 11.7521 22.098 11.1519 22.4339 10.7842H20.7417V12.3547C20.7417 12.8931 21.1822 13.3336 21.7207 13.3336H27.5287L31.1188 16.2927V13.3336H32.6524C33.1907 13.3336 33.6313 12.8931 33.6313 12.3547V5.67394C33.6313 5.13549 33.1907 4.69496 32.6523 4.69496ZM19.0241 35.3594C19.3599 30.8832 23.1275 27.3245 27.686 27.3245C32.2444 27.3245 36.0121 30.8832 36.3479 35.3594C36.3744 35.7131 36.0983 36.0107 35.7436 36.0107H19.6284C19.2737 36.0107 18.9976 35.7131 19.0241 35.3594ZM27.686 17.4819C25.0932 17.4819 22.9914 19.5838 22.9914 22.1765C22.9914 24.7693 25.0932 26.8711 27.686 26.8711C30.2787 26.8711 32.3806 24.7693 32.3806 22.1765C32.3806 19.5838 30.2787 17.4819 27.686 17.4819ZM1.23892 26.2774C0.915244 26.2774 0.650391 26.5423 0.650391 26.866V27.8978C0.650391 28.2215 0.915244 28.4863 1.23892 28.4863H21.3575C22.1832 27.7909 23.1231 27.2287 24.1424 26.8323C23.9196 26.6625 23.7093 26.4769 23.5133 26.2774H1.23892ZM31.842 26.2944C32.0989 26.3574 32.2909 26.5904 32.2909 26.866V27.32C31.9483 27.1373 31.594 26.9741 31.2295 26.8323C31.446 26.6672 31.6506 26.4874 31.842 26.2944ZM2.82161 25.1212C4.22046 22.1889 7.21681 20.1499 10.6671 20.1499C14.1173 20.1499 17.1136 22.1889 18.5124 25.1212H2.82161ZM19.0512 31.298C19.3762 30.7064 19.7601 30.1521 20.1945 29.6426H1.76343V31.298H19.0512Z" fill="#038B25"/>
</svg>
