<svg width="20" height="20" viewBox="0 0 20 20" fill="none" xmlns="http://www.w3.org/2000/svg">
<path d="M0.87207 9.26992L4.9754 5.16546C5.19663 4.94498 5.44995 4.78906 5.73536 4.6977C6.02077 4.60634 6.31638 4.59124 6.62217 4.6524L8.22477 4.98538C7.37987 6.01904 6.69051 6.9538 6.15668 7.78964C5.62286 8.62548 5.08904 9.64028 4.55522 10.834L0.87207 9.26992ZM5.54396 11.1047C6.03625 9.96457 6.62633 8.87352 7.31418 7.83155C8.00128 6.79109 8.78653 5.82915 9.66994 4.94574C11.0842 3.53152 12.6218 2.47218 14.2829 1.76772C15.9441 1.06326 17.7358 0.762368 19.6582 0.865055C19.7608 2.78742 19.4607 4.57916 18.7578 6.24027C18.0548 7.90139 16.9966 9.43906 15.5831 10.8533C14.7043 11.7314 13.7423 12.5129 12.6973 13.1977C11.6523 13.8825 10.5586 14.4711 9.41624 14.9634L5.54396 11.1047ZM12.532 7.96972C12.8642 8.30195 13.2666 8.46806 13.7393 8.46806C14.212 8.46806 14.6144 8.30195 14.9466 7.96972C15.2789 7.6375 15.445 7.23845 15.445 6.77259C15.445 6.30672 15.2789 5.90767 14.9466 5.57545C14.6144 5.24323 14.212 5.07712 13.7393 5.07712C13.2666 5.07712 12.8638 5.24323 12.5308 5.57545C12.1979 5.90767 12.0317 6.30672 12.0325 6.77259C12.0333 7.23845 12.1994 7.63712 12.5308 7.96859M11.2159 19.65L9.64276 15.9669C10.8365 15.4338 11.8524 14.8966 12.6905 14.3552C13.5294 13.8138 14.4657 13.1207 15.4993 12.2758L15.8266 13.8784C15.887 14.1834 15.8753 14.4798 15.7915 14.7675C15.7077 15.0559 15.5552 15.3107 15.334 15.532L11.2159 19.65ZM2.50978 14.7731C2.95299 14.3307 3.49021 14.1117 4.12144 14.1162C4.75266 14.1208 5.28988 14.345 5.7331 14.789C6.17631 15.2314 6.39792 15.7687 6.39792 16.4006C6.39792 17.0326 6.17631 17.5698 5.7331 18.0123C5.34802 18.3974 4.73077 18.727 3.88133 19.001C3.0319 19.2751 2.04844 19.4646 0.930964 19.5696C1.03516 18.4529 1.22808 17.4705 1.50971 16.6226C1.79135 15.7747 2.1247 15.1582 2.50978 14.7731Z" fill="#038B25"/>
</svg>
