<svg width="22" height="22" viewBox="0 0 22 22" fill="none" xmlns="http://www.w3.org/2000/svg">
<path fill-rule="evenodd" clip-rule="evenodd" d="M18.2872 3.80642V18.1581H3.93557V3.80642H18.2872ZM9.97617 7.39434H8.57845L5.92485 14.5702H7.18583L7.6868 13.1674H10.8633L11.3536 14.5702H12.6905L9.97617 7.39434ZM14.9288 7.39434H13.673V14.5702H14.9288V7.39434ZM9.26666 8.59825L10.5177 12.1782H8.03561L9.26666 8.59825ZM19.4833 14.5702H21.8752V16.9621H19.4832L19.4833 14.5702ZM5.13164 19.354H7.52349V21.746H5.13153L5.13164 19.354ZM9.91551 19.354H12.3074V21.746H9.91551V19.354ZM5.13153 0.218506H7.52349V2.61047H5.13153V0.218506ZM14.6993 19.354H17.0913V21.746H14.6993V19.354ZM9.91545 0.218506H12.3074V2.61047H9.91545V0.218506ZM14.6993 0.218506H17.0913V2.61047H14.6993V0.218506ZM19.4832 9.7863H21.8752V12.1782H19.4832V9.7863ZM0.347656 14.5702H2.73962V16.9621H0.347656V14.5702ZM19.4832 5.00238H21.8752V7.39434H19.4832V5.00238ZM0.347656 9.7863H2.73962V12.1782H0.347656V9.7863ZM0.347656 5.00238H2.73962V7.39434H0.347656V5.00238Z" fill="#038B25"/>
</svg>
