<svg width="97" height="97" viewBox="0 0 97 97" fill="none" xmlns="http://www.w3.org/2000/svg">
<g clip-path="url(#clip0_30_67)">
<path d="M54.824 36.3207C51.9377 34.8537 48.6229 34.4643 45.4752 35.2225C42.3276 35.9806 39.5535 37.8367 37.6518 40.4569C35.75 43.0772 34.8453 46.2899 35.1001 49.5176C35.3549 52.7452 36.7526 55.7761 39.042 58.0655C41.3314 60.3549 44.3623 61.7526 47.5899 62.0074C50.8176 62.2622 54.0303 61.3575 56.6505 59.4557C59.2708 57.5539 61.1269 54.7799 61.885 51.6323C62.6432 48.4846 62.2538 45.1697 60.7868 42.2835L51.659 51.4113C50.8683 52.202 49.7958 52.6462 48.6776 52.6462C47.5593 52.6462 46.4869 52.202 45.6962 51.4113C44.9055 50.6206 44.4613 49.5481 44.4613 48.4299C44.4613 47.3117 44.9055 46.2392 45.6962 45.4485L54.824 36.3207Z" fill="#4891D3"/>
<path d="M61.6449 29.5035C56.9204 26.2644 51.1564 24.9066 45.4827 25.6964C39.8091 26.4861 34.635 29.3664 30.9747 33.7727C27.3143 38.1789 25.4316 43.7934 25.6956 49.5157C25.9596 55.2379 28.3512 60.6552 32.4018 64.7057C36.4523 68.7563 41.8696 71.1479 47.5918 71.4119C53.314 71.6759 58.9286 69.7932 63.3348 66.1328C67.7411 62.4724 70.6214 57.2983 71.4111 51.6247C72.2009 45.9511 70.8431 40.1871 67.604 35.4625L62.8574 40.2091C64.855 43.6543 65.5311 47.7085 64.7596 51.6155C63.9881 55.5224 61.8217 59.0153 58.6645 61.4426C55.5073 63.8699 51.5749 65.0657 47.6009 64.8071C43.6269 64.5485 39.8827 62.853 37.0667 60.0371C34.2507 57.2211 32.5553 53.4769 32.2966 49.5029C32.038 45.5289 33.2339 41.5965 35.6611 38.4393C38.0884 35.2821 41.5813 33.1157 45.4883 32.3442C49.3952 31.5727 53.4494 32.2488 56.8946 34.2464L61.6449 29.5035Z" fill="#34C759"/>
<path d="M88.0183 30.952C87.6876 31.2822 87.3365 31.5914 86.9671 31.8777C90.8024 40.7692 91.4182 50.7196 88.7084 60.0162C85.9987 69.3127 80.1329 77.3739 72.1207 82.8121C64.1086 88.2503 54.4513 90.7253 44.8111 89.8112C35.1709 88.8971 26.1509 84.651 19.3037 77.8038C12.4564 70.9566 8.21035 61.9366 7.29623 52.2964C6.38212 42.6562 8.85717 32.9989 14.2954 24.9867C19.7336 16.9746 27.7947 11.1088 37.0913 8.39901C46.3879 5.68926 56.3383 6.30505 65.2298 10.1404C65.5212 9.77192 65.8341 9.4209 66.1667 9.08913L69.8846 5.37318C59.6859 0.353455 48.0364 -0.882601 37.0114 1.88522C25.9865 4.65304 16.3022 11.245 9.68382 20.4866C3.06549 29.7283 -0.0570222 41.0194 0.872591 52.3484C1.8022 63.6774 6.72356 74.3084 14.7599 82.3476C22.8015 90.3731 33.4296 95.2854 44.7531 96.2104C56.0766 97.1354 67.361 94.0131 76.5985 87.3991C85.836 80.7851 92.4275 71.1083 95.2001 60.0907C97.9727 49.073 96.7466 37.4289 91.7399 27.2304L88.0183 30.952Z" fill="#34C759"/>
<path d="M48.6776 9.54634C27.2364 9.54634 9.79407 26.9887 9.79407 48.4299C9.79407 69.8711 27.2364 87.3134 48.6776 87.3134C70.1188 87.3134 87.5611 69.8711 87.5611 48.4299C87.5666 43.2496 86.5311 38.121 84.516 33.3487C82.0802 34.4476 79.3412 34.6778 76.7562 34.0008L70.6754 32.3986L69.626 33.448C72.7648 37.8159 74.4502 43.0605 74.4438 48.4392C74.4438 62.6472 62.8855 74.2054 48.6776 74.2054C34.4696 74.2054 22.9114 62.6378 22.9114 48.4299C22.9114 34.2219 34.4696 22.6637 48.6776 22.6637C54.0563 22.6572 59.3009 24.3427 63.6688 27.4815L64.7182 26.4321L63.1067 20.3513C62.4312 17.7657 62.6579 15.027 63.7494 12.5877C58.9796 10.5755 53.8544 9.54125 48.6776 9.54634Z" fill="#34C759"/>
<path d="M65.8295 19.6355L67.8402 27.2791L47.6844 47.4367C47.5464 47.5654 47.4356 47.7205 47.3588 47.8929C47.282 48.0653 47.2407 48.2514 47.2373 48.4402C47.234 48.6289 47.2687 48.8163 47.3394 48.9913C47.4101 49.1663 47.5153 49.3253 47.6488 49.4587C47.7822 49.5922 47.9412 49.6974 48.1162 49.7681C48.2912 49.8388 48.4786 49.8735 48.6673 49.8702C48.856 49.8668 49.0422 49.8255 49.2146 49.7487C49.387 49.6719 49.5421 49.5611 49.6708 49.4231L69.8284 29.2673L77.472 31.278C78.9768 31.6716 80.5583 31.6651 82.0598 31.2591C83.5612 30.8532 84.9305 30.0619 86.032 28.9638L96.2373 18.7585C96.4123 18.5837 96.5381 18.3659 96.602 18.127C96.6659 17.8881 96.6656 17.6365 96.6011 17.3977C96.5367 17.159 96.4104 16.9414 96.2349 16.7671C96.0595 16.5928 95.8412 16.4678 95.6021 16.4049L83.7965 13.3017L80.7026 1.50544C80.6397 1.26628 80.5147 1.04796 80.3404 0.872548C80.166 0.697132 79.9485 0.570823 79.7098 0.506379C79.471 0.441935 79.2194 0.441636 78.9805 0.505514C78.7416 0.569391 78.5238 0.695183 78.349 0.870185L68.1437 11.0755C67.0462 12.1774 66.2554 13.5467 65.8495 15.048C65.4436 16.5494 65.4367 18.1307 65.8295 19.6355Z" fill="#FFC107"/>
</g>
<defs>
<clipPath id="clip0_30_67">
<rect width="95.9439" height="95.9439" fill="white" transform="translate(0.705566 0.457886)"/>
</clipPath>
</defs>
</svg>
