<svg width="1093" height="106" viewBox="0 0 1093 106" fill="none" xmlns="http://www.w3.org/2000/svg">
<mask id="path-1-outside-1_293_357" maskUnits="userSpaceOnUse" x="-2" y="-1" width="1096" height="108" fill="black">
<rect fill="white" x="-2" y="-1" width="1096" height="108"/>
<path d="M39.9634 105.751C35.0021 105.751 30.2354 105.119 25.6632 103.854C21.1883 102.492 17.1026 100.692 13.4059 98.455C9.80658 96.1203 6.83954 93.5424 4.50482 90.7213C2.1701 87.8029 0.7109 84.6899 0.127219 81.3824L23.3285 74.816C24.3986 77.6371 26.2469 80.1178 28.8735 82.2579C31.5973 84.3008 35.0021 85.3709 39.0879 85.4682C43.0763 85.5654 46.3839 84.6413 49.0104 82.6957C51.7343 80.7501 53.0962 78.2208 53.0962 75.1078C53.0962 72.6758 52.1234 70.5357 50.1778 68.6874C48.3295 66.839 45.6543 65.4285 42.1522 64.4557L27.7061 60.8077C22.6475 59.543 18.2213 57.5488 14.4274 54.825C10.7307 52.1011 7.81234 48.7936 5.67218 44.9024C3.6293 40.9139 2.60786 36.3904 2.60786 31.3318C2.60786 21.5066 5.86674 13.8701 12.3845 8.4224C18.9023 2.87744 28.0952 0.104959 39.9634 0.104959C46.4811 0.104959 52.172 1.02912 57.036 2.87744C61.9 4.62848 66.0344 7.25504 69.4392 10.7571C72.9413 14.2592 75.7138 18.6368 77.7567 23.8899L54.7013 30.7482C53.9231 28.1216 52.2207 25.7382 49.5941 23.5981C47.0648 21.4579 43.7573 20.3878 39.6715 20.3878C35.5858 20.3878 32.3755 21.312 30.0408 23.1603C27.8034 25.0086 26.6847 27.6838 26.6847 31.1859C26.6847 33.6179 27.6088 35.6608 29.4571 37.3146C31.3055 38.871 33.8347 40.0384 37.045 40.8166L51.4911 44.4646C59.7599 46.5075 66.1803 50.3501 70.7525 55.9923C75.4219 61.5373 77.7567 67.8605 77.7567 74.9619C77.7567 81.3824 76.2488 86.8787 73.2331 91.4509C70.3147 96.023 66.0344 99.5738 60.3922 102.103C54.7499 104.535 47.9403 105.751 39.9634 105.751ZM126.719 105.751C118.936 105.751 111.981 104.146 105.852 100.936C99.8206 97.6282 95.1025 93.1046 91.6977 87.3651C88.2929 81.5283 86.5905 74.9133 86.5905 67.52C86.5905 60.0294 88.2929 53.4144 91.6977 47.6749C95.1025 41.9354 99.772 37.4605 105.706 34.2502C111.737 30.9427 118.644 29.289 126.427 29.289C133.917 29.289 140.775 31.1859 147.001 34.9798C153.227 38.7738 157.702 44.2701 160.426 51.4688L138.83 58.7648C137.76 56.4301 135.96 54.5331 133.431 53.0739C130.999 51.5174 128.275 50.7392 125.259 50.7392C122.244 50.7392 119.568 51.4688 117.234 52.928C114.996 54.2899 113.197 56.2355 111.835 58.7648C110.57 61.2941 109.938 64.2125 109.938 67.52C109.938 70.8275 110.57 73.7459 111.835 76.2752C113.197 78.7072 115.045 80.6528 117.38 82.112C119.812 83.5712 122.535 84.3008 125.551 84.3008C128.567 84.3008 131.291 83.5226 133.723 81.9661C136.155 80.4096 137.954 78.3667 139.122 75.8374L160.718 83.1334C157.897 90.4294 153.373 96.023 147.147 99.9142C141.019 103.805 134.209 105.751 126.719 105.751ZM213.665 104L212.936 88.2406V67.6659C212.936 63.7747 212.595 60.3699 211.914 57.4515C211.33 54.5331 210.114 52.2957 208.266 50.7392C206.515 49.0854 203.937 48.2586 200.532 48.2586C197.809 48.2586 195.425 48.8909 193.382 50.1555C191.339 51.4202 189.588 53.1226 188.129 55.2627L168.138 48.6963C169.889 45.097 172.175 41.8381 174.996 38.9197C177.915 36.0013 181.465 33.6666 185.649 31.9155C189.832 30.1645 194.696 29.289 200.241 29.289C207.828 29.289 214.249 30.6995 219.502 33.5206C224.755 36.3418 228.695 40.2816 231.321 45.3402C233.948 50.3987 235.261 56.3814 235.261 63.2883L234.969 104H213.665ZM193.674 105.751C185.113 105.751 178.45 103.854 173.683 100.06C168.916 96.169 166.533 90.624 166.533 83.4253C166.533 75.7402 169.014 70.0006 173.975 66.2067C178.936 62.4128 185.892 60.5158 194.841 60.5158H214.833V75.2538H203.305C198.538 75.2538 195.085 75.9347 192.945 77.2966C190.804 78.5613 189.734 80.4096 189.734 82.8416C189.734 84.5926 190.513 86.0032 192.069 87.0733C193.723 88.0461 195.96 88.5325 198.781 88.5325C201.602 88.5325 204.034 87.9488 206.077 86.7814C208.217 85.5168 209.871 83.863 211.039 81.8202C212.303 79.7773 212.936 77.5885 212.936 75.2538H218.772C218.772 84.8845 216.681 92.375 212.498 97.7254C208.412 103.076 202.137 105.751 193.674 105.751ZM249.129 104V1.85599H271.893V104H249.129ZM321.77 105.751C314.182 105.751 307.47 104.146 301.633 100.936C295.796 97.7254 291.224 93.2506 287.917 87.511C284.609 81.7715 282.956 75.1078 282.956 67.52C282.956 59.9322 284.609 53.2685 287.917 47.529C291.224 41.7894 295.796 37.3146 301.633 34.1043C307.567 30.8941 314.377 29.289 322.062 29.289C328.969 29.289 335.195 30.9427 340.74 34.2502C346.285 37.5578 350.662 42.519 353.873 49.1341C357.18 55.6518 358.834 63.7261 358.834 73.3568H303.968L306.449 70.5843C306.449 73.8918 307.13 76.8102 308.492 79.3395C309.853 81.8688 311.75 83.8144 314.182 85.1763C316.614 86.441 319.338 87.0733 322.354 87.0733C325.953 87.0733 328.969 86.295 331.401 84.7386C333.833 83.0848 335.535 81.0419 336.508 78.6099L356.791 85.4682C354.845 90.1376 352.073 93.9802 348.474 96.9958C344.972 100.012 340.934 102.249 336.362 103.708C331.79 105.07 326.926 105.751 321.77 105.751ZM307.032 61.2454L304.698 58.1811H337.384L335.195 61.2454C335.195 57.5488 334.465 54.679 333.006 52.6362C331.547 50.496 329.747 48.9395 327.607 47.9667C325.564 46.9939 323.473 46.5075 321.332 46.5075C319.192 46.5075 317.004 46.9939 314.766 47.9667C312.626 48.9395 310.778 50.496 309.221 52.6362C307.762 54.679 307.032 57.5488 307.032 61.2454ZM427.262 104V23.4522H397.495V1.85599H480.377V23.4522H450.61V104H427.262ZM515.435 105.751C507.749 105.751 500.988 104.146 495.152 100.936C489.315 97.6282 484.694 93.1046 481.289 87.3651C477.982 81.6256 476.328 75.0106 476.328 67.52C476.328 60.0294 477.933 53.4144 481.143 47.6749C484.451 41.9354 489.023 37.4605 494.86 34.2502C500.794 30.9427 507.506 29.289 514.997 29.289C522.682 29.289 529.443 30.9427 535.28 34.2502C541.214 37.4605 545.786 41.9354 548.996 47.6749C552.304 53.4144 553.957 60.0294 553.957 67.52C553.957 75.0106 552.304 81.6256 548.996 87.3651C545.786 93.1046 541.262 97.6282 535.426 100.936C529.589 104.146 522.925 105.751 515.435 105.751ZM515.435 84.7386C518.353 84.7386 520.931 84.009 523.168 82.5498C525.503 81.0906 527.303 79.0963 528.567 76.567C529.929 73.9405 530.61 70.9248 530.61 67.52C530.61 64.1152 529.929 61.1482 528.567 58.6189C527.303 55.9923 525.503 53.9494 523.168 52.4902C520.834 51.031 518.158 50.3014 515.143 50.3014C512.127 50.3014 509.452 51.031 507.117 52.4902C504.782 53.9494 502.934 55.9923 501.572 58.6189C500.308 61.1482 499.675 64.1152 499.675 67.52C499.675 70.9248 500.308 73.9405 501.572 76.567C502.934 79.0963 504.782 81.0906 507.117 82.5498C509.549 84.009 512.322 84.7386 515.435 84.7386ZM565.052 104V31.04H586.502L587.378 40.233C589.712 36.6336 592.582 33.9098 595.987 32.0614C599.489 30.2131 603.332 29.289 607.515 29.289C613.546 29.289 618.507 30.5536 622.398 33.0829C626.387 35.5149 629.305 39.2602 631.154 44.3187C633.391 39.4547 636.455 35.7581 640.347 33.2288C644.238 30.6022 648.615 29.289 653.479 29.289C662.235 29.289 668.801 31.9642 673.179 37.3146C677.654 42.665 679.842 50.9824 679.745 62.2669V104H656.982V66.6445C656.982 62.7533 656.544 59.689 655.668 57.4515C654.89 55.1168 653.723 53.4144 652.166 52.3443C650.61 51.2742 648.761 50.6906 646.621 50.5933C642.438 50.496 639.228 51.712 636.99 54.2413C634.85 56.6733 633.78 60.4186 633.78 65.4771V104H611.017V66.6445C611.017 62.7533 610.579 59.689 609.703 57.4515C608.925 55.1168 607.758 53.4144 606.201 52.3443C604.645 51.2742 602.797 50.6906 600.656 50.5933C596.473 50.496 593.263 51.712 591.026 54.2413C588.886 56.6733 587.815 60.4186 587.815 65.4771V104H565.052ZM728.9 105.751C721.214 105.751 714.454 104.146 708.617 100.936C702.78 97.6282 698.159 93.1046 694.754 87.3651C691.447 81.6256 689.793 75.0106 689.793 67.52C689.793 60.0294 691.398 53.4144 694.608 47.6749C697.916 41.9354 702.488 37.4605 708.325 34.2502C714.259 30.9427 720.971 29.289 728.462 29.289C736.147 29.289 742.908 30.9427 748.745 34.2502C754.679 37.4605 759.251 41.9354 762.461 47.6749C765.769 53.4144 767.422 60.0294 767.422 67.52C767.422 75.0106 765.769 81.6256 762.461 87.3651C759.251 93.1046 754.727 97.6282 748.891 100.936C743.054 104.146 736.39 105.751 728.9 105.751ZM728.9 84.7386C731.818 84.7386 734.396 84.009 736.633 82.5498C738.968 81.0906 740.768 79.0963 742.032 76.567C743.394 73.9405 744.075 70.9248 744.075 67.52C744.075 64.1152 743.394 61.1482 742.032 58.6189C740.768 55.9923 738.968 53.9494 736.633 52.4902C734.299 51.031 731.623 50.3014 728.608 50.3014C725.592 50.3014 722.917 51.031 720.582 52.4902C718.247 53.9494 716.399 55.9923 715.037 58.6189C713.773 61.1482 713.14 64.1152 713.14 67.52C713.14 70.9248 713.773 73.9405 715.037 76.567C716.399 79.0963 718.247 81.0906 720.582 82.5498C723.014 84.009 725.787 84.7386 728.9 84.7386ZM795.298 66.2067C795.298 58.327 796.854 51.7606 799.967 46.5075C803.177 41.2544 807.166 37.3146 811.933 34.688C816.797 32.0614 821.855 30.7482 827.108 30.7482V52.928C822.633 52.928 818.402 53.4144 814.413 54.3872C810.522 55.36 807.36 56.8678 804.928 58.9107C802.496 60.8563 801.28 63.3856 801.28 66.4986L795.298 66.2067ZM778.517 104V31.04H801.28V104H778.517ZM853.438 66.2067C853.438 58.327 854.994 51.7606 858.107 46.5075C861.317 41.2544 865.306 37.3146 870.073 34.688C874.937 32.0614 879.995 30.7482 885.248 30.7482V52.928C880.773 52.928 876.542 53.4144 872.553 54.3872C868.662 55.36 865.5 56.8678 863.068 58.9107C860.636 60.8563 859.42 63.3856 859.42 66.4986L853.438 66.2067ZM836.657 104V31.04H859.42V104H836.657ZM930.11 105.751C922.424 105.751 915.663 104.146 909.827 100.936C903.99 97.6282 899.369 93.1046 895.964 87.3651C892.657 81.6256 891.003 75.0106 891.003 67.52C891.003 60.0294 892.608 53.4144 895.818 47.6749C899.126 41.9354 903.698 37.4605 909.535 34.2502C915.469 30.9427 922.181 29.289 929.672 29.289C937.357 29.289 944.118 30.9427 949.955 34.2502C955.889 37.4605 960.461 41.9354 963.671 47.6749C966.979 53.4144 968.632 60.0294 968.632 67.52C968.632 75.0106 966.979 81.6256 963.671 87.3651C960.461 93.1046 955.937 97.6282 950.101 100.936C944.264 104.146 937.6 105.751 930.11 105.751ZM930.11 84.7386C933.028 84.7386 935.606 84.009 937.843 82.5498C940.178 81.0906 941.978 79.0963 943.242 76.567C944.604 73.9405 945.285 70.9248 945.285 67.52C945.285 64.1152 944.604 61.1482 943.242 58.6189C941.978 55.9923 940.178 53.9494 937.843 52.4902C935.509 51.031 932.833 50.3014 929.818 50.3014C926.802 50.3014 924.127 51.031 921.792 52.4902C919.457 53.9494 917.609 55.9923 916.247 58.6189C914.983 61.1482 914.35 64.1152 914.35 67.52C914.35 70.9248 914.983 73.9405 916.247 76.567C917.609 79.0963 919.457 81.0906 921.792 82.5498C924.224 84.009 926.997 84.7386 930.11 84.7386ZM1045.33 104L1069.26 31.04H1092.47L1067.51 104H1045.33ZM997.326 104L1020.09 31.04H1039.5L1017.17 104H997.326ZM994.846 104L970.039 31.04H993.24L1015.86 104H994.846ZM1045.19 104L1023.15 31.04H1042.56L1065.18 104H1045.19Z"/>
</mask>
<path d="M25.6632 103.854L25.3721 104.811L25.3843 104.814L25.3966 104.818L25.6632 103.854ZM13.4059 98.455L12.8617 99.294L12.8748 99.3025L12.8881 99.3105L13.4059 98.455ZM4.50482 90.7213L3.72395 91.346L3.72914 91.3525L3.73443 91.3588L4.50482 90.7213ZM0.12722 81.3824L-0.145103 80.4202L-1.01461 80.6663L-0.857564 81.5562L0.12722 81.3824ZM23.3285 74.816L24.2635 74.4613L23.9383 73.6041L23.0562 73.8538L23.3285 74.816ZM28.8735 82.2579L28.2418 83.0332L28.2574 83.0459L28.2735 83.0579L28.8735 82.2579ZM39.0879 85.4682L39.1122 84.4685L39.1117 84.4684L39.0879 85.4682ZM49.0104 82.6957L48.4292 81.8819L48.4221 81.887L48.4152 81.8921L49.0104 82.6957ZM50.1778 68.6874L49.4707 69.3945L49.4797 69.4035L49.489 69.4124L50.1778 68.6874ZM42.1522 64.4557L42.4198 63.4922L42.4085 63.489L42.397 63.4861L42.1522 64.4557ZM27.7061 60.8077L27.9509 59.8381L27.9486 59.8375L27.7061 60.8077ZM14.4274 54.825L13.8341 55.6301L13.8442 55.6373L14.4274 54.825ZM5.67218 44.9024L4.78214 45.3583L4.78886 45.3714L4.79596 45.3843L5.67218 44.9024ZM12.3845 8.4224L13.0258 9.18971L13.0325 9.18406L12.3845 8.4224ZM57.036 2.87744L56.6808 3.81222L56.689 3.81535L56.6973 3.81833L57.036 2.87744ZM69.4392 10.7571L68.7222 11.4543L68.7321 11.4642L69.4392 10.7571ZM77.7567 23.8899L78.0418 24.8484L79.082 24.539L78.6887 23.5275L77.7567 23.8899ZM54.7013 30.7482L53.7425 31.0322L54.0269 31.9921L54.9864 31.7066L54.7013 30.7482ZM49.5941 23.5981L48.9482 24.3615L48.9552 24.3675L48.9624 24.3733L49.5941 23.5981ZM30.0408 23.1603L29.4201 22.3763L29.412 22.3827L29.4039 22.3894L30.0408 23.1603ZM29.4571 37.3146L28.7903 38.0598L28.8015 38.0698L28.813 38.0795L29.4571 37.3146ZM37.045 40.8166L37.2898 39.847L37.2806 39.8448L37.045 40.8166ZM51.4911 44.4646L51.2462 45.4342L51.2512 45.4354L51.4911 44.4646ZM70.7525 55.9923L69.9756 56.6219L69.9815 56.6292L69.9876 56.6365L70.7525 55.9923ZM73.2331 91.4509L72.3984 90.9003L72.3942 90.9065L72.3902 90.9128L73.2331 91.4509ZM60.3922 102.103L60.788 103.021L60.7946 103.019L60.8012 103.016L60.3922 102.103ZM39.9634 104.751C35.088 104.751 30.4112 104.13 25.9298 102.89L25.3966 104.818C30.0595 106.108 34.9162 106.751 39.9634 106.751V104.751ZM25.9544 102.897C21.5525 101.558 17.5437 99.7906 13.9237 97.5995L12.8881 99.3105C16.6614 101.594 20.8242 103.427 25.3721 104.811L25.9544 102.897ZM13.9501 97.6161C10.4217 95.3274 7.5352 92.8145 5.27521 90.0837L3.73443 91.3588C6.14388 94.2703 9.19144 96.9133 12.8617 99.294L13.9501 97.6161ZM5.28569 90.0966C3.04362 87.294 1.66339 84.3331 1.112 81.2086L-0.857564 81.5562C-0.241591 85.0467 1.29658 88.3118 3.72395 91.346L5.28569 90.0966ZM0.399542 82.3446L23.6008 75.7782L23.0562 73.8538L-0.145103 80.4202L0.399542 82.3446ZM22.3935 75.1707C23.5333 78.1757 25.496 80.7959 28.2418 83.0332L29.5051 81.4827C26.9978 79.4397 25.2638 77.0986 24.2635 74.4613L22.3935 75.1707ZM28.2735 83.0579C31.195 85.2491 34.8128 86.3667 39.0641 86.4679L39.1117 84.4684C35.1914 84.3751 31.9996 83.3525 29.4735 81.4579L28.2735 83.0579ZM39.0635 86.4679C43.2241 86.5693 46.7634 85.6046 49.6056 83.4992L48.4152 81.8921C46.0043 83.678 42.9286 84.5615 39.1122 84.4685L39.0635 86.4679ZM49.5917 83.5094C52.5551 81.3927 54.0962 78.5712 54.0962 75.1078H52.0962C52.0962 77.8704 50.9134 80.1075 48.4292 81.8819L49.5917 83.5094ZM54.0962 75.1078C54.0962 72.3718 52.9881 69.9779 50.8665 67.9624L49.489 69.4124C51.2587 71.0935 52.0962 72.9798 52.0962 75.1078H54.0962ZM50.8849 67.9803C48.8762 65.9716 46.0264 64.494 42.4198 63.4922L41.8845 65.4192C45.2822 66.363 47.7827 67.7065 49.4707 69.3945L50.8849 67.9803ZM42.397 63.4861L27.9509 59.8381L27.4613 61.7772L41.9073 65.4252L42.397 63.4861ZM27.9486 59.8375C22.9984 58.6 18.6907 56.6547 15.0106 54.0126L13.8442 55.6373C17.7519 58.4429 22.2967 60.4861 27.4636 61.7778L27.9486 59.8375ZM15.0206 54.0199C11.4365 51.379 8.61634 48.1804 6.5484 44.4205L4.79596 45.3843C7.00834 49.4068 10.025 52.8232 13.8342 55.63L15.0206 54.0199ZM6.56222 44.4465C4.60046 40.6164 3.60786 36.2525 3.60786 31.3318H1.60786C1.60786 36.5283 2.65814 41.2114 4.78214 45.3583L6.56222 44.4465ZM3.60786 31.3318C3.60786 21.7511 6.7723 14.4165 13.0258 9.18968L11.7432 7.65511C4.96118 13.3237 1.60786 21.2621 1.60786 31.3318H3.60786ZM13.0325 9.18406C19.3102 3.8433 28.2413 1.10496 39.9634 1.10496V-0.895039C27.9492 -0.895039 18.4943 1.91157 11.7365 7.66074L13.0325 9.18406ZM39.9634 1.10496C46.3892 1.10496 51.9549 2.01638 56.6808 3.81222L57.3912 1.94265C52.3892 0.0418625 46.5731 -0.895039 39.9634 -0.895039V1.10496ZM56.6973 3.81833C61.4269 5.52097 65.4295 8.06741 68.7222 11.4542L70.1562 10.06C66.6393 6.44267 62.3732 3.73598 57.3747 1.93655L56.6973 3.81833ZM68.7321 11.4642C72.1235 14.8556 74.8251 19.1107 76.8247 24.2524L78.6887 23.5275C76.6024 18.1629 73.7591 13.6628 70.1463 10.05L68.7321 11.4642ZM77.4715 22.9314L54.4162 29.7897L54.9864 31.7066L78.0418 24.8484L77.4715 22.9314ZM55.6601 30.4641C54.8124 27.6032 52.9711 25.0598 50.2258 22.8228L48.9624 24.3733C51.4702 26.4167 53.0337 28.64 53.7425 31.0322L55.6601 30.4641ZM50.24 22.8347C47.4909 20.5085 43.9367 19.3878 39.6715 19.3878V21.3878C43.5779 21.3878 46.6387 22.4073 48.9482 24.3615L50.24 22.8347ZM39.6715 19.3878C35.4434 19.3878 31.9871 20.3441 29.4201 22.3763L30.6615 23.9444C32.764 22.2799 35.7281 21.3878 39.6715 21.3878V19.3878ZM29.4039 22.3894C26.8888 24.4671 25.6847 27.4536 25.6847 31.1859H27.6847C27.6847 27.9141 28.718 25.5502 30.6777 23.9313L29.4039 22.3894ZM25.6847 31.1859C25.6847 33.9088 26.7348 36.2206 28.7903 38.0598L30.1239 36.5693C28.4828 35.101 27.6847 33.327 27.6847 31.1859H25.6847ZM28.813 38.0795C30.8149 39.7653 33.5011 40.9865 36.8094 41.7885L37.2806 39.8448C34.1684 39.0903 31.796 37.9768 30.1013 36.5496L28.813 38.0795ZM36.8001 41.7862L51.2462 45.4342L51.7359 43.4951L37.2898 39.8471L36.8001 41.7862ZM51.2512 45.4354C59.3465 47.4355 65.5632 51.1768 69.9756 56.6219L71.5294 55.3627C66.7975 49.5233 60.1732 45.5796 51.7309 43.4938L51.2512 45.4354ZM69.9876 56.6365C74.5087 62.0052 76.7567 68.1015 76.7567 74.9619H78.7567C78.7567 67.6195 76.3352 61.0693 71.5174 55.3482L69.9876 56.6365ZM76.7567 74.9619C76.7567 81.2211 75.2888 86.5181 72.3984 90.9003L74.0679 92.0015C77.2089 87.2394 78.7567 81.5437 78.7567 74.9619H76.7567ZM72.3902 90.9128C69.591 95.2983 65.473 98.7296 59.9831 101.191L60.8012 103.016C66.5959 100.418 71.0385 96.7477 74.0761 91.9889L72.3902 90.9128ZM59.9964 101.185C54.5104 103.549 47.843 104.751 39.9634 104.751V106.751C48.0377 106.751 54.9895 105.521 60.788 103.021L59.9964 101.185ZM105.852 100.936L105.371 101.812L105.38 101.817L105.388 101.822L105.852 100.936ZM91.6977 87.3651L90.8339 87.869L90.8377 87.8753L91.6977 87.3651ZM91.6977 47.6749L92.5578 48.1851L91.6977 47.6749ZM105.706 34.2502L106.182 35.1298L106.187 35.1271L105.706 34.2502ZM147.001 34.9798L146.481 35.8338L147.001 34.9798ZM160.426 51.4688L160.746 52.4162L161.728 52.0844L161.361 51.1149L160.426 51.4688ZM138.83 58.7648L137.921 59.1815L138.296 60.0006L139.15 59.7122L138.83 58.7648ZM133.431 53.0739L132.892 53.9162L132.911 53.9286L132.931 53.9401L133.431 53.0739ZM117.234 52.928L117.754 53.7823L117.764 53.776L117.234 52.928ZM111.835 58.7648L110.954 58.2907L110.947 58.304L110.94 58.3176L111.835 58.7648ZM111.835 76.2752L110.94 76.7224L110.951 76.7434L110.962 76.7638L111.835 76.2752ZM117.38 82.112L116.85 82.96L116.857 82.9648L116.865 82.9695L117.38 82.112ZM139.122 75.8374L139.442 74.89L138.59 74.6024L138.214 75.4184L139.122 75.8374ZM160.718 83.1334L161.651 83.4941L162.027 82.5202L161.038 82.186L160.718 83.1334ZM147.147 99.9142L146.617 99.0662L146.611 99.07L147.147 99.9142ZM126.719 104.751C119.077 104.751 112.284 103.176 106.316 100.05L105.388 101.822C111.677 105.116 118.795 106.751 126.719 106.751V104.751ZM106.333 100.059C100.453 96.8346 95.8684 92.4356 92.5578 86.8549L90.8377 87.8753C94.3367 93.7737 99.1879 98.4217 105.371 101.812L106.333 100.059ZM92.5615 86.8613C89.2542 81.1916 87.5905 74.7534 87.5905 67.52H85.5905C85.5905 75.0732 87.3317 81.8651 90.8339 87.869L92.5615 86.8613ZM87.5905 67.52C87.5905 60.1865 89.2554 53.7519 92.5578 48.1851L90.8377 47.1647C87.3304 53.0769 85.5905 59.8724 85.5905 67.52H87.5905ZM92.5578 48.1851C95.8692 42.603 100.405 38.2549 106.182 35.1298L105.23 33.3707C99.1389 36.666 94.3358 41.2678 90.8377 47.1647L92.5578 48.1851ZM106.187 35.1271C112.052 31.9105 118.79 30.289 126.427 30.289V28.289C118.499 28.289 111.422 29.975 105.225 33.3734L106.187 35.1271ZM126.427 30.289C133.739 30.289 140.416 32.1381 146.481 35.8338L147.522 34.1259C141.135 30.2337 134.096 28.289 126.427 28.289V30.289ZM146.481 35.8338C152.506 39.5051 156.841 44.8198 159.491 51.8227L161.361 51.1149C158.563 43.7204 153.949 38.0424 147.522 34.1259L146.481 35.8338ZM160.106 50.5214L138.51 57.8174L139.15 59.7122L160.746 52.4162L160.106 50.5214ZM139.739 58.3481C138.571 55.7995 136.614 53.7559 133.931 52.2077L132.931 53.9401C135.306 55.3103 136.949 57.0606 137.921 59.1815L139.739 58.3481ZM133.97 52.2317C131.37 50.5675 128.457 49.7392 125.259 49.7392V51.7392C128.093 51.7392 130.628 52.4674 132.892 53.9162L133.97 52.2317ZM125.259 49.7392C122.075 49.7392 119.212 50.5121 116.704 52.08L117.764 53.776C119.925 52.4255 122.413 51.7392 125.259 51.7392V49.7392ZM116.714 52.0738C114.31 53.5369 112.392 55.6205 110.954 58.2907L112.715 59.2389C114.001 56.8505 115.682 55.0429 117.754 53.7822L116.714 52.0738ZM110.94 58.3176C109.595 61.0074 108.938 64.0835 108.938 67.52H110.938C110.938 64.3415 111.545 61.5807 112.729 59.212L110.94 58.3176ZM108.938 67.52C108.938 70.9565 109.595 74.0325 110.94 76.7224L112.729 75.828C111.545 73.4593 110.938 70.6985 110.938 67.52H108.938ZM110.962 76.7638C112.405 79.3406 114.371 81.4105 116.85 82.96L117.91 81.264C115.719 79.8951 113.988 78.0738 112.707 75.7866L110.962 76.7638ZM116.865 82.9695C119.462 84.5279 122.366 85.3008 125.551 85.3008V83.3008C122.705 83.3008 120.161 82.6145 117.894 81.2545L116.865 82.9695ZM125.551 85.3008C128.749 85.3008 131.661 84.4725 134.262 82.8083L133.184 81.1238C130.92 82.5726 128.385 83.3008 125.551 83.3008V85.3008ZM134.262 82.8083C136.848 81.1529 138.779 78.9657 140.03 76.2565L138.214 75.4184C137.129 77.7677 135.461 79.6663 133.184 81.1238L134.262 82.8083ZM138.802 76.7848L160.398 84.0808L161.038 82.186L139.442 74.89L138.802 76.7848ZM159.785 82.7728C157.037 89.8811 152.647 95.2974 146.617 99.0662L147.677 100.762C154.099 96.7487 158.757 90.9778 161.651 83.4941L159.785 82.7728ZM146.611 99.07C140.648 102.856 134.026 104.751 126.719 104.751V106.751C134.393 106.751 141.389 104.755 147.683 100.758L146.611 99.07ZM213.665 104L212.666 104.046L212.71 105H213.665V104ZM212.936 88.2406H211.936V88.2638L211.937 88.2869L212.936 88.2406ZM211.914 57.4515L210.934 57.6476L210.937 57.6632L210.94 57.6787L211.914 57.4515ZM208.266 50.7392L207.58 51.4662L207.6 51.4858L207.622 51.5041L208.266 50.7392ZM188.129 55.2627L187.817 56.2128L188.532 56.4475L188.955 55.8261L188.129 55.2627ZM168.138 48.6963L167.239 48.2589L166.738 49.2889L167.826 49.6464L168.138 48.6963ZM174.996 38.9197L174.289 38.2126L174.283 38.2186L174.277 38.2247L174.996 38.9197ZM185.649 31.9155L185.262 30.9931L185.649 31.9155ZM219.502 33.5206L219.029 34.4016L219.502 33.5206ZM231.321 45.3402L230.434 45.801L231.321 45.3402ZM235.261 63.2883L236.261 63.2955V63.2883H235.261ZM234.969 104V105H235.962L235.969 104.007L234.969 104ZM173.683 100.06L173.051 100.835L173.06 100.843L173.683 100.06ZM173.975 66.2067L174.582 67.0011L173.975 66.2067ZM214.833 60.5158H215.833V59.5158H214.833V60.5158ZM214.833 75.2538V76.2538H215.833V75.2538H214.833ZM192.945 77.2966L193.453 78.1576L193.467 78.1492L193.481 78.1403L192.945 77.2966ZM192.069 87.0733L191.502 87.8973L191.532 87.9173L191.562 87.9352L192.069 87.0733ZM206.077 86.7814L206.573 87.6497L206.58 87.6461L206.586 87.6424L206.077 86.7814ZM211.039 81.8202L210.188 81.2938L210.179 81.3088L210.17 81.324L211.039 81.8202ZM212.936 75.2538V74.2538H211.936V75.2538H212.936ZM218.772 75.2538H219.772V74.2538H218.772V75.2538ZM212.498 97.7254L211.71 97.1095L211.703 97.1185L212.498 97.7254ZM214.664 103.954L213.935 88.1944L211.937 88.2869L212.666 104.046L214.664 103.954ZM213.936 88.2406V67.6659H211.936V88.2406H213.936ZM213.936 67.6659C213.936 63.7196 213.591 60.2355 212.888 57.2243L210.94 57.6787C211.6 60.5044 211.936 63.8298 211.936 67.6659H213.936ZM212.895 57.2554C212.277 54.1677 210.969 51.7081 208.91 49.9743L207.622 51.5041C209.26 52.8833 210.384 54.8986 210.934 57.6476L212.895 57.2554ZM208.953 50.0122C206.951 48.1219 204.087 47.2586 200.532 47.2586V49.2586C203.788 49.2586 206.079 50.049 207.58 51.4662L208.953 50.0122ZM200.532 47.2586C197.648 47.2586 195.077 47.9301 192.856 49.3053L193.909 51.0058C195.773 49.8516 197.969 49.2586 200.532 49.2586V47.2586ZM192.856 49.3053C190.685 50.6491 188.835 52.4528 187.303 54.6994L188.955 55.8261C190.342 53.7923 191.994 52.1912 193.909 51.0058L192.856 49.3053ZM188.441 54.3127L168.45 47.7463L167.826 49.6464L187.817 56.2128L188.441 54.3127ZM169.037 49.1338C170.742 45.6306 172.966 42.4584 175.715 39.6147L174.277 38.2247C171.384 41.2178 169.037 44.5633 167.239 48.2589L169.037 49.1338ZM175.703 39.6268C178.521 36.8091 181.96 34.5438 186.035 32.838L185.262 30.9931C180.971 32.7894 177.308 35.1935 174.289 38.2126L175.703 39.6268ZM186.035 32.838C190.071 31.1482 194.799 30.289 200.241 30.289V28.289C194.592 28.289 189.592 29.1808 185.262 30.9931L186.035 32.838ZM200.241 30.289C207.707 30.289 213.956 31.6771 219.029 34.4016L219.975 32.6396C214.542 29.722 207.95 28.289 200.241 28.289V30.289ZM219.029 34.4016C224.113 37.1322 227.905 40.9295 230.434 45.801L232.209 44.8793C229.485 39.6337 225.397 35.5513 219.975 32.6396L219.029 34.4016ZM230.434 45.801C232.973 50.6901 234.261 56.5082 234.261 63.2883H236.261C236.261 56.2546 234.924 50.1074 232.209 44.8793L230.434 45.801ZM234.261 63.2812L233.97 103.993L235.969 104.007L236.261 63.2955L234.261 63.2812ZM234.969 103H213.665V105H234.969V103ZM193.674 104.751C185.25 104.751 178.836 102.883 174.306 99.2777L173.06 100.843C178.064 104.825 184.977 106.751 193.674 106.751V104.751ZM174.315 99.2855C169.822 95.6175 167.533 90.3806 167.533 83.4253H165.533C165.533 90.8674 168.011 96.7204 173.051 100.835L174.315 99.2855ZM167.533 83.4253C167.533 75.9719 169.926 70.5621 174.582 67.0011L173.367 65.4124C168.102 69.4392 165.533 75.5084 165.533 83.4253H167.533ZM174.582 67.0011C179.308 63.3874 186.019 61.5158 194.841 61.5158V59.5158C185.764 59.5158 178.564 61.4382 173.367 65.4124L174.582 67.0011ZM194.841 61.5158H214.833V59.5158H194.841V61.5158ZM213.833 60.5158V75.2538H215.833V60.5158H213.833ZM214.833 74.2538H203.305V76.2538H214.833V74.2538ZM203.305 74.2538C198.49 74.2538 194.796 74.933 192.408 76.453L193.481 78.1403C195.373 76.9365 198.587 76.2538 203.305 76.2538V74.2538ZM192.436 76.4357C189.999 77.8754 188.734 80.0464 188.734 82.8416H190.734C190.734 80.7728 191.609 79.2472 193.453 78.1576L192.436 76.4357ZM188.734 82.8416C188.734 84.9514 189.7 86.658 191.502 87.8973L192.636 86.2492C191.325 85.3484 190.734 84.2339 190.734 82.8416H188.734ZM191.562 87.9352C193.425 89.0312 195.86 89.5325 198.781 89.5325V87.5325C196.06 87.5325 194.02 87.0609 192.576 86.2113L191.562 87.9352ZM198.781 89.5325C201.742 89.5325 204.352 88.9191 206.573 87.6497L205.581 85.9132C203.717 86.9785 201.463 87.5325 198.781 87.5325V89.5325ZM206.586 87.6424C208.867 86.2946 210.648 84.5185 211.907 82.3163L210.17 81.324C209.094 83.2076 207.568 84.739 205.569 85.9205L206.586 87.6424ZM211.889 82.3465C213.248 80.1504 213.936 77.7801 213.936 75.2538H211.936C211.936 77.3969 211.358 79.4042 210.188 81.2938L211.889 82.3465ZM212.936 76.2538H218.772V74.2538H212.936V76.2538ZM217.772 75.2538C217.772 84.7523 215.708 91.9953 211.71 97.1095L213.286 98.3414C217.653 92.7547 219.772 85.0166 219.772 75.2538H217.772ZM211.703 97.1185C207.854 102.158 201.914 104.751 193.674 104.751V106.751C202.361 106.751 208.97 103.993 213.293 98.3324L211.703 97.1185ZM249.129 104H248.129V105H249.129V104ZM249.129 1.856V0.855995H248.129V1.856H249.129ZM271.893 1.856H272.893V0.855995H271.893V1.856ZM271.893 104V105H272.893V104H271.893ZM250.129 104V1.856H248.129V104H250.129ZM249.129 2.856H271.893V0.855995H249.129V2.856ZM270.893 1.856V104H272.893V1.856H270.893ZM271.893 103H249.129V105H271.893V103ZM301.633 100.936L302.115 100.059L301.633 100.936ZM287.917 87.511L288.783 87.0117L287.917 87.511ZM287.917 47.529L287.05 47.0297L287.917 47.529ZM301.633 34.1043L301.157 33.2248L301.151 33.2281L301.633 34.1043ZM340.74 34.2502L340.228 35.1091L340.74 34.2502ZM353.873 49.1341L352.973 49.5707L352.977 49.5787L352.981 49.5866L353.873 49.1341ZM358.834 73.3568V74.3568H359.834V73.3568H358.834ZM303.968 73.3568L303.223 72.69L301.731 74.3568H303.968V73.3568ZM306.449 70.5843H307.449V67.967L305.703 69.9175L306.449 70.5843ZM308.492 79.3395L307.611 79.8136L308.492 79.3395ZM314.182 85.1763L313.694 86.0488L313.707 86.0564L313.721 86.0635L314.182 85.1763ZM331.401 84.7386L331.94 85.5808L331.952 85.5733L331.963 85.5655L331.401 84.7386ZM336.508 78.6099L336.828 77.6626L335.931 77.3593L335.58 78.2385L336.508 78.6099ZM356.791 85.4682L357.714 85.8528L358.126 84.864L357.111 84.5209L356.791 85.4682ZM348.474 96.9958L347.831 96.2292L347.821 96.2381L348.474 96.9958ZM336.362 103.708L336.648 104.667L336.657 104.664L336.666 104.661L336.362 103.708ZM307.032 61.2454L306.237 61.8515L308.032 64.208V61.2454H307.032ZM304.698 58.1811V57.1811H302.679L303.902 58.7872L304.698 58.1811ZM337.384 58.1811L338.197 58.7624L339.327 57.1811H337.384V58.1811ZM335.195 61.2454H334.195V64.3659L336.009 61.8267L335.195 61.2454ZM333.006 52.6362L332.18 53.1995L332.186 53.2085L332.192 53.2174L333.006 52.6362ZM327.607 47.9667L327.177 48.8696L327.185 48.8734L327.193 48.8771L327.607 47.9667ZM314.766 47.9667L314.367 47.0497L314.36 47.0529L314.352 47.0564L314.766 47.9667ZM309.221 52.6362L308.412 52.048L308.407 52.0549L309.221 52.6362ZM321.77 104.751C314.327 104.751 307.785 103.178 302.115 100.059L301.151 101.812C307.155 105.114 314.038 106.751 321.77 106.751V104.751ZM302.115 100.059C296.438 96.9368 291.999 92.5919 288.783 87.0117L287.05 88.0103C290.45 93.9092 295.155 98.5141 301.151 101.812L302.115 100.059ZM288.783 87.0117C285.575 81.445 283.956 74.9585 283.956 67.52H281.956C281.956 75.2572 283.643 82.098 287.05 88.0103L288.783 87.0117ZM283.956 67.52C283.956 60.0815 285.575 53.595 288.783 48.0283L287.05 47.0297C283.643 52.942 281.956 59.7828 281.956 67.52H283.956ZM288.783 48.0283C291.999 42.4481 296.438 38.1032 302.115 34.9805L301.151 33.2281C295.155 36.5259 290.45 41.1308 287.05 47.0297L288.783 48.0283ZM302.109 34.9839C307.878 31.8631 314.52 30.289 322.062 30.289V28.289C314.234 28.289 307.257 29.9251 301.157 33.2248L302.109 34.9839ZM322.062 30.289C328.802 30.289 334.848 31.9004 340.228 35.1091L341.252 33.3914C335.541 29.985 329.136 28.289 322.062 28.289V30.289ZM340.228 35.1091C345.583 38.3032 349.836 43.1061 352.973 49.5707L354.772 48.6975C351.489 41.932 346.987 36.8123 341.252 33.3914L340.228 35.1091ZM352.981 49.5866C356.198 55.9268 357.834 63.8353 357.834 73.3568H359.834C359.834 63.6168 358.162 55.3769 354.764 48.6815L352.981 49.5866ZM358.834 72.3568H303.968V74.3568H358.834V72.3568ZM304.713 74.0236L307.194 71.2511L305.703 69.9175L303.223 72.69L304.713 74.0236ZM305.449 70.5843C305.449 74.0321 306.16 77.1179 307.611 79.8136L309.372 78.8654C308.1 76.5026 307.449 73.7516 307.449 70.5843H305.449ZM307.611 79.8136C309.06 82.5048 311.091 84.5911 313.694 86.0488L314.671 84.3038C312.41 83.0377 310.647 81.2328 309.372 78.8654L307.611 79.8136ZM313.721 86.0635C316.309 87.4095 319.194 88.0733 322.354 88.0733V86.0733C319.482 86.0733 316.919 85.4724 314.644 84.2891L313.721 86.0635ZM322.354 88.0733C326.097 88.0733 329.312 87.263 331.94 85.5808L330.862 83.8963C328.626 85.3271 325.809 86.0733 322.354 86.0733V88.0733ZM331.963 85.5655C334.539 83.814 336.381 81.6204 337.437 78.9813L335.58 78.2385C334.69 80.4634 333.127 82.3556 330.839 83.9116L331.963 85.5655ZM336.188 79.5572L356.471 86.4155L357.111 84.5209L336.828 77.6626L336.188 79.5572ZM355.868 85.0835C353.979 89.6167 351.298 93.3244 347.831 96.2293L349.116 97.7624C352.847 94.6359 355.712 90.6585 357.714 85.8528L355.868 85.0835ZM347.821 96.2381C344.425 99.1626 340.507 101.336 336.058 102.756L336.666 104.661C341.362 103.162 345.518 100.86 349.126 97.7536L347.821 96.2381ZM336.077 102.75C331.604 104.082 326.837 104.751 321.77 104.751V106.751C327.015 106.751 331.976 106.058 336.648 104.667L336.077 102.75ZM307.828 60.6394L305.493 57.5751L303.902 58.7872L306.237 61.8515L307.828 60.6394ZM304.698 59.1811H337.384V57.1811H304.698V59.1811ZM336.57 57.5999L334.381 60.6642L336.009 61.8267L338.197 58.7624L336.57 57.5999ZM336.195 61.2454C336.195 57.4341 335.445 54.3304 333.82 52.0549L332.192 53.2174C333.485 55.0277 334.195 57.6635 334.195 61.2454H336.195ZM333.832 52.0728C332.281 49.7973 330.344 48.1125 328.021 47.0564L327.193 48.8771C329.15 49.7666 330.813 51.1947 332.18 53.1995L333.832 52.0728ZM328.037 47.0639C325.868 46.0309 323.63 45.5075 321.332 45.5075V47.5075C323.315 47.5075 325.261 47.957 327.177 48.8696L328.037 47.0639ZM321.332 45.5075C319.037 45.5075 316.713 46.0298 314.367 47.0497L315.165 48.8838C317.294 47.9581 319.347 47.5075 321.332 47.5075V45.5075ZM314.352 47.0564C312.036 48.1093 310.057 49.786 308.412 52.048L310.03 53.2243C311.498 51.206 313.216 49.7698 315.18 48.8771L314.352 47.0564ZM308.407 52.0549C306.782 54.3304 306.032 57.4341 306.032 61.2454H308.032C308.032 57.6635 308.742 55.0277 310.035 53.2174L308.407 52.0549ZM427.262 104H426.262V105H427.262V104ZM427.262 23.4522H428.262V22.4522H427.262V23.4522ZM397.495 23.4522H396.495V24.4522H397.495V23.4522ZM397.495 1.856V0.855995H396.495V1.856H397.495ZM480.377 1.856H481.377V0.855995H480.377V1.856ZM480.377 23.4522V24.4522H481.377V23.4522H480.377ZM450.61 23.4522V22.4522H449.61V23.4522H450.61ZM450.61 104V105H451.61V104H450.61ZM428.262 104V23.4522H426.262V104H428.262ZM427.262 22.4522H397.495V24.4522H427.262V22.4522ZM398.495 23.4522V1.856H396.495V23.4522H398.495ZM397.495 2.856H480.377V0.855995H397.495V2.856ZM479.377 1.856V23.4522H481.377V1.856H479.377ZM480.377 22.4522H450.61V24.4522H480.377V22.4522ZM449.61 23.4522V104H451.61V23.4522H449.61ZM450.61 103H427.262V105H450.61V103ZM495.152 100.936L494.659 101.806L494.67 101.812L495.152 100.936ZM481.289 87.3651L480.423 87.8645L480.429 87.8753L481.289 87.3651ZM481.143 47.6749L480.277 47.1755L480.271 47.1867L481.143 47.6749ZM494.86 34.2502L495.342 35.1265L495.347 35.1237L494.86 34.2502ZM535.28 34.2502L534.787 35.1203L534.795 35.1251L534.804 35.1298L535.28 34.2502ZM548.996 47.6749L548.123 48.1631L548.13 48.1742L548.996 47.6749ZM548.996 87.3651L548.13 86.8658L548.123 86.877L548.996 87.3651ZM535.426 100.936L535.908 101.812L535.919 101.806L535.426 100.936ZM523.168 82.5498L522.638 81.7018L522.63 81.7069L522.622 81.7122L523.168 82.5498ZM528.567 76.567L527.68 76.1067L527.676 76.1133L527.673 76.1198L528.567 76.567ZM528.567 58.6189L527.666 59.0527L527.676 59.0731L527.687 59.093L528.567 58.6189ZM523.168 52.4902L522.638 53.3382L523.168 52.4902ZM507.117 52.4902L507.647 53.3382L507.117 52.4902ZM501.572 58.6189L500.684 58.1586L500.681 58.1651L500.678 58.1717L501.572 58.6189ZM501.572 76.567L500.671 77.0009L500.681 77.0212L500.692 77.0411L501.572 76.567ZM507.117 82.5498L506.587 83.3978L506.595 83.4026L506.603 83.4072L507.117 82.5498ZM515.435 104.751C507.892 104.751 501.301 103.177 495.634 100.059L494.67 101.812C500.676 105.115 507.607 106.751 515.435 106.751V104.751ZM495.645 100.066C489.959 96.8436 485.465 92.4437 482.149 86.8549L480.429 87.8753C483.923 93.7655 488.671 98.4128 494.659 101.806L495.645 100.066ZM482.156 86.8658C478.947 81.2972 477.328 74.8587 477.328 67.52H475.328C475.328 75.1625 477.017 81.954 480.423 87.8644L482.156 86.8658ZM477.328 67.52C477.328 60.1763 478.9 53.7337 482.016 48.163L480.271 47.1867C476.966 53.0951 475.328 59.8826 475.328 67.52H477.328ZM482.01 48.1742C485.225 42.594 489.664 38.2491 495.342 35.1265L494.378 33.374C488.382 36.6719 483.676 41.2767 480.277 47.1756L482.01 48.1742ZM495.347 35.1237C501.117 31.9075 507.659 30.289 514.997 30.289V28.289C507.354 28.289 500.471 29.978 494.373 33.3768L495.347 35.1237ZM514.997 30.289C522.535 30.289 529.121 31.9097 534.787 35.1203L535.773 33.3802C529.765 29.9758 522.829 28.289 514.997 28.289V30.289ZM534.804 35.1298C540.576 38.2523 545.008 42.5934 548.123 48.163L549.869 47.1867C546.564 41.2773 541.852 36.6687 535.755 33.3707L534.804 35.1298ZM548.13 48.1742C551.339 53.7428 552.957 60.1814 552.957 67.52H554.957C554.957 59.8775 553.269 53.086 549.863 47.1756L548.13 48.1742ZM552.957 67.52C552.957 74.8587 551.339 81.2972 548.13 86.8658L549.863 87.8644C553.269 81.954 554.957 75.1625 554.957 67.52H552.957ZM548.123 86.877C545.004 92.4535 540.614 96.8464 534.933 100.066L535.919 101.806C541.911 98.4099 546.568 93.7558 549.869 87.8533L548.123 86.877ZM534.944 100.059C529.272 103.179 522.778 104.751 515.435 104.751V106.751C523.072 106.751 529.905 105.113 535.908 101.812L534.944 100.059ZM515.435 85.7386C518.528 85.7386 521.3 84.9623 523.715 83.3874L522.622 81.7122C520.562 83.0556 518.178 83.7386 515.435 83.7386V85.7386ZM523.698 83.3978C526.193 81.8383 528.117 79.7034 529.462 77.0143L527.673 76.1198C526.488 78.4892 524.813 80.3428 522.638 81.7018L523.698 83.3978ZM529.455 77.0274C530.901 74.2385 531.61 71.0607 531.61 67.52H529.61C529.61 70.7889 528.957 73.6425 527.68 76.1067L529.455 77.0274ZM531.61 67.52C531.61 63.9803 530.902 60.8445 529.448 58.1448L527.687 59.093C528.957 61.4518 529.61 64.2501 529.61 67.52H531.61ZM529.468 58.1851C528.127 55.3986 526.203 53.2076 523.698 51.6422L522.638 53.3382C524.803 54.6912 526.479 56.586 527.666 59.0527L529.468 58.1851ZM523.698 51.6422C521.19 50.0743 518.327 49.3014 515.143 49.3014V51.3014C517.99 51.3014 520.478 51.9877 522.638 53.3382L523.698 51.6422ZM515.143 49.3014C511.958 49.3014 509.096 50.0743 506.587 51.6422L507.647 53.3382C509.808 51.9877 512.296 51.3014 515.143 51.3014V49.3014ZM506.587 51.6422C504.089 53.2034 502.122 55.3854 500.684 58.1586L502.46 59.0792C503.746 56.5993 505.476 54.6955 507.647 53.3382L506.587 51.6422ZM500.678 58.1717C499.331 60.8653 498.675 63.9913 498.675 67.52H500.675C500.675 64.2391 501.284 61.431 502.467 59.0661L500.678 58.1717ZM498.675 67.52C498.675 71.0499 499.331 74.218 500.671 77.0009L502.473 76.1332C501.284 73.6629 500.675 70.7997 500.675 67.52H498.675ZM500.692 77.0411C502.132 79.7165 504.099 81.8424 506.587 83.3978L507.647 81.7018C505.466 80.3387 503.736 78.4762 502.453 76.0929L500.692 77.0411ZM506.603 83.4072C509.205 84.9687 512.159 85.7386 515.435 85.7386V83.7386C512.485 83.7386 509.893 83.0493 507.632 81.6923L506.603 83.4072ZM565.052 104H564.052V105H565.052V104ZM565.052 31.04V30.04H564.052V31.04H565.052ZM586.502 31.04L587.498 30.9452L587.411 30.04H586.502V31.04ZM587.378 40.233L586.382 40.3278L586.654 43.1857L588.217 40.7772L587.378 40.233ZM595.987 32.0614L595.52 31.177L595.51 31.1826L595.987 32.0614ZM622.398 33.0829L621.853 33.9213L621.866 33.9292L621.878 33.9367L622.398 33.0829ZM631.154 44.3187L630.214 44.6619L631.048 46.9422L632.062 44.7366L631.154 44.3187ZM640.347 33.2288L640.892 34.0672L640.899 34.0625L640.906 34.0576L640.347 33.2288ZM673.179 37.3146L672.405 37.9478L672.412 37.9561L673.179 37.3146ZM679.745 62.2669L678.745 62.2583V62.2669H679.745ZM679.745 104V105H680.745V104H679.745ZM656.982 104H655.982V105H656.982V104ZM655.668 57.4515L654.72 57.7677L654.728 57.7921L654.737 57.8159L655.668 57.4515ZM652.166 52.3443L651.6 53.1684V53.1684L652.166 52.3443ZM646.621 50.5933L646.667 49.5943L646.656 49.5938L646.644 49.5935L646.621 50.5933ZM636.99 54.2413L636.241 53.5787L636.24 53.5807L636.99 54.2413ZM633.78 104V105H634.78V104H633.78ZM611.017 104H610.017V105H611.017V104ZM609.703 57.4515L608.755 57.7677L608.763 57.7921L608.772 57.8159L609.703 57.4515ZM606.201 52.3443L605.635 53.1684L606.201 52.3443ZM600.656 50.5933L600.702 49.5943L600.691 49.5938L600.68 49.5935L600.656 50.5933ZM591.026 54.2413L590.277 53.5787L590.275 53.5807L591.026 54.2413ZM587.815 104V105H588.815V104H587.815ZM566.052 104V31.04H564.052V104H566.052ZM565.052 32.04H586.502V30.04H565.052V32.04ZM585.507 31.1348L586.382 40.3278L588.373 40.1382L587.498 30.9452L585.507 31.1348ZM588.217 40.7772C590.47 37.3025 593.221 34.7007 596.464 32.9403L595.51 31.1826C591.943 33.1188 588.954 35.9647 586.539 39.6888L588.217 40.7772ZM596.454 32.9458C599.804 31.1777 603.485 30.289 607.515 30.289V28.289C603.178 28.289 599.174 29.2485 595.52 31.1771L596.454 32.9458ZM607.515 30.289C613.41 30.289 618.167 31.5248 621.853 33.9213L622.943 32.2444C618.848 29.5824 613.682 28.289 607.515 28.289V30.289ZM621.878 33.9367C625.644 36.2332 628.431 39.7819 630.214 44.6619L632.093 43.9755C630.179 38.7384 627.13 34.7966 622.919 32.2291L621.878 33.9367ZM632.062 44.7366C634.233 40.0174 637.182 36.4785 640.892 34.0672L639.802 32.3904C635.729 35.0377 632.549 38.892 630.245 43.9008L632.062 44.7366ZM640.906 34.0576C644.626 31.5468 648.807 30.289 653.479 30.289V28.289C648.424 28.289 643.85 29.6577 639.787 32.3999L640.906 34.0576ZM653.479 30.289C662.022 30.289 668.266 32.8893 672.405 37.9478L673.953 36.6813C669.336 31.039 662.448 28.289 653.479 28.289V30.289ZM672.412 37.9561C676.664 43.0411 678.841 51.0739 678.745 62.2583L680.745 62.2755C680.843 50.8909 678.643 42.2888 673.946 36.673L672.412 37.9561ZM678.745 62.2669V104H680.745V62.2669H678.745ZM679.745 103H656.982V105H679.745V103ZM657.982 104V66.6445H655.982V104H657.982ZM657.982 66.6445C657.982 62.6962 657.54 59.4903 656.599 57.0871L654.737 57.8159C655.548 59.8876 655.982 62.8103 655.982 66.6445H657.982ZM656.617 57.1353C655.791 54.6569 654.516 52.7463 652.733 51.5203L651.6 53.1684C652.929 54.0825 653.989 55.5767 654.72 57.7677L656.617 57.1353ZM652.733 51.5203C651.002 50.3307 648.968 49.6989 646.667 49.5943L646.576 51.5922C648.555 51.6822 650.217 52.2178 651.6 53.1684L652.733 51.5203ZM646.644 49.5935C642.244 49.4912 638.72 50.7771 636.241 53.5787L637.739 54.9039C639.736 52.6469 642.633 51.5008 646.598 51.593L646.644 49.5935ZM636.24 53.5807C633.87 56.2738 632.78 60.3057 632.78 65.4771H634.78C634.78 60.5314 635.831 57.0728 637.741 54.9019L636.24 53.5807ZM632.78 65.4771V104H634.78V65.4771H632.78ZM633.78 103H611.017V105H633.78V103ZM612.017 104V66.6445H610.017V104H612.017ZM612.017 66.6445C612.017 62.6962 611.575 59.4903 610.635 57.0871L608.772 57.8159C609.583 59.8876 610.017 62.8103 610.017 66.6445H612.017ZM610.652 57.1353C609.826 54.6569 608.551 52.7463 606.768 51.5203L605.635 53.1684C606.964 54.0825 608.024 55.5767 608.755 57.7677L610.652 57.1353ZM606.768 51.5203C605.038 50.3307 603.003 49.6989 600.702 49.5943L600.611 51.5922C602.59 51.6822 604.252 52.2178 605.635 53.1684L606.768 51.5203ZM600.68 49.5935C596.279 49.4912 592.755 50.7771 590.277 53.5787L591.775 54.9039C593.771 52.6469 596.668 51.5008 600.633 51.593L600.68 49.5935ZM590.275 53.5807C587.905 56.2738 586.815 60.3057 586.815 65.4771H588.815C588.815 60.5314 589.866 57.0728 591.776 54.9019L590.275 53.5807ZM586.815 65.4771V104H588.815V65.4771H586.815ZM587.815 103H565.052V105H587.815V103ZM708.617 100.936L708.124 101.806L708.135 101.812L708.617 100.936ZM694.754 87.3651L693.888 87.8645L693.894 87.8753L694.754 87.3651ZM694.608 47.6749L693.742 47.1755L693.736 47.1867L694.608 47.6749ZM708.325 34.2502L708.807 35.1265L708.812 35.1237L708.325 34.2502ZM748.745 34.2502L748.252 35.1203L748.26 35.1251L748.269 35.1298L748.745 34.2502ZM762.461 47.6749L761.588 48.1631L761.595 48.1742L762.461 47.6749ZM762.461 87.3651L761.595 86.8658L761.588 86.877L762.461 87.3651ZM748.891 100.936L749.373 101.812L749.384 101.806L748.891 100.936ZM736.633 82.5498L736.103 81.7018L736.095 81.7069L736.087 81.7122L736.633 82.5498ZM742.032 76.567L741.145 76.1067L741.141 76.1133L741.138 76.1198L742.032 76.567ZM742.032 58.6189L741.131 59.0527L741.141 59.0731L741.152 59.093L742.032 58.6189ZM736.633 52.4902L736.103 53.3382L736.633 52.4902ZM720.582 52.4902L721.112 53.3382L720.582 52.4902ZM715.037 58.6189L714.149 58.1586L714.146 58.1651L714.143 58.1717L715.037 58.6189ZM715.037 76.567L714.136 77.0009L714.146 77.0212L714.157 77.0411L715.037 76.567ZM720.582 82.5498L720.052 83.3978L720.06 83.4026L720.068 83.4072L720.582 82.5498ZM728.9 104.751C721.357 104.751 714.766 103.177 709.099 100.059L708.135 101.812C714.141 105.115 721.072 106.751 728.9 106.751V104.751ZM709.11 100.066C703.424 96.8436 698.93 92.4437 695.614 86.8549L693.894 87.8753C697.388 93.7655 702.136 98.4128 708.124 101.806L709.11 100.066ZM695.621 86.8658C692.412 81.2972 690.793 74.8587 690.793 67.52H688.793C688.793 75.1625 690.482 81.954 693.888 87.8644L695.621 86.8658ZM690.793 67.52C690.793 60.1763 692.365 53.7337 695.481 48.163L693.736 47.1867C690.431 53.0951 688.793 59.8826 688.793 67.52H690.793ZM695.475 48.1742C698.69 42.594 703.129 38.2491 708.807 35.1265L707.843 33.374C701.847 36.6719 697.141 41.2767 693.742 47.1756L695.475 48.1742ZM708.812 35.1237C714.582 31.9075 721.124 30.289 728.462 30.289V28.289C720.819 28.289 713.936 29.978 707.838 33.3768L708.812 35.1237ZM728.462 30.289C736 30.289 742.586 31.9097 748.252 35.1203L749.238 33.3802C743.23 29.9758 736.294 28.289 728.462 28.289V30.289ZM748.269 35.1298C754.041 38.2523 758.473 42.5934 761.588 48.163L763.334 47.1867C760.029 41.2773 755.317 36.6687 749.221 33.3707L748.269 35.1298ZM761.595 48.1742C764.804 53.7428 766.422 60.1814 766.422 67.52H768.422C768.422 59.8775 766.734 53.086 763.328 47.1756L761.595 48.1742ZM766.422 67.52C766.422 74.8587 764.804 81.2972 761.595 86.8658L763.328 87.8644C766.734 81.954 768.422 75.1625 768.422 67.52H766.422ZM761.588 86.877C758.469 92.4535 754.079 96.8464 748.398 100.066L749.384 101.806C755.376 98.4099 760.033 93.7558 763.334 87.8533L761.588 86.877ZM748.409 100.059C742.737 103.179 736.243 104.751 728.9 104.751V106.751C736.537 106.751 743.37 105.113 749.373 101.812L748.409 100.059ZM728.9 85.7386C731.993 85.7386 734.765 84.9623 737.18 83.3874L736.087 81.7122C734.027 83.0556 731.643 83.7386 728.9 83.7386V85.7386ZM737.163 83.3978C739.659 81.8383 741.582 79.7034 742.927 77.0143L741.138 76.1198C739.953 78.4892 738.278 80.3428 736.103 81.7018L737.163 83.3978ZM742.92 77.0274C744.366 74.2385 745.075 71.0607 745.075 67.52H743.075C743.075 70.7889 742.422 73.6425 741.145 76.1067L742.92 77.0274ZM745.075 67.52C745.075 63.9803 744.367 60.8445 742.913 58.1448L741.152 59.093C742.422 61.4518 743.075 64.2501 743.075 67.52H745.075ZM742.933 58.1851C741.592 55.3986 739.668 53.2076 737.163 51.6422L736.103 53.3382C738.268 54.6912 739.944 56.586 741.131 59.0527L742.933 58.1851ZM737.163 51.6422C734.655 50.0743 731.792 49.3014 728.608 49.3014V51.3014C731.455 51.3014 733.943 51.9877 736.103 53.3382L737.163 51.6422ZM728.608 49.3014C725.423 49.3014 722.561 50.0743 720.052 51.6422L721.112 53.3382C723.273 51.9877 725.761 51.3014 728.608 51.3014V49.3014ZM720.052 51.6422C717.554 53.2034 715.587 55.3854 714.149 58.1586L715.925 59.0792C717.211 56.5993 718.941 54.6955 721.112 53.3382L720.052 51.6422ZM714.143 58.1717C712.796 60.8653 712.14 63.9913 712.14 67.52H714.14C714.14 64.2391 714.749 61.431 715.932 59.0661L714.143 58.1717ZM712.14 67.52C712.14 71.0499 712.796 74.218 714.136 77.0009L715.938 76.1332C714.749 73.6629 714.14 70.7997 714.14 67.52H712.14ZM714.157 77.0411C715.597 79.7165 717.564 81.8424 720.052 83.3978L721.112 81.7018C718.931 80.3387 717.201 78.4762 715.918 76.0929L714.157 77.0411ZM720.068 83.4072C722.67 84.9687 725.624 85.7386 728.9 85.7386V83.7386C725.95 83.7386 723.358 83.0493 721.097 81.6923L720.068 83.4072ZM795.298 66.2067H794.298V67.1591L795.249 67.2055L795.298 66.2067ZM799.967 46.5075L799.114 45.986L799.107 45.9977L799.967 46.5075ZM811.933 34.688L811.457 33.8081L811.45 33.8122L811.933 34.688ZM827.108 30.7482H828.108V29.7482H827.108V30.7482ZM827.108 52.928V53.928H828.108V52.928H827.108ZM814.413 54.3872L814.176 53.4157L814.171 53.4171L814.413 54.3872ZM804.928 58.9107L805.553 59.6916L805.562 59.6841L805.572 59.6764L804.928 58.9107ZM801.28 66.4986L801.232 67.4974L802.28 67.5485V66.4986H801.28ZM778.517 104H777.517V105H778.517V104ZM778.517 31.04V30.04H777.517V31.04H778.517ZM801.28 31.04H802.28V30.04H801.28V31.04ZM801.28 104V105H802.28V104H801.28ZM796.298 66.2067C796.298 58.4554 797.829 52.0774 800.827 47.0173L799.107 45.9977C795.88 51.4438 794.298 58.1987 794.298 66.2067H796.298ZM800.82 47.029C803.952 41.9044 807.82 38.096 812.415 35.5638L811.45 33.8122C806.512 36.5332 802.403 40.6044 799.114 45.9861L800.82 47.029ZM812.408 35.5679C817.134 33.0159 822.03 31.7482 827.108 31.7482V29.7482C821.681 29.7482 816.46 31.107 811.457 33.8081L812.408 35.5679ZM826.108 30.7482V52.928H828.108V30.7482H826.108ZM827.108 51.928C822.561 51.928 818.249 52.4223 814.176 53.4157L814.65 55.3587C818.555 54.4064 822.706 53.928 827.108 53.928V51.928ZM814.171 53.4171C810.17 54.4173 806.86 55.9822 804.285 58.145L805.572 59.6764C807.861 57.7534 810.874 56.3027 814.656 55.3573L814.171 53.4171ZM804.304 58.1299C801.635 60.2651 800.28 63.0816 800.28 66.4986H802.28C802.28 63.6896 803.358 61.4475 805.553 59.6916L804.304 58.1299ZM801.329 65.4997L795.346 65.2079L795.249 67.2055L801.232 67.4974L801.329 65.4997ZM779.517 104V31.04H777.517V104H779.517ZM778.517 32.04H801.28V30.04H778.517V32.04ZM800.28 31.04V104H802.28V31.04H800.28ZM801.28 103H778.517V105H801.28V103ZM853.438 66.2067H852.438V67.1591L853.389 67.2055L853.438 66.2067ZM858.107 46.5075L857.254 45.986L857.247 45.9977L858.107 46.5075ZM870.073 34.688L869.597 33.8081L869.59 33.8122L870.073 34.688ZM885.248 30.7482H886.248V29.7482H885.248V30.7482ZM885.248 52.928V53.928H886.248V52.928H885.248ZM872.553 54.3872L872.316 53.4157L872.311 53.4171L872.553 54.3872ZM863.068 58.9107L863.693 59.6916L863.703 59.6841L863.712 59.6764L863.068 58.9107ZM859.42 66.4986L859.372 67.4974L860.42 67.5485V66.4986H859.42ZM836.657 104H835.657V105H836.657V104ZM836.657 31.04V30.04H835.657V31.04H836.657ZM859.42 31.04H860.42V30.04H859.42V31.04ZM859.42 104V105H860.42V104H859.42ZM854.438 66.2067C854.438 58.4554 855.969 52.0774 858.967 47.0173L857.247 45.9977C854.02 51.4438 852.438 58.1987 852.438 66.2067H854.438ZM858.96 47.029C862.092 41.9044 865.96 38.096 870.555 35.5638L869.59 33.8122C864.652 36.5332 860.543 40.6044 857.254 45.9861L858.96 47.029ZM870.548 35.5679C875.274 33.0159 880.17 31.7482 885.248 31.7482V29.7482C879.821 29.7482 874.6 31.107 869.597 33.8081L870.548 35.5679ZM884.248 30.7482V52.928H886.248V30.7482H884.248ZM885.248 51.928C880.701 51.928 876.389 52.4223 872.316 53.4157L872.79 55.3587C876.695 54.4064 880.846 53.928 885.248 53.928V51.928ZM872.311 53.4171C868.31 54.4173 865 55.9822 862.425 58.145L863.712 59.6764C866.001 57.7534 869.014 56.3027 872.796 55.3573L872.311 53.4171ZM862.444 58.1299C859.775 60.2651 858.42 63.0816 858.42 66.4986H860.42C860.42 63.6896 861.498 61.4475 863.693 59.6916L862.444 58.1299ZM859.469 65.4997L853.486 65.2079L853.389 67.2055L859.372 67.4974L859.469 65.4997ZM837.657 104V31.04H835.657V104H837.657ZM836.657 32.04H859.42V30.04H836.657V32.04ZM858.42 31.04V104H860.42V31.04H858.42ZM859.42 103H836.657V105H859.42V103ZM909.827 100.936L909.334 101.806L909.345 101.812L909.827 100.936ZM895.964 87.3651L895.098 87.8645L895.104 87.8753L895.964 87.3651ZM895.818 47.6749L894.952 47.1755L894.946 47.1867L895.818 47.6749ZM909.535 34.2502L910.017 35.1265L910.022 35.1237L909.535 34.2502ZM949.955 34.2502L949.462 35.1203L949.47 35.1251L949.479 35.1298L949.955 34.2502ZM963.671 47.6749L962.798 48.1631L962.805 48.1742L963.671 47.6749ZM963.671 87.3651L962.805 86.8658L962.798 86.877L963.671 87.3651ZM950.101 100.936L950.583 101.812L950.594 101.806L950.101 100.936ZM937.843 82.5498L937.313 81.7018L937.305 81.7069L937.297 81.7122L937.843 82.5498ZM943.242 76.567L942.355 76.1067L942.351 76.1133L942.348 76.1198L943.242 76.567ZM943.242 58.6189L942.341 59.0527L942.351 59.0731L942.362 59.093L943.242 58.6189ZM937.843 52.4902L937.313 53.3382L937.843 52.4902ZM921.792 52.4902L922.322 53.3382L921.792 52.4902ZM916.247 58.6189L915.359 58.1586L915.356 58.1651L915.353 58.1717L916.247 58.6189ZM916.247 76.567L915.346 77.0009L915.356 77.0212L915.367 77.0411L916.247 76.567ZM921.792 82.5498L921.262 83.3978L921.27 83.4026L921.278 83.4072L921.792 82.5498ZM930.11 104.751C922.567 104.751 915.976 103.177 910.309 100.059L909.345 101.812C915.351 105.115 922.282 106.751 930.11 106.751V104.751ZM910.32 100.066C904.634 96.8436 900.14 92.4437 896.824 86.8549L895.104 87.8753C898.598 93.7655 903.346 98.4128 909.334 101.806L910.32 100.066ZM896.831 86.8658C893.622 81.2972 892.003 74.8587 892.003 67.52H890.003C890.003 75.1625 891.692 81.954 895.098 87.8644L896.831 86.8658ZM892.003 67.52C892.003 60.1763 893.575 53.7337 896.691 48.163L894.946 47.1867C891.641 53.0951 890.003 59.8826 890.003 67.52H892.003ZM896.685 48.1742C899.9 42.594 904.339 38.2491 910.017 35.1265L909.053 33.374C903.057 36.6719 898.351 41.2767 894.952 47.1756L896.685 48.1742ZM910.022 35.1237C915.792 31.9075 922.334 30.289 929.672 30.289V28.289C922.029 28.289 915.146 29.978 909.048 33.3768L910.022 35.1237ZM929.672 30.289C937.21 30.289 943.796 31.9097 949.462 35.1203L950.448 33.3802C944.44 29.9758 937.504 28.289 929.672 28.289V30.289ZM949.479 35.1298C955.251 38.2523 959.683 42.5934 962.798 48.163L964.544 47.1867C961.239 41.2773 956.527 36.6687 950.43 33.3707L949.479 35.1298ZM962.805 48.1742C966.014 53.7428 967.632 60.1814 967.632 67.52H969.632C969.632 59.8775 967.944 53.086 964.538 47.1756L962.805 48.1742ZM967.632 67.52C967.632 74.8587 966.014 81.2972 962.805 86.8658L964.538 87.8644C967.944 81.954 969.632 75.1625 969.632 67.52H967.632ZM962.798 86.877C959.679 92.4535 955.289 96.8464 949.608 100.066L950.594 101.806C956.586 98.4099 961.242 93.7558 964.544 87.8533L962.798 86.877ZM949.619 100.059C943.947 103.179 937.453 104.751 930.11 104.751V106.751C937.747 106.751 944.58 105.113 950.583 101.812L949.619 100.059ZM930.11 85.7386C933.203 85.7386 935.975 84.9623 938.39 83.3874L937.297 81.7122C935.237 83.0556 932.853 83.7386 930.11 83.7386V85.7386ZM938.373 83.3978C940.868 81.8383 942.792 79.7034 944.137 77.0143L942.348 76.1198C941.163 78.4892 939.488 80.3428 937.313 81.7018L938.373 83.3978ZM944.13 77.0274C945.576 74.2385 946.285 71.0607 946.285 67.52H944.285C944.285 70.7889 943.632 73.6425 942.355 76.1067L944.13 77.0274ZM946.285 67.52C946.285 63.9803 945.577 60.8445 944.123 58.1448L942.362 59.093C943.632 61.4518 944.285 64.2501 944.285 67.52H946.285ZM944.143 58.1851C942.802 55.3986 940.878 53.2076 938.373 51.6422L937.313 53.3382C939.478 54.6912 941.154 56.586 942.341 59.0527L944.143 58.1851ZM938.373 51.6422C935.865 50.0743 933.002 49.3014 929.818 49.3014V51.3014C932.664 51.3014 935.153 51.9877 937.313 53.3382L938.373 51.6422ZM929.818 49.3014C926.633 49.3014 923.771 50.0743 921.262 51.6422L922.322 53.3382C924.483 51.9877 926.971 51.3014 929.818 51.3014V49.3014ZM921.262 51.6422C918.764 53.2034 916.797 55.3854 915.359 58.1586L917.135 59.0792C918.421 56.5993 920.151 54.6955 922.322 53.3382L921.262 51.6422ZM915.353 58.1717C914.006 60.8653 913.35 63.9913 913.35 67.52H915.35C915.35 64.2391 915.959 61.431 917.142 59.0661L915.353 58.1717ZM913.35 67.52C913.35 71.0499 914.006 74.218 915.346 77.0009L917.148 76.1332C915.959 73.6629 915.35 70.7997 915.35 67.52H913.35ZM915.367 77.0411C916.807 79.7165 918.774 81.8424 921.262 83.3978L922.322 81.7018C920.141 80.3387 918.411 78.4762 917.128 76.0929L915.367 77.0411ZM921.278 83.4072C923.88 84.9687 926.834 85.7386 930.11 85.7386V83.7386C927.16 83.7386 924.568 83.0493 922.307 81.6923L921.278 83.4072ZM1045.33 104L1044.38 103.688L1043.95 105H1045.33V104ZM1069.26 31.04V30.04H1068.54L1068.31 30.7283L1069.26 31.04ZM1092.47 31.04L1093.41 31.3636L1093.86 30.04H1092.47V31.04ZM1067.51 104V105H1068.23L1068.46 104.324L1067.51 104ZM997.326 104L996.372 103.702L995.967 105H997.326V104ZM1020.09 31.04V30.04H1019.35L1019.14 30.7422L1020.09 31.04ZM1039.5 31.04L1040.45 31.3326L1040.85 30.04H1039.5V31.04ZM1017.17 104V105H1017.91L1018.13 104.293L1017.17 104ZM994.846 104L993.899 104.322L994.129 105H994.846V104ZM970.039 31.04V30.04H968.643L969.092 31.3619L970.039 31.04ZM993.24 31.04L994.196 30.7439L993.977 30.04H993.24V31.04ZM1015.86 104V105H1017.22L1016.81 103.704L1015.86 104ZM1045.19 104L1044.23 104.289L1044.45 105H1045.19V104ZM1023.15 31.04V30.04H1021.81L1022.2 31.3291L1023.15 31.04ZM1042.56 31.04L1043.52 30.7439L1043.3 30.04H1042.56V31.04ZM1065.18 104V105H1066.54L1066.13 103.704L1065.18 104ZM1046.28 104.312L1070.21 31.3517L1068.31 30.7283L1044.38 103.688L1046.28 104.312ZM1069.26 32.04H1092.47V30.04H1069.26V32.04ZM1091.52 30.7164L1066.57 103.676L1068.46 104.324L1093.41 31.3636L1091.52 30.7164ZM1067.51 103H1045.33V105H1067.51V103ZM998.281 104.298L1021.04 31.3378L1019.14 30.7422L996.372 103.702L998.281 104.298ZM1020.09 32.04H1039.5V30.04H1020.09V32.04ZM1038.54 30.7474L1016.22 103.707L1018.13 104.293L1040.45 31.3326L1038.54 30.7474ZM1017.17 103H997.326V105H1017.17V103ZM995.792 103.678L970.986 30.7181L969.092 31.3619L993.899 104.322L995.792 103.678ZM970.039 32.04H993.24V30.04H970.039V32.04ZM992.285 31.3361L1014.9 104.296L1016.81 103.704L994.196 30.7439L992.285 31.3361ZM1015.86 103H994.846V105H1015.86V103ZM1046.15 103.711L1024.11 30.7509L1022.2 31.3291L1044.23 104.289L1046.15 103.711ZM1023.15 32.04H1042.56V30.04H1023.15V32.04ZM1041.61 31.3361L1064.22 104.296L1066.13 103.704L1043.52 30.7439L1041.61 31.3361ZM1065.18 103H1045.19V105H1065.18V103Z" fill="#FFC107" fill-opacity="0.8" mask="url(#path-1-outside-1_293_357)"/>
</svg>
