<svg width="879" height="139" viewBox="0 0 879 139" fill="none" xmlns="http://www.w3.org/2000/svg">
<mask id="path-1-outside-1_293_356" maskUnits="userSpaceOnUse" x="-1.88062" y="-3" width="884" height="145" fill="black">
<rect fill="white" x="-1.88062" y="-3" width="884" height="145"/>
<path d="M30.5271 108V27.4498H0.758557V5.85295H83.6436V27.4498H53.875V108H30.5271ZM93.5129 108V5.85295H116.277V108H93.5129ZM140.501 108V70.6434H163.265V108H140.501ZM140.501 70.6434C140.501 66.7521 140.063 63.6876 139.187 61.4501C138.312 59.1153 137.047 57.4129 135.393 56.3428C133.739 55.2727 131.794 54.689 129.556 54.5917C125.178 54.4944 121.871 55.7104 119.633 58.2398C117.396 60.6719 116.277 64.4173 116.277 69.476H109.419C109.419 61.7906 110.586 55.2727 112.921 49.9221C115.256 44.4743 118.417 40.3397 122.406 37.5185C126.492 34.6973 131.161 33.2867 136.415 33.2867C142.349 33.2867 147.31 34.5028 151.299 36.9348C155.288 39.2696 158.255 42.8691 160.2 47.7332C162.243 52.5974 163.265 58.8235 163.265 66.4116V70.6434H140.501ZM193.937 70.2056C193.937 62.3257 195.494 55.7591 198.607 50.5058C201.817 45.2525 205.806 41.3126 210.573 38.6859C215.437 36.0593 220.496 34.746 225.749 34.746V56.9265C221.274 56.9265 217.042 57.4129 213.053 58.3857C209.162 59.3585 206 60.8664 203.568 62.9094C201.136 64.855 199.92 67.3844 199.92 70.4974L193.937 70.2056ZM177.156 108V35.0378H199.92V108H177.156ZM236.611 108V35.0378H259.375V108H236.611ZM247.993 25.6987C244.588 25.6987 241.572 24.434 238.946 21.9046C236.416 19.278 235.152 16.2622 235.152 12.8573C235.152 9.25786 236.416 6.24209 238.946 3.81001C241.572 1.28066 244.588 0.0159819 247.993 0.0159819C251.495 0.0159819 254.511 1.28066 257.04 3.81001C259.57 6.24209 260.834 9.25786 260.834 12.8573C260.834 16.2622 259.57 19.278 257.04 21.9046C254.511 24.434 251.495 25.6987 247.993 25.6987ZM300.725 108L327.43 35.0378H350.923L321.301 108H300.725ZM298.682 108L269.06 35.0378H292.554L319.258 108H298.682ZM391.733 109.751C384.145 109.751 377.433 108.146 371.596 104.936C365.759 101.725 361.186 97.2502 357.879 91.5105C354.571 85.7709 352.917 79.107 352.917 71.5189C352.917 63.9308 354.571 57.267 357.879 51.5273C361.186 45.7876 365.759 41.3126 371.596 38.1022C377.53 34.8919 384.34 33.2867 392.025 33.2867C398.932 33.2867 405.158 34.9405 410.703 38.2482C416.249 41.5558 420.626 46.5172 423.837 53.1324C427.144 59.6504 428.798 67.7249 428.798 77.3559H373.93L376.411 74.5833C376.411 77.8909 377.092 80.8094 378.454 83.3388C379.816 85.8681 381.713 87.8138 384.145 89.1758C386.577 90.4404 389.301 91.0728 392.317 91.0728C395.916 91.0728 398.932 90.2945 401.364 88.738C403.796 87.0842 405.499 85.0412 406.472 82.6092L426.755 89.4676C424.809 94.1372 422.037 97.9799 418.437 100.996C414.935 104.011 410.898 106.249 406.326 107.708C401.753 109.07 396.889 109.751 391.733 109.751ZM376.995 65.2442L374.66 62.1798H407.347L405.158 65.2442C405.158 61.5474 404.429 58.6776 402.969 56.6346C401.51 54.4944 399.71 52.9379 397.57 51.9651C395.527 50.9922 393.436 50.5058 391.295 50.5058C389.155 50.5058 386.966 50.9922 384.729 51.9651C382.589 52.9379 380.74 54.4944 379.184 56.6346C377.724 58.6776 376.995 61.5474 376.995 65.2442ZM497.229 108V27.4498H467.46V5.85295H550.345V27.4498H520.576V108H497.229ZM585.403 109.751C577.718 109.751 570.957 108.146 565.12 104.936C559.283 101.628 554.662 97.1043 551.257 91.3646C547.949 85.6249 546.296 79.0097 546.296 71.5189C546.296 64.0281 547.901 57.4129 551.111 51.6732C554.419 45.9335 558.991 41.4585 564.828 38.2482C570.762 34.9405 577.475 33.2867 584.966 33.2867C592.651 33.2867 599.412 34.9405 605.249 38.2482C611.183 41.4585 615.756 45.9335 618.966 51.6732C622.274 57.4129 623.927 64.0281 623.927 71.5189C623.927 79.0097 622.274 85.6249 618.966 91.3646C615.756 97.1043 611.232 101.628 605.395 104.936C599.558 108.146 592.894 109.751 585.403 109.751ZM585.403 88.738C588.322 88.738 590.9 88.0084 593.137 86.5491C595.472 85.0899 597.272 83.0956 598.536 80.5662C599.898 77.9396 600.579 74.9238 600.579 71.5189C600.579 68.114 599.898 65.1469 598.536 62.6175C597.272 59.9909 595.472 57.9479 593.137 56.4887C590.802 55.0295 588.127 54.2998 585.111 54.2998C582.096 54.2998 579.42 55.0295 577.086 56.4887C574.751 57.9479 572.902 59.9909 571.54 62.6175C570.276 65.1469 569.643 68.114 569.643 71.5189C569.643 74.9238 570.276 77.9396 571.54 80.5662C572.902 83.0956 574.751 85.0899 577.086 86.5491C579.518 88.0084 582.29 88.738 585.403 88.738ZM685.95 108L684.928 94.429V5.85295H707.692V108H685.95ZM664.207 109.751C657.397 109.751 651.512 108.243 646.55 105.227C641.686 102.114 637.892 97.688 635.168 91.9483C632.541 86.2086 631.228 79.3988 631.228 71.5189C631.228 63.5417 632.541 56.7319 635.168 51.0895C637.892 45.3498 641.686 40.9721 646.55 37.9563C651.512 34.8433 657.397 33.2867 664.207 33.2867C670.239 33.2867 675.297 34.8433 679.383 37.9563C683.566 40.9721 686.679 45.3498 688.722 51.0895C690.765 56.7319 691.787 63.5417 691.787 71.5189C691.787 79.3988 690.765 86.2086 688.722 91.9483C686.679 97.688 683.566 102.114 679.383 105.227C675.297 108.243 670.239 109.751 664.207 109.751ZM670.19 88.738C673.011 88.738 675.54 88.0084 677.778 86.5491C680.016 85.0899 681.767 83.0956 683.031 80.5662C684.296 77.9396 684.928 74.9238 684.928 71.5189C684.928 68.114 684.296 65.1469 683.031 62.6175C681.767 59.9909 680.016 57.9479 677.778 56.4887C675.54 55.0295 672.962 54.2998 670.044 54.2998C667.126 54.2998 664.548 55.0295 662.31 56.4887C660.073 57.9479 658.273 59.9909 656.911 62.6175C655.646 65.1469 654.965 68.114 654.868 71.5189C654.965 74.9238 655.646 77.9396 656.911 80.5662C658.273 83.0956 660.073 85.0899 662.31 86.5491C664.645 88.0084 667.271 88.738 670.19 88.738ZM765.859 108L765.13 92.2402V71.6648C765.13 67.7735 764.789 64.3686 764.108 61.4501C763.525 58.5316 762.308 56.2941 760.46 54.7376C758.709 53.0838 756.131 52.2569 752.726 52.2569C750.002 52.2569 747.619 52.8892 745.576 54.1539C743.533 55.4186 741.782 57.121 740.323 59.2613L720.331 52.6947C722.082 49.0952 724.368 45.8362 727.189 42.9177C730.108 39.9993 733.659 37.6645 737.842 35.9134C742.025 34.1623 746.889 33.2867 752.434 33.2867C760.022 33.2867 766.443 34.6973 771.696 37.5185C776.95 40.3397 780.89 44.2797 783.516 49.3384C786.143 54.3971 787.456 60.38 787.456 67.2871L787.164 108H765.859ZM745.868 109.751C737.307 109.751 730.643 107.854 725.876 104.06C721.109 100.169 718.726 94.6236 718.726 87.4247C718.726 79.7393 721.206 73.9996 726.168 70.2056C731.129 66.4116 738.085 64.5145 747.035 64.5145H767.027V79.2529H755.499C750.732 79.2529 747.278 79.9339 745.138 81.2958C742.998 82.5605 741.928 84.4089 741.928 86.841C741.928 88.5921 742.706 90.0027 744.263 91.0728C745.916 92.0456 748.154 92.532 750.975 92.532C753.796 92.532 756.228 91.9483 758.271 90.7809C760.411 89.5162 762.065 87.8624 763.233 85.8195C764.497 83.7766 765.13 81.5877 765.13 79.2529H770.967C770.967 88.8839 768.875 96.3747 764.692 101.725C760.606 107.076 754.331 109.751 745.868 109.751ZM817.289 138.936C814.175 138.936 810.868 138.352 807.366 137.185C803.961 136.017 801.091 134.753 798.756 133.391L807.22 114.858C808.582 115.831 809.895 116.561 811.16 117.047C812.522 117.534 813.738 117.777 814.808 117.777C816.656 117.777 818.31 117.291 819.769 116.318C821.228 115.442 822.396 113.983 823.271 111.94L831.881 91.6565L853.332 35.0378H878.577L846.327 112.378C844.187 117.631 841.95 122.252 839.615 126.241C837.28 130.229 834.362 133.342 830.859 135.58C827.455 137.817 822.931 138.936 817.289 138.936ZM825.898 108L791.752 35.0378H816.997L839.907 91.6565L847.641 108H825.898Z"/>
</mask>
<path d="M30.5271 108H28.2034V110.324H30.5271V108ZM30.5271 27.4498H32.8509V25.126H30.5271V27.4498ZM0.758557 27.4498H-1.56517V29.7735H0.758557V27.4498ZM0.758557 5.85295V3.52922H-1.56517V5.85295H0.758557ZM83.6436 5.85295H85.9673V3.52922H83.6436V5.85295ZM83.6436 27.4498V29.7735H85.9673V27.4498H83.6436ZM53.875 27.4498V25.126H51.5513V27.4498H53.875ZM53.875 108V110.324H56.1988V108H53.875ZM32.8509 108V27.4498H28.2034V108H32.8509ZM30.5271 25.126H0.758557V29.7735H30.5271V25.126ZM3.08229 27.4498V5.85295H-1.56517V27.4498H3.08229ZM0.758557 8.17668H83.6436V3.52922H0.758557V8.17668ZM81.3199 5.85295V27.4498H85.9673V5.85295H81.3199ZM83.6436 25.126H53.875V29.7735H83.6436V25.126ZM51.5513 27.4498V108H56.1988V27.4498H51.5513ZM53.875 105.676H30.5271V110.324H53.875V105.676ZM93.5129 108H91.1891V110.324H93.5129V108ZM93.5129 5.85295V3.52922H91.1891V5.85295H93.5129ZM116.277 5.85295H118.601V3.52922H116.277V5.85295ZM116.277 108V110.324H118.601V108H116.277ZM140.501 108H138.177V110.324H140.501V108ZM140.501 70.6434V68.3196H138.177V70.6434H140.501ZM163.265 70.6434H165.588V68.3196H163.265V70.6434ZM163.265 108V110.324H165.588V108H163.265ZM140.501 70.6434H138.177V72.9671H140.501V70.6434ZM139.187 61.4501L137.011 62.2661L137.017 62.2815L137.023 62.2969L139.187 61.4501ZM135.393 56.3428L134.131 58.2937L135.393 56.3428ZM129.556 54.5917L129.657 52.2701L129.632 52.2691L129.608 52.2685L129.556 54.5917ZM119.633 58.2398L121.343 59.8131L121.359 59.7964L121.374 59.7794L119.633 58.2398ZM116.277 69.476V71.7997H118.601V69.476H116.277ZM109.419 69.476H107.095V71.7997H109.419V69.476ZM112.921 49.9221L115.051 50.8515L115.054 50.8445L115.057 50.8375L112.921 49.9221ZM122.406 37.5185L121.086 35.6063L121.075 35.6138L121.064 35.6214L122.406 37.5185ZM151.299 36.9348L150.089 38.9188L150.107 38.9297L150.125 38.9403L151.299 36.9348ZM160.2 47.7332L158.043 48.5963L158.05 48.6147L158.058 48.6331L160.2 47.7332ZM163.265 70.6434V72.9671H165.588V70.6434H163.265ZM95.8366 108V5.85295H91.1891V108H95.8366ZM93.5129 8.17668H116.277V3.52922H93.5129V8.17668ZM113.953 5.85295V108H118.601V5.85295H113.953ZM116.277 105.676H93.5129V110.324H116.277V105.676ZM142.824 108V70.6434H138.177V108H142.824ZM140.501 72.9671H163.265V68.3196H140.501V72.9671ZM160.941 70.6434V108H165.588V70.6434H160.941ZM163.265 105.676H140.501V110.324H163.265V105.676ZM142.824 70.6434C142.824 66.6195 142.377 63.2261 141.351 60.6034L137.023 62.2969C137.748 64.1491 138.177 66.8846 138.177 70.6434H142.824ZM141.363 60.6342C140.359 57.9581 138.827 55.7972 136.656 54.3918L134.131 58.2937C135.267 59.0286 136.264 60.2725 137.011 62.2661L141.363 60.6342ZM136.656 54.3918C134.609 53.0676 132.25 52.3829 129.657 52.2701L129.455 56.9132C131.337 56.995 132.87 57.4777 134.131 58.2937L136.656 54.3918ZM129.608 52.2685C124.764 52.1609 120.71 53.5155 117.893 56.7001L121.374 59.7794C123.032 57.9053 125.593 56.8279 129.505 56.9148L129.608 52.2685ZM117.923 56.6665C115.127 59.7061 113.953 64.1339 113.953 69.476H118.601C118.601 64.7006 119.665 61.6376 121.343 59.8131L117.923 56.6665ZM116.277 67.1522H109.419V71.7997H116.277V67.1522ZM111.742 69.476C111.742 62.0141 112.877 55.8319 115.051 50.8515L110.791 48.9927C108.295 54.7135 107.095 61.5671 107.095 69.476H111.742ZM115.057 50.8375C117.259 45.6996 120.177 41.9411 123.748 39.4157L121.064 35.6214C116.657 38.7384 113.253 43.2489 110.785 49.0067L115.057 50.8375ZM123.726 39.4307C127.401 36.8935 131.604 35.6105 136.415 35.6105V30.963C130.719 30.963 125.583 32.5012 121.086 35.6063L123.726 39.4307ZM136.415 35.6105C142.036 35.6105 146.551 36.7616 150.089 38.9188L152.509 34.9508C148.069 32.2439 142.662 30.963 136.415 30.963V35.6105ZM150.125 38.9403C153.609 40.9797 156.262 44.1443 158.043 48.5963L162.358 46.8702C160.247 41.5938 156.966 37.5595 152.473 34.9294L150.125 38.9403ZM158.058 48.6331C159.941 53.1163 160.941 59.0078 160.941 66.4116H165.588C165.588 58.6391 164.546 52.0785 162.343 46.8334L158.058 48.6331ZM160.941 66.4116V70.6434H165.588V66.4116H160.941ZM163.265 68.3196H140.501V72.9671H163.265V68.3196ZM193.937 70.2056H191.614V72.4187L193.824 72.5266L193.937 70.2056ZM198.607 50.5058L196.624 49.2941L196.616 49.3076L196.608 49.3212L198.607 50.5058ZM210.573 38.6859L209.469 36.6413L209.46 36.646L209.451 36.6507L210.573 38.6859ZM225.749 34.746H228.073V32.4222H225.749V34.746ZM225.749 56.9265V59.2502H228.073V56.9265H225.749ZM213.053 58.3857L212.503 56.1281L212.49 56.1314L213.053 58.3857ZM203.568 62.9094L205.02 64.7239L205.042 64.7065L205.063 64.6887L203.568 62.9094ZM199.92 70.4974L199.807 72.8184L202.244 72.9373V70.4974H199.92ZM177.156 108H174.832V110.324H177.156V108ZM177.156 35.0378V32.7141H174.832V35.0378H177.156ZM199.92 35.0378H202.244V32.7141H199.92V35.0378ZM199.92 108V110.324H202.244V108H199.92ZM196.261 70.2056C196.261 62.6239 197.759 56.4952 200.606 51.6904L196.608 49.3212C193.229 55.0229 191.614 62.0275 191.614 70.2056H196.261ZM200.59 51.7175C203.617 46.7629 207.326 43.1283 211.694 40.7211L209.451 36.6507C204.286 39.4968 200.017 43.7421 196.624 49.2941L200.59 51.7175ZM211.677 40.7306C216.22 38.2772 220.901 37.0697 225.749 37.0697V32.4222C220.09 32.4222 214.654 33.8414 209.469 36.6413L211.677 40.7306ZM223.425 34.746V56.9265H228.073V34.746H223.425ZM225.749 54.6027C221.105 54.6027 216.687 55.1076 212.503 56.1282L213.604 60.6433C217.397 59.7181 221.443 59.2502 225.749 59.2502V54.6027ZM212.49 56.1314C208.344 57.1679 204.837 58.8085 202.074 61.1301L205.063 64.6887C207.163 62.9244 209.981 61.5492 213.617 60.6401L212.49 56.1314ZM202.117 61.0948C199.134 63.4812 197.596 66.6781 197.596 70.4974H202.244C202.244 68.0907 203.139 66.2288 205.02 64.7239L202.117 61.0948ZM200.033 68.1765L194.051 67.8846L193.824 72.5266L199.807 72.8184L200.033 68.1765ZM179.48 108V35.0378H174.832V108H179.48ZM177.156 37.3616H199.92V32.7141H177.156V37.3616ZM197.596 35.0378V108H202.244V35.0378H197.596ZM199.92 105.676H177.156V110.324H199.92V105.676ZM236.611 108H234.287V110.324H236.611V108ZM236.611 35.0378V32.7141H234.287V35.0378H236.611ZM259.375 35.0378H261.699V32.7141H259.375V35.0378ZM259.375 108V110.324H261.699V108H259.375ZM238.946 21.9046L237.272 23.5165L237.302 23.548L237.334 23.5785L238.946 21.9046ZM238.946 3.81001L240.556 5.48503L240.558 5.48384L238.946 3.81001ZM257.04 3.81001L255.397 5.45314L255.413 5.46924L255.43 5.48503L257.04 3.81001ZM257.04 21.9046L258.684 23.5478L258.699 23.5323L258.714 23.5165L257.04 21.9046ZM238.935 108V35.0378H234.287V108H238.935ZM236.611 37.3616H259.375V32.7141H236.611V37.3616ZM257.052 35.0378V108H261.699V35.0378H257.052ZM259.375 105.676H236.611V110.324H259.375V105.676ZM247.993 23.3749C245.235 23.3749 242.785 22.3758 240.558 20.2308L237.334 23.5785C240.36 26.4922 243.942 28.0224 247.993 28.0224V23.3749ZM240.62 20.2928C238.475 18.0653 237.476 15.6158 237.476 12.8573H232.828C232.828 16.9087 234.358 20.4906 237.272 23.5165L240.62 20.2928ZM237.476 12.8573C237.476 9.87157 238.496 7.46642 240.556 5.48503L237.335 2.13499C234.337 5.01775 232.828 8.64414 232.828 12.8573H237.476ZM240.558 5.48384C242.785 3.33889 245.235 2.33971 247.993 2.33971V-2.30775C243.942 -2.30775 240.36 -0.777576 237.334 2.13618L240.558 5.48384ZM247.993 2.33971C250.864 2.33971 253.293 3.34912 255.397 5.45314L258.684 2.16688C255.729 -0.787811 252.126 -2.30775 247.993 -2.30775V2.33971ZM255.43 5.48503C257.491 7.46642 258.511 9.87157 258.511 12.8573H263.158C263.158 8.64414 261.649 5.01775 258.651 2.13499L255.43 5.48503ZM258.511 12.8573C258.511 15.6158 257.512 18.0653 255.367 20.2928L258.714 23.5165C261.628 20.4906 263.158 16.9087 263.158 12.8573H258.511ZM255.397 20.2615C253.293 22.3655 250.864 23.3749 247.993 23.3749V28.0224C252.126 28.0224 255.729 26.5025 258.684 23.5478L255.397 20.2615ZM300.725 108L298.543 107.201L297.4 110.324H300.725V108ZM327.43 35.0378V32.7141H325.806L325.247 34.2392L327.43 35.0378ZM350.923 35.0378L353.076 35.912L354.375 32.7141H350.923V35.0378ZM321.301 108V110.324H322.865L323.454 108.874L321.301 108ZM298.682 108L296.529 108.874L297.118 110.324H298.682V108ZM269.06 35.0378V32.7141H265.608L266.907 35.912L269.06 35.0378ZM292.554 35.0378L294.736 34.2392L294.178 32.7141H292.554V35.0378ZM319.258 108V110.324H322.583L321.44 107.201L319.258 108ZM302.908 108.799L329.612 35.8365L325.247 34.2392L298.543 107.201L302.908 108.799ZM327.43 37.3616H350.923V32.7141H327.43V37.3616ZM348.77 34.1637L319.148 107.126L323.454 108.874L353.076 35.912L348.77 34.1637ZM321.301 105.676H300.725V110.324H321.301V105.676ZM300.836 107.126L271.213 34.1637L266.907 35.912L296.529 108.874L300.836 107.126ZM269.06 37.3616H292.554V32.7141H269.06V37.3616ZM290.371 35.8365L317.076 108.799L321.44 107.201L294.736 34.2392L290.371 35.8365ZM319.258 105.676H298.682V110.324H319.258V105.676ZM371.596 104.936L372.716 102.9L371.596 104.936ZM357.879 91.5106L359.892 90.3503L357.879 91.5106ZM357.879 51.5273L355.865 50.367L357.879 51.5273ZM371.596 38.1022L370.49 36.0584L370.483 36.0623L370.476 36.0661L371.596 38.1022ZM410.703 38.2482L409.513 40.2438L410.703 38.2482ZM423.837 53.1324L421.746 54.147L421.755 54.1656L421.764 54.184L423.837 53.1324ZM428.798 77.3559V79.6796H431.122V77.3559H428.798ZM373.93 77.3559L372.199 75.8064L368.733 79.6796H373.93V77.3559ZM376.411 74.5833H378.735V68.5013L374.679 73.0339L376.411 74.5833ZM378.454 83.3388L376.408 84.4405V84.4405L378.454 83.3388ZM384.145 89.1758L383.01 91.2032L383.041 91.2208L383.073 91.2374L384.145 89.1758ZM401.364 88.738L402.617 90.6952L402.644 90.6777L402.671 90.6595L401.364 88.738ZM406.472 82.6092L407.216 80.4079L405.131 79.703L404.314 81.7462L406.472 82.6092ZM426.755 89.4676L428.9 90.3614L429.857 88.0636L427.499 87.2663L426.755 89.4676ZM418.437 100.996L416.945 99.2144L416.933 99.2245L416.921 99.2348L418.437 100.996ZM406.326 107.708L406.989 109.935L407.011 109.929L407.032 109.922L406.326 107.708ZM376.995 65.2442L375.146 66.6524L379.319 72.1283V65.2442H376.995ZM374.66 62.1798V59.856H369.968L372.812 63.588L374.66 62.1798ZM407.347 62.1798L409.238 63.5304L411.863 59.856H407.347V62.1798ZM405.158 65.2442H402.835V72.4953L407.049 66.5948L405.158 65.2442ZM402.969 56.6346L401.049 57.9437L401.064 57.9646L401.078 57.9853L402.969 56.6346ZM397.57 51.965L396.571 54.0631L396.59 54.0719L396.609 54.0805L397.57 51.965ZM384.729 51.965L383.802 49.834L383.785 49.8417L383.767 49.8496L384.729 51.965ZM379.184 56.6346L377.304 55.2679L377.299 55.2759L377.293 55.284L379.184 56.6346ZM391.733 107.427C384.482 107.427 378.164 105.896 372.716 102.9L370.476 106.972C376.701 110.396 383.809 112.075 391.733 112.075V107.427ZM372.716 102.9C367.249 99.8927 362.986 95.7197 359.892 90.3503L355.865 92.6708C359.386 98.7808 364.269 103.558 370.476 106.972L372.716 102.9ZM359.892 90.3503C356.816 85.0122 355.241 78.7598 355.241 71.5189H350.594C350.594 79.4541 352.326 86.5295 355.865 92.6708L359.892 90.3503ZM355.241 71.5189C355.241 64.278 356.816 58.0257 359.892 52.6875L355.865 50.367C352.326 56.5083 350.594 63.5837 350.594 71.5189H355.241ZM359.892 52.6875C362.986 47.3181 367.249 43.1451 372.716 40.1383L370.476 36.0661C364.269 39.48 359.386 44.257 355.865 50.367L359.892 52.6875ZM372.701 40.1461C378.251 37.1436 384.671 35.6105 392.025 35.6105V30.963C384.008 30.963 376.809 32.6402 370.49 36.0584L372.701 40.1461ZM392.025 35.6105C398.543 35.6105 404.353 37.1659 409.513 40.2438L411.894 36.2525C405.964 32.7151 399.321 30.963 392.025 30.963V35.6105ZM409.513 40.2438C414.617 43.2881 418.705 47.8813 421.746 54.147L425.927 52.1179C422.547 45.1531 417.88 39.8235 411.894 36.2525L409.513 40.2438ZM421.764 54.184C424.863 60.2894 426.474 67.9788 426.474 77.3559H431.122C431.122 67.471 429.426 59.0114 425.909 52.0809L421.764 54.184ZM428.798 75.0322H373.93V79.6796H428.798V75.0322ZM375.662 78.9053L378.143 76.1328L374.679 73.0339L372.199 75.8064L375.662 78.9053ZM374.087 74.5833C374.087 78.2168 374.838 81.5244 376.408 84.4405L380.5 82.2371C379.346 80.0945 378.735 77.5651 378.735 74.5833H374.087ZM376.408 84.4405C377.973 87.3461 380.18 89.6186 383.01 91.2032L385.281 87.1483C383.246 86.009 381.659 84.3902 380.5 82.2371L376.408 84.4405ZM383.073 91.2374C385.868 92.691 388.966 93.3965 392.317 93.3965V88.749C389.636 88.749 387.286 88.1899 385.217 87.1141L383.073 91.2374ZM392.317 93.3965C396.251 93.3965 399.728 92.5438 402.617 90.6952L400.112 86.7808C398.136 88.0452 395.582 88.749 392.317 88.749V93.3965ZM402.671 90.6595C405.437 88.7786 407.464 86.3856 408.629 83.4722L404.314 81.7462C403.534 83.6969 402.156 85.3897 400.058 86.8164L402.671 90.6595ZM405.727 84.8105L426.011 91.6689L427.499 87.2663L407.216 80.4079L405.727 84.8105ZM424.61 88.5739C422.796 92.9268 420.237 96.4561 416.945 99.2144L419.93 102.777C423.836 99.5036 426.822 95.3476 428.9 90.3614L424.61 88.5739ZM416.921 99.2348C413.665 102.039 409.906 104.126 405.619 105.494L407.032 109.922C411.89 108.371 416.206 105.984 419.954 102.756L416.921 99.2348ZM405.662 105.481C401.322 106.774 396.683 107.427 391.733 107.427V112.075C397.096 112.075 402.185 111.366 406.989 109.935L405.662 105.481ZM378.843 63.8359L376.508 60.7715L372.812 63.588L375.146 66.6524L378.843 63.8359ZM374.66 64.5035H407.347V59.856H374.66V64.5035ZM405.456 60.8291L403.267 63.8935L407.049 66.5948L409.238 63.5304L405.456 60.8291ZM407.482 65.2442C407.482 61.2809 406.706 57.8674 404.86 55.284L401.078 57.9853C402.152 59.4877 402.835 61.8139 402.835 65.2442H407.482ZM404.889 55.3256C403.216 52.8708 401.098 51.0161 398.532 49.8496L396.609 54.0805C398.323 54.8597 399.805 56.118 401.049 57.9437L404.889 55.3256ZM398.569 49.867C396.232 48.7543 393.801 48.1821 391.295 48.1821V52.8295C393.07 52.8295 394.822 53.2301 396.571 54.0631L398.569 49.867ZM391.295 48.1821C388.795 48.1821 386.291 48.7518 383.802 49.834L385.655 54.0961C387.641 53.2326 389.516 52.8295 391.295 52.8295V48.1821ZM383.767 49.8496C381.218 51.0086 379.067 52.8446 377.304 55.2679L381.063 58.0014C382.414 56.1442 383.96 54.8672 385.69 54.0805L383.767 49.8496ZM377.293 55.284C375.448 57.8674 374.671 61.2809 374.671 65.2442H379.319C379.319 61.8139 380.001 59.4877 381.075 57.9853L377.293 55.284ZM497.229 108H494.905V110.324H497.229V108ZM497.229 27.4498H499.552V25.126H497.229V27.4498ZM467.46 27.4498H465.136V29.7735H467.46V27.4498ZM467.46 5.85295V3.52922H465.136V5.85295H467.46ZM550.345 5.85295H552.669V3.52922H550.345V5.85295ZM550.345 27.4498V29.7735H552.669V27.4498H550.345ZM520.576 27.4498V25.126H518.253V27.4498H520.576ZM520.576 108V110.324H522.9V108H520.576ZM499.552 108V27.4498H494.905V108H499.552ZM497.229 25.126H467.46V29.7735H497.229V25.126ZM469.784 27.4498V5.85295H465.136V27.4498H469.784ZM467.46 8.17668H550.345V3.52922H467.46V8.17668ZM548.021 5.85295V27.4498H552.669V5.85295H548.021ZM550.345 25.126H520.576V29.7735H550.345V25.126ZM518.253 27.4498V108H522.9V27.4498H518.253ZM520.576 105.676H497.229V110.324H520.576V105.676ZM565.12 104.936L563.974 106.957L563.987 106.965L564 106.972L565.12 104.936ZM551.257 91.3646L549.244 92.5249L549.251 92.5376L549.258 92.5502L551.257 91.3646ZM551.111 51.6732L549.098 50.513L549.09 50.5259L549.083 50.5389L551.111 51.6732ZM564.828 38.2482L565.948 40.2843L565.959 40.2779L564.828 38.2482ZM605.249 38.2482L604.103 40.2699L604.123 40.2811L604.143 40.292L605.249 38.2482ZM618.966 51.6732L616.938 52.8075L616.945 52.8205L616.953 52.8334L618.966 51.6732ZM618.966 91.3646L616.953 90.2044L616.945 90.2173L616.938 90.2303L618.966 91.3646ZM605.395 104.936L606.515 106.972L606.528 106.965L606.541 106.957L605.395 104.936ZM593.137 86.5491L591.906 84.5786L591.887 84.5905L591.868 84.6027L593.137 86.5491ZM598.536 80.5662L596.474 79.4966L596.466 79.5117L596.458 79.527L598.536 80.5662ZM598.536 62.6175L596.443 63.6256L596.466 63.6729L596.491 63.7192L598.536 62.6175ZM593.137 56.4887L591.906 58.4592L593.137 56.4887ZM577.086 56.4887L578.317 58.4592L577.086 56.4887ZM571.54 62.6175L569.478 61.5479L569.47 61.563L569.462 61.5783L571.54 62.6175ZM571.54 80.5662L569.447 81.5743L569.47 81.6216L569.495 81.6679L571.54 80.5662ZM577.086 86.5491L575.854 88.5196L575.872 88.5308L575.89 88.5417L577.086 86.5491ZM585.403 107.427C578.049 107.427 571.684 105.894 566.24 102.9L564 106.972C570.23 110.398 577.387 112.075 585.403 112.075V107.427ZM566.265 102.914C560.779 99.8048 556.453 95.5686 553.256 90.1791L549.258 92.5502C552.871 98.6401 557.787 103.451 563.974 106.957L566.265 102.914ZM553.27 90.2044C550.192 84.8618 548.619 78.6567 548.619 71.5189H543.972C543.972 79.3627 545.707 86.3881 549.244 92.5249L553.27 90.2044ZM548.619 71.5189C548.619 64.3693 550.148 58.1548 553.139 52.8075L549.083 50.5389C545.653 56.671 543.972 63.687 543.972 71.5189H548.619ZM553.124 52.8334C556.219 47.4641 560.481 43.291 565.948 40.2842L563.708 36.2121C557.501 39.626 552.619 44.403 549.098 50.513L553.124 52.8334ZM565.959 40.2779C571.513 37.1824 577.829 35.6105 584.966 35.6105V30.963C577.12 30.963 570.011 32.6987 563.697 36.2184L565.959 40.2779ZM584.966 35.6105C592.309 35.6105 598.664 37.1875 604.103 40.2699L606.395 36.2265C600.16 32.6936 592.993 30.963 584.966 30.963V35.6105ZM604.143 40.292C609.701 43.2984 613.948 47.4627 616.938 52.8075L620.994 50.5389C617.563 44.4043 612.666 39.6185 606.355 36.2043L604.143 40.292ZM616.953 52.8334C620.031 58.176 621.604 64.3811 621.604 71.5189H626.251C626.251 63.6751 624.516 56.6497 620.979 50.513L616.953 52.8334ZM621.604 71.5189C621.604 78.6567 620.031 84.8618 616.953 90.2044L620.979 92.5249C624.516 86.3881 626.251 79.3627 626.251 71.5189H621.604ZM616.938 90.2303C613.939 95.5913 609.724 99.8114 604.249 102.914L606.541 106.957C612.739 103.445 617.572 98.6174 620.994 92.499L616.938 90.2303ZM604.275 102.9C598.822 105.899 592.552 107.427 585.403 107.427V112.075C593.236 112.075 600.294 110.393 606.515 106.972L604.275 102.9ZM585.403 91.0617C588.729 91.0617 591.757 90.2237 594.407 88.4955L591.868 84.6027C590.043 85.793 587.914 86.4143 585.403 86.4143V91.0617ZM594.369 88.5196C597.076 86.8274 599.164 84.5063 600.615 81.6054L596.458 79.527C595.379 81.6848 593.868 83.3523 591.906 84.5786L594.369 88.5196ZM600.599 81.6359C602.157 78.632 602.903 75.2397 602.903 71.5189H598.256C598.256 74.6079 597.64 77.2471 596.474 79.4966L600.599 81.6359ZM602.903 71.5189C602.903 67.8006 602.158 64.4414 600.582 61.5158L596.491 63.7192C597.639 65.8524 598.256 68.4274 598.256 71.5189H602.903ZM600.63 61.6095C599.187 58.6113 597.099 56.2242 594.369 54.5182L591.906 58.4592C593.846 59.6717 595.357 61.3705 596.443 63.6256L600.63 61.6095ZM594.369 54.5182C591.63 52.8063 588.52 51.9761 585.111 51.9761V56.6236C587.735 56.6236 589.975 57.2526 591.906 58.4592L594.369 54.5182ZM585.111 51.9761C581.703 51.9761 578.593 52.8063 575.854 54.5182L578.317 58.4592C580.248 57.2526 582.488 56.6236 585.111 56.6236V51.9761ZM575.854 54.5182C573.14 56.2143 571.016 58.5805 569.478 61.5479L573.603 63.6872C574.789 61.4013 576.361 59.6816 578.317 58.4592L575.854 54.5182ZM569.462 61.5783C568.006 64.4897 567.32 67.826 567.32 71.5189H571.967C571.967 68.402 572.545 65.8041 573.619 63.6567L569.462 61.5783ZM567.32 71.5189C567.32 75.2145 568.007 78.5845 569.447 81.5743L573.634 79.5582C572.544 77.2946 571.967 74.6331 571.967 71.5189H567.32ZM569.495 81.6679C571.039 84.5366 573.162 86.837 575.854 88.5196L578.317 84.5786C576.34 83.3428 574.766 81.6545 573.586 79.4645L569.495 81.6679ZM575.89 88.5417C578.718 90.2384 581.911 91.0617 585.403 91.0617V86.4143C582.669 86.4143 580.317 85.7783 578.281 84.5565L575.89 88.5417ZM685.95 108L683.633 108.174L683.794 110.324H685.95V108ZM684.928 94.429H682.605V94.5164L682.611 94.6034L684.928 94.429ZM684.928 5.85295V3.52922H682.605V5.85295H684.928ZM707.693 5.85295H710.016V3.52922H707.693V5.85295ZM707.693 108V110.324H710.016V108H707.693ZM646.55 105.227L645.298 107.185L645.32 107.199L645.343 107.213L646.55 105.227ZM635.168 91.9483L633.055 92.9153L633.062 92.93L633.069 92.9446L635.168 91.9483ZM635.168 51.0895L633.069 50.0932L633.065 50.101L633.061 50.1088L635.168 51.0895ZM646.55 37.9563L647.775 39.9313L647.785 39.9247L646.55 37.9563ZM679.383 37.9563L677.975 39.8047L677.999 39.8233L678.024 39.8413L679.383 37.9563ZM688.722 51.0895L686.533 51.8687L686.537 51.8806L688.722 51.0895ZM688.722 91.9483L690.911 92.7275L688.722 91.9483ZM679.383 105.227L680.763 107.097L680.77 107.092L679.383 105.227ZM683.031 80.5662L685.11 81.6054L685.117 81.5899L685.125 81.5743L683.031 80.5662ZM683.031 62.6175L680.938 63.6256L680.945 63.6412L680.953 63.6567L683.031 62.6175ZM677.778 56.4887L676.509 58.4351V58.4351L677.778 56.4887ZM662.31 56.4887L663.579 58.4351V58.4351L662.31 56.4887ZM656.911 62.6175L654.848 61.5479L654.84 61.563L654.832 61.5783L656.911 62.6175ZM654.868 71.5189L652.545 71.4525L652.543 71.5189L652.545 71.5853L654.868 71.5189ZM656.911 80.5662L654.817 81.5743L654.84 81.6216L654.865 81.6679L656.911 80.5662ZM662.31 86.5491L661.041 88.4955L661.059 88.5078L661.078 88.5196L662.31 86.5491ZM688.267 107.826L687.245 94.2546L682.611 94.6034L683.633 108.174L688.267 107.826ZM687.252 94.429V5.85295H682.605V94.429H687.252ZM684.928 8.17668H707.693V3.52922H684.928V8.17668ZM705.369 5.85295V108H710.016V5.85295H705.369ZM707.693 105.676H685.95V110.324H707.693V105.676ZM664.207 107.427C657.748 107.427 652.296 106.001 647.757 103.242L645.343 107.213C650.727 110.486 657.046 112.075 664.207 112.075V107.427ZM647.803 103.27C643.342 100.415 639.824 96.3392 637.267 90.952L633.069 92.9446C635.96 99.0368 640.031 103.814 645.298 107.185L647.803 103.27ZM637.281 90.9814C634.823 85.6107 633.552 79.1457 633.552 71.5189H628.904C628.904 79.652 630.26 86.8066 633.055 92.9153L637.281 90.9814ZM633.552 71.5189C633.552 63.7885 634.825 57.3317 637.275 52.0702L633.061 50.1088C630.257 56.1321 628.904 63.295 628.904 71.5189H633.552ZM637.267 52.0858C639.822 46.7036 643.331 42.6862 647.775 39.9313L645.326 35.9814C640.041 39.258 635.962 43.996 633.069 50.0932L637.267 52.0858ZM647.785 39.9247C652.32 37.0795 657.762 35.6105 664.207 35.6105V30.963C657.033 30.963 650.703 32.607 645.315 35.988L647.785 39.9247ZM664.207 35.6105C669.822 35.6105 674.361 37.0514 677.975 39.8047L680.791 36.1079C676.233 32.6351 670.655 30.963 664.207 30.963V35.6105ZM678.024 39.8413C681.759 42.5341 684.619 46.4908 686.533 51.8687L690.911 50.3103C688.74 44.2088 685.373 39.41 680.742 36.0714L678.024 39.8413ZM686.537 51.8806C688.464 57.2012 689.463 63.7279 689.463 71.5189H694.11C694.11 63.3555 693.067 56.2626 690.907 50.2984L686.537 51.8806ZM689.463 71.5189C689.463 79.2072 688.465 85.7408 686.533 91.1691L690.911 92.7275C693.065 86.6765 694.11 79.5905 694.11 71.5189H689.463ZM686.533 91.1691C684.618 96.5504 681.752 100.568 677.996 103.363L680.77 107.092C685.381 103.66 688.741 98.8256 690.911 92.7275L686.533 91.1691ZM678.003 103.358C674.388 106.026 669.838 107.427 664.207 107.427V112.075C670.639 112.075 676.207 110.46 680.763 107.097L678.003 103.358ZM670.19 91.0617C673.435 91.0617 676.411 90.2151 679.047 88.4955L676.509 84.6027C674.67 85.8016 672.587 86.4143 670.19 86.4143V91.0617ZM679.047 88.4955C681.651 86.7977 683.672 84.4811 685.11 81.6054L680.953 79.527C679.861 81.71 678.38 83.3821 676.509 84.6027L679.047 88.4955ZM685.125 81.5743C686.564 78.5845 687.252 75.2145 687.252 71.5189H682.605C682.605 74.6331 682.027 77.2947 680.938 79.5582L685.125 81.5743ZM687.252 71.5189C687.252 67.826 686.565 64.4897 685.11 61.5783L680.953 63.6567C682.027 65.8041 682.605 68.402 682.605 71.5189H687.252ZM685.125 61.6095C683.694 58.6368 681.672 56.2542 679.047 54.5423L676.509 58.4351C678.359 59.6417 679.84 61.345 680.938 63.6256L685.125 61.6095ZM679.047 54.5423C676.398 52.8141 673.37 51.9761 670.044 51.9761V56.6236C672.555 56.6236 674.683 57.2448 676.509 58.4351L679.047 54.5423ZM670.044 51.9761C666.718 51.9761 663.69 52.8141 661.041 54.5423L663.579 58.4351C665.405 57.2448 667.533 56.6236 670.044 56.6236V51.9761ZM661.041 54.5423C658.432 56.2434 656.374 58.6046 654.848 61.5479L658.974 63.6872C660.172 61.3771 661.713 59.6525 663.579 58.4351L661.041 54.5423ZM654.832 61.5783C653.389 64.4658 652.65 67.7775 652.545 71.4525L657.191 71.5853C657.28 68.4505 657.904 65.828 658.989 63.6567L654.832 61.5783ZM652.545 71.5853C652.65 75.2622 653.389 78.6079 654.817 81.5743L659.005 79.5582C657.903 77.2713 657.28 74.5854 657.191 71.4525L652.545 71.5853ZM654.865 81.6679C656.397 84.5128 658.453 86.8082 661.041 88.4955L663.579 84.6027C661.692 83.3716 660.149 81.6784 658.957 79.4645L654.865 81.6679ZM661.078 88.5196C663.805 90.2238 666.863 91.0617 670.19 91.0617V86.4143C667.68 86.4143 665.485 85.793 663.542 84.5786L661.078 88.5196ZM765.859 108L763.538 108.107L763.641 110.324H765.859V108ZM765.13 92.2402H762.806V92.2939L762.808 92.3476L765.13 92.2402ZM764.108 61.4501L761.83 61.9059L761.837 61.9421L761.845 61.9781L764.108 61.4501ZM760.46 54.7376L758.865 56.427L758.913 56.4724L758.963 56.5151L760.46 54.7376ZM740.323 59.2613L739.597 61.4689L741.258 62.0144L742.242 60.5703L740.323 59.2613ZM720.331 52.6947L718.241 51.6781L717.077 54.0717L719.606 54.9024L720.331 52.6947ZM727.189 42.9177L725.546 41.2746L725.532 41.2885L725.519 41.3027L727.189 42.9177ZM737.842 35.9134L736.945 33.7699L737.842 35.9134ZM771.696 37.5185L770.597 39.5657L771.696 37.5185ZM783.516 49.3384L781.454 50.4092V50.4092L783.516 49.3384ZM787.456 67.2871L789.78 67.3038L789.78 67.2954V67.2871H787.456ZM787.164 108V110.324H789.471L789.488 108.017L787.164 108ZM725.876 104.06L724.407 105.86L724.418 105.869L724.429 105.878L725.876 104.06ZM726.168 70.2056L727.579 72.0515L726.168 70.2056ZM767.027 64.5145H769.35V62.1908H767.027V64.5145ZM767.027 79.2529V81.5766H769.35V79.2529H767.027ZM745.138 81.2958L746.32 83.2964L746.353 83.2769L746.386 83.2563L745.138 81.2958ZM744.263 91.0728L742.946 92.9876L743.014 93.0341L743.084 93.0757L744.263 91.0728ZM758.271 90.7809L759.424 92.7985L759.439 92.7901L759.453 92.7815L758.271 90.7809ZM763.233 85.8195L761.257 84.5964L761.235 84.6311L761.215 84.6666L763.233 85.8195ZM765.13 79.2529V76.9292H762.806V79.2529H765.13ZM770.967 79.2529H773.29V76.9292H770.967V79.2529ZM764.692 101.725L762.861 100.294L762.853 100.304L762.845 100.315L764.692 101.725ZM768.181 107.893L767.451 92.1327L762.808 92.3476L763.538 108.107L768.181 107.893ZM767.453 92.2402V71.6648H762.806V92.2402H767.453ZM767.453 71.6648C767.453 67.6454 767.102 64.0562 766.371 60.9221L761.845 61.9781C762.476 64.6811 762.806 67.9016 762.806 71.6648H767.453ZM766.387 60.9944C765.724 57.6825 764.295 54.9287 761.957 52.9602L758.963 56.5151C760.322 57.6595 761.325 59.3808 761.83 61.9059L766.387 60.9944ZM762.056 53.0482C759.723 50.8447 756.478 49.9332 752.726 49.9332V54.5806C755.784 54.5806 757.695 55.3229 758.865 56.427L762.056 53.0482ZM752.726 49.9332C749.629 49.9332 746.81 50.6567 744.353 52.1781L746.799 56.1297C748.427 55.1217 750.375 54.5806 752.726 54.5806V49.9332ZM744.353 52.1781C742.012 53.6269 740.03 55.5647 738.403 57.9522L742.242 60.5703C743.533 58.6774 745.053 57.2103 746.799 56.1297L744.353 52.1781ZM741.048 57.0536L721.056 50.487L719.606 54.9024L739.597 61.4689L741.048 57.0536ZM722.42 53.7112C724.063 50.3352 726.207 47.2776 728.86 44.5328L725.519 41.3027C722.53 44.3948 720.101 47.8552 718.241 51.6781L722.42 53.7112ZM728.832 44.5609C731.517 41.8763 734.807 39.7028 738.739 38.0569L736.945 33.7699C732.51 35.6261 728.699 38.1222 725.546 41.2746L728.832 44.5609ZM738.739 38.0569C742.582 36.4481 747.13 35.6105 752.434 35.6105V30.963C746.648 30.963 741.468 31.8765 736.945 33.7699L738.739 38.0569ZM752.434 35.6105C759.741 35.6105 765.761 36.9689 770.597 39.5657L772.796 35.4713C767.125 32.4258 760.304 30.963 752.434 30.963V35.6105ZM770.597 39.5657C775.458 42.1765 779.053 45.7852 781.454 50.4092L785.578 48.2676C782.726 42.7742 778.441 38.5029 772.796 35.4713L770.597 39.5657ZM781.454 50.4092C783.876 55.0741 785.132 60.6747 785.132 67.2871H789.78C789.78 60.0854 788.41 53.7201 785.578 48.2676L781.454 50.4092ZM785.132 67.2704L784.841 107.983L789.488 108.017L789.78 67.3038L785.132 67.2704ZM787.164 105.676H765.859V110.324H787.164V105.676ZM745.868 107.427C737.623 107.427 731.541 105.599 727.323 102.242L724.429 105.878C729.745 110.11 736.99 112.075 745.868 112.075V107.427ZM727.346 102.26C723.214 98.8873 721.049 94.0581 721.049 87.4247H716.402C716.402 95.1891 719.004 101.45 724.407 105.86L727.346 102.26ZM721.049 87.4247C721.049 80.2777 723.326 75.3043 727.579 72.0515L724.756 68.3597C719.087 72.6949 716.402 79.2009 716.402 87.4247H721.049ZM727.579 72.0515C731.993 68.6762 738.381 66.8383 747.035 66.8383V62.1908C737.789 62.1908 730.265 64.1469 724.756 68.3597L727.579 72.0515ZM747.035 66.8383H767.027V62.1908H747.035V66.8383ZM764.703 64.5145V79.2529H769.35V64.5145H764.703ZM767.027 76.9292H755.499V81.5766H767.027V76.9292ZM755.499 76.9292C750.619 76.9292 746.608 77.6061 743.891 79.3354L746.386 83.2563C747.949 82.2617 750.844 81.5766 755.499 81.5766V76.9292ZM743.956 79.2953C741.128 80.9666 739.604 83.5649 739.604 86.841H744.251C744.251 85.2529 744.868 84.1544 746.32 83.2964L743.956 79.2953ZM739.604 86.841C739.604 89.4256 740.818 91.5242 742.946 92.9876L745.579 89.1579C744.594 88.4811 744.251 87.7585 744.251 86.841H739.604ZM743.084 93.0757C745.225 94.3348 747.922 94.8558 750.975 94.8558V90.2083C748.386 90.2083 746.608 89.7564 745.441 89.0699L743.084 93.0757ZM750.975 94.8558C754.12 94.8558 756.966 94.203 759.424 92.7985L757.118 88.7634C755.49 89.6936 753.472 90.2083 750.975 90.2083V94.8558ZM759.453 92.7815C761.921 91.3236 763.871 89.3856 765.25 86.9724L761.215 84.6666C760.259 86.3393 758.902 87.7089 757.089 88.7804L759.453 92.7815ZM765.208 87.0426C766.694 84.6435 767.453 82.0329 767.453 79.2529H762.806C762.806 81.1425 762.301 82.9096 761.257 84.5964L765.208 87.0426ZM765.13 81.5766H770.967V76.9292H765.13V81.5766ZM768.643 79.2529C768.643 88.5768 766.615 95.4924 762.861 100.294L766.523 103.156C771.135 97.257 773.29 89.191 773.29 79.2529H768.643ZM762.845 100.315C759.31 104.944 753.812 107.427 745.868 107.427V112.075C754.85 112.075 761.902 109.208 766.539 103.136L762.845 100.315ZM807.366 137.185L806.612 139.383L806.621 139.386L806.631 139.389L807.366 137.185ZM798.756 133.391L796.642 132.426L795.769 134.338L797.585 135.398L798.756 133.391ZM807.22 114.858L808.57 112.968L806.277 111.329L805.106 113.893L807.22 114.858ZM811.16 117.047L810.326 119.216L810.352 119.226L810.378 119.236L811.16 117.047ZM819.769 116.318L818.574 114.325L818.526 114.354L818.48 114.384L819.769 116.318ZM823.271 111.94L825.407 112.855L825.41 112.848L823.271 111.94ZM831.881 91.6565L834.02 92.5644L834.038 92.5224L834.054 92.4798L831.881 91.6565ZM853.332 35.0378V32.7141H851.727L851.159 34.2145L853.332 35.0378ZM878.577 35.0378L880.721 35.9321L882.063 32.7141H878.577V35.0378ZM846.327 112.378L844.183 111.483L844.179 111.492L844.175 111.501L846.327 112.378ZM839.615 126.241L837.609 125.067L839.615 126.241ZM830.859 135.58L829.608 133.622L829.596 133.63L829.583 133.638L830.859 135.58ZM825.898 108L823.793 108.985L824.42 110.324H825.898V108ZM791.752 35.0378V32.7141H788.099L789.647 36.0228L791.752 35.0378ZM816.997 35.0378L819.151 34.1662L818.563 32.7141H816.997V35.0378ZM839.907 91.6565L837.753 92.5281L837.778 92.59L837.806 92.6504L839.907 91.6565ZM847.641 108V110.324H851.311L849.741 107.006L847.641 108ZM817.289 136.612C814.467 136.612 811.409 136.083 808.1 134.98L806.631 139.389C810.327 140.621 813.884 141.26 817.289 141.26V136.612ZM808.119 134.987C804.815 133.854 802.094 132.648 799.927 131.384L797.585 135.398C800.088 136.858 803.107 138.181 806.612 139.383L808.119 134.987ZM800.87 134.356L809.333 115.824L805.106 113.893L796.642 132.426L800.87 134.356ZM805.869 116.749C807.355 117.811 808.841 118.645 810.326 119.216L811.994 114.878C810.949 114.477 809.808 113.852 808.57 112.968L805.869 116.749ZM810.378 119.236C811.909 119.782 813.396 120.101 814.808 120.101V115.453C814.079 115.453 813.135 115.285 811.941 114.859L810.378 119.236ZM814.808 120.101C817.089 120.101 819.196 119.493 821.058 118.251L818.48 114.384C817.424 115.088 816.224 115.453 814.808 115.453V120.101ZM820.965 118.31C822.955 117.116 824.398 115.21 825.407 112.855L821.136 111.025C820.394 112.755 819.502 113.768 818.574 114.325L820.965 118.31ZM825.41 112.848L834.02 92.5644L829.742 90.7485L821.132 111.032L825.41 112.848ZM834.054 92.4798L855.505 35.8611L851.159 34.2145L829.708 90.8332L834.054 92.4798ZM853.332 37.3616H878.577V32.7141H853.332V37.3616ZM876.432 34.1435L844.183 111.483L848.472 113.272L880.721 35.9321L876.432 34.1435ZM844.175 111.501C842.068 116.674 839.878 121.192 837.609 125.067L841.62 127.414C844.022 123.312 846.306 118.588 848.479 113.254L844.175 111.501ZM837.609 125.067C835.439 128.774 832.767 131.603 829.608 133.622L832.111 137.538C835.956 135.081 839.121 131.684 841.62 127.414L837.609 125.067ZM829.583 133.638C826.677 135.547 822.646 136.612 817.289 136.612V141.26C823.216 141.26 828.232 140.087 832.136 137.522L829.583 133.638ZM828.003 107.015L793.856 34.0528L789.647 36.0228L823.793 108.985L828.003 107.015ZM791.752 37.3616H816.997V32.7141H791.752V37.3616ZM814.843 35.9094L837.753 92.5281L842.061 90.7849L819.151 34.1662L814.843 35.9094ZM837.806 92.6504L845.54 108.994L849.741 107.006L842.007 90.6625L837.806 92.6504ZM847.641 105.676H825.898V110.324H847.641V105.676Z" fill="#FFC107" fill-opacity="0.4" mask="url(#path-1-outside-1_293_356)"/>
</svg>
