<svg width="98" height="98" viewBox="0 0 98 98" fill="none" xmlns="http://www.w3.org/2000/svg">
<path d="M48.5561 65.3902C72.8424 65.3902 92.5304 55.2068 92.5304 42.6449C92.5304 30.083 72.8424 19.8995 48.5561 19.8995C24.2697 19.8995 4.58176 30.083 4.58176 42.6449C4.58176 55.2068 24.2697 65.3902 48.5561 65.3902Z" fill="#FFC107"/>
<path d="M56.0362 56.2921C40.3116 56.2921 25.9502 49.6004 14.9203 38.575C25.4286 30.4626 38.3135 26.0316 51.5888 25.965C66.0955 26.069 80.0899 31.3422 91.058 40.8374C80.3222 27.9362 65.2587 19.8995 48.5561 19.8995C31.0816 19.8995 15.3873 28.6944 4.58176 42.6449C15.3873 56.5953 31.0816 65.3902 48.5561 65.3902C65.8607 65.3902 81.4124 56.7621 92.2074 43.0406C82.0529 51.5205 69.2655 56.2052 56.0362 56.2921Z" fill="#F7DC6F"/>
<path d="M71.3014 42.6449C71.3065 38.7665 70.3199 34.9513 68.4352 31.5616C66.5506 28.1719 63.8304 25.3205 60.5333 23.2782C57.2362 21.2359 53.4717 20.0707 49.5974 19.8931C45.7231 19.7156 41.8677 20.5316 38.3976 22.2638C34.9275 23.9959 31.958 26.5866 29.7712 29.7897C27.5844 32.9927 26.2529 36.7018 25.9033 40.5644C25.5538 44.427 26.1976 48.3148 27.7738 51.8584C29.35 55.4021 31.8062 58.4838 34.9089 60.8108V65.3902H62.2033V60.8108C65.0273 58.6983 67.3199 55.9565 68.8992 52.8031C70.4786 49.6498 71.301 46.1717 71.3014 42.6449Z" fill="#34C759"/>
<path d="M63.7196 65.3903H33.3925C31.7176 65.3903 30.3598 66.748 30.3598 68.423C30.3598 70.0979 31.7176 71.4557 33.3925 71.4557H63.7196C65.3945 71.4557 66.7523 70.0979 66.7523 68.423C66.7523 66.748 65.3945 65.3903 63.7196 65.3903Z" fill="#D0D8DA"/>
<path d="M63.7196 71.4557H33.3925C31.7176 71.4557 30.3598 72.8135 30.3598 74.4884C30.3598 76.1633 31.7176 77.5211 33.3925 77.5211H63.7196C65.3945 77.5211 66.7523 76.1633 66.7523 74.4884C66.7523 72.8135 65.3945 71.4557 63.7196 71.4557Z" fill="#D0D8DA"/>
<path d="M34.9089 77.5211H62.2033V79.0375C62.2033 82.6569 60.7654 86.1282 58.2061 88.6875C55.6467 91.2468 52.1755 92.6847 48.5561 92.6847C44.9366 92.6847 41.4654 91.2468 38.906 88.6875C36.3467 86.1282 34.9089 82.6569 34.9089 79.0375V77.5211Z" fill="#93999A"/>
<path d="M65.236 57.8085C57.1927 57.8085 49.4789 54.6133 43.7915 48.9259C38.104 43.2384 34.9089 35.5246 34.9089 27.4814C34.909 26.4391 34.9621 25.3976 35.0681 24.3607C32.2119 26.4582 29.8868 29.1956 28.2792 32.3535C26.6716 35.5115 25.8262 39.0021 25.8107 42.5457C25.7953 46.0893 26.6102 49.5872 28.1901 52.759C29.7701 55.9309 32.0711 58.6885 34.9089 60.8109V65.3903H62.2033V60.8109C63.3796 59.9131 64.4668 58.9041 65.4498 57.7979C65.377 57.7979 65.3072 57.8085 65.236 57.8085Z" fill="#34C759"/>
<path d="M48.5561 53.2594C54.4183 53.2594 59.1705 48.5071 59.1705 42.6449C59.1705 36.7827 54.4183 32.0304 48.5561 32.0304C42.6938 32.0304 37.9416 36.7827 37.9416 42.6449C37.9416 48.5071 42.6938 53.2594 48.5561 53.2594Z" fill="#F7DC6F"/>
<path d="M54.6215 41.1285C57.1339 41.1285 59.1705 39.0918 59.1705 36.5795C59.1705 34.0671 57.1339 32.0304 54.6215 32.0304C52.1091 32.0304 50.0724 34.0671 50.0724 36.5795C50.0724 39.0918 52.1091 41.1285 54.6215 41.1285Z" fill="#F7DC6F" fill-opacity="0.2"/>
<path d="M38.0932 40.9435C37.8356 42.4618 37.9134 44.0182 38.3213 45.5033C38.7292 46.9883 39.4573 48.3661 40.4544 49.5398C41.4515 50.7135 42.6935 51.6547 44.0931 52.2972C45.4927 52.9398 47.016 53.2682 48.5561 53.2593C48.7926 53.2593 49.0261 53.2396 49.2597 53.2244C44.4709 50.2452 40.6048 45.9932 38.0932 40.9435Z" fill="#4891D3"/>
<path d="M34.9089 65.3903H33.3925C32.5882 65.3903 31.8168 65.7098 31.2481 66.2785C30.6793 66.8473 30.3598 67.6186 30.3598 68.423C30.3598 69.2273 30.6793 69.9987 31.2481 70.5674C31.8168 71.1362 32.5882 71.4557 33.3925 71.4557H63.7196C64.5239 71.4557 65.2953 71.1362 65.8641 70.5674C66.4328 69.9987 66.7523 69.2273 66.7523 68.423H37.9416C37.1372 68.423 36.3659 68.1035 35.7971 67.5347C35.2284 66.966 34.9089 66.1946 34.9089 65.3903Z" fill="#93999A"/>
<path d="M34.9089 71.4557H33.3925C32.5882 71.4557 31.8168 71.7752 31.2481 72.3439C30.6793 72.9127 30.3598 73.6841 30.3598 74.4884C30.3598 75.2927 30.6793 76.0641 31.2481 76.6329C31.8168 77.2016 32.5882 77.5211 33.3925 77.5211H63.7196C64.5239 77.5211 65.2953 77.2016 65.8641 76.6329C66.4328 76.0641 66.7523 75.2927 66.7523 74.4884H37.9416C37.1372 74.4884 36.3659 74.1689 35.7971 73.6001C35.2284 73.0314 34.9089 72.26 34.9089 71.4557Z" fill="#93999A"/>
<path d="M53.1051 83.5865H61.4102C61.9323 82.1266 62.2005 80.588 62.2033 79.0375V77.5211H34.9089V79.0375C34.9104 81.8649 35.7905 84.6219 37.4275 86.9272C39.0645 89.2324 41.3775 90.972 44.0464 91.9053C44.2415 89.6366 45.2801 87.5236 46.9573 85.9834C48.6344 84.4433 50.8281 83.588 53.1051 83.5865Z" fill="#656B76"/>
<path d="M57.4464 13.0091C57.5883 13.0509 57.7353 13.0724 57.8832 13.0728C58.2091 13.0725 58.5263 12.9672 58.7877 12.7724C59.0491 12.5777 59.2408 12.3039 59.3343 11.9916L61.0963 6.12487C61.1535 5.9341 61.1725 5.73394 61.1523 5.53583C61.1321 5.33771 61.073 5.14551 60.9786 4.97021C60.8841 4.79491 60.756 4.63993 60.6016 4.51412C60.4472 4.38832 60.2696 4.29416 60.0788 4.23701C59.8881 4.17986 59.6879 4.16084 59.4898 4.18104C59.2917 4.20125 59.0995 4.26027 58.9242 4.35475C58.7489 4.44923 58.5939 4.57732 58.4681 4.73169C58.3423 4.88607 58.2481 5.06371 58.191 5.25448L56.429 11.1213C56.3718 11.312 56.3528 11.5122 56.373 11.7103C56.3932 11.9084 56.4522 12.1006 56.5467 12.2759C56.6412 12.4512 56.7692 12.6062 56.9236 12.732C57.078 12.8578 57.2557 12.952 57.4464 13.0091Z" fill="#323232"/>
<path d="M67.4438 15.4354C67.7969 15.6275 68.2119 15.6716 68.5974 15.5578C68.983 15.4441 69.3076 15.1819 69.5 14.8289L72.4356 9.42157C72.5307 9.24653 72.5904 9.05448 72.6112 8.85638C72.6321 8.65828 72.6137 8.45802 72.5572 8.26701C72.5007 8.07601 72.4071 7.89801 72.2817 7.74318C72.1564 7.58835 72.0018 7.45972 71.8268 7.36463C71.6518 7.26955 71.4597 7.20987 71.2616 7.18901C71.0635 7.16814 70.8632 7.1865 70.6722 7.24304C70.4812 7.29957 70.3032 7.39317 70.1484 7.5185C69.9936 7.64382 69.8649 7.79841 69.7699 7.97345L66.8342 13.3793C66.7392 13.5543 66.6796 13.7463 66.6588 13.9444C66.638 14.1424 66.6565 14.3427 66.7131 14.5336C66.7697 14.7245 66.8634 14.9025 66.9887 15.0572C67.1141 15.2119 67.2687 15.3405 67.4438 15.4354Z" fill="#323232"/>
<path d="M78.7968 20.3801C79.0176 20.3803 79.2359 20.3322 79.4363 20.2393C79.6367 20.1463 79.8143 20.0106 79.9568 19.8418L83.9433 15.1078C84.0746 14.9559 84.1744 14.7795 84.2371 14.5888C84.2997 14.3981 84.3238 14.1968 84.308 13.9967C84.2922 13.7966 84.2369 13.6016 84.1452 13.423C84.0535 13.2445 83.9272 13.0859 83.7737 12.9565C83.6202 12.8271 83.4426 12.7295 83.2511 12.6693C83.0596 12.6091 82.858 12.5875 82.6581 12.6058C82.4582 12.6241 82.2639 12.6819 82.0866 12.7759C81.9092 12.8698 81.7522 12.9981 81.6248 13.1532L77.6383 17.8873C77.4523 18.1081 77.3333 18.3775 77.2952 18.6637C77.2571 18.9499 77.3015 19.241 77.4232 19.5028C77.5449 19.7647 77.7388 19.9863 77.9821 20.1417C78.2254 20.2971 78.508 20.3798 78.7968 20.3801Z" fill="#323232"/>
<path d="M88.045 27.9135C88.4016 27.9135 88.7469 27.7879 89.02 27.5586L93.7207 23.6161C94.0192 23.3549 94.2035 22.9871 94.234 22.5916C94.2645 22.1961 94.1389 21.8044 93.8839 21.5005C93.629 21.1966 93.2652 21.0047 92.8704 20.9659C92.4756 20.9271 92.0814 21.0446 91.7722 21.2931L87.0715 25.2356C86.8337 25.4358 86.6632 25.7042 86.583 26.0045C86.5029 26.3049 86.5169 26.6226 86.6233 26.9146C86.7297 27.2067 86.9233 27.459 87.1779 27.6374C87.4324 27.8158 87.7357 27.9116 88.0465 27.912L88.045 27.9135Z" fill="#323232"/>
<path d="M17.1554 19.842C17.2828 19.9971 17.4398 20.1253 17.6172 20.2193C17.7946 20.3133 17.9889 20.3711 18.1888 20.3894C18.3887 20.4077 18.5902 20.3861 18.7817 20.3259C18.9732 20.2657 19.1509 20.1681 19.3044 20.0387C19.4578 19.9093 19.5841 19.7507 19.6758 19.5721C19.7675 19.3936 19.8229 19.1986 19.8387 18.9985C19.8544 18.7983 19.8303 18.5971 19.7677 18.4063C19.7051 18.2156 19.6052 18.0392 19.4739 17.8874L15.4874 13.1533C15.2265 12.8517 14.8572 12.6649 14.4596 12.6336C14.062 12.6023 13.6681 12.7288 13.3631 12.9859C13.0582 13.243 12.8668 13.6099 12.8304 14.007C12.7941 14.4042 12.9157 14.7998 13.1689 15.1079L17.1554 19.842Z" fill="#323232"/>
<path d="M27.6122 14.8258C27.7072 15.0009 27.8357 15.1555 27.9904 15.2809C28.1452 15.4062 28.3231 15.4999 28.514 15.5565C28.7049 15.6131 28.9052 15.6315 29.1032 15.6108C29.3013 15.59 29.4933 15.5304 29.6684 15.4354C29.8434 15.3404 29.998 15.2119 30.1234 15.0572C30.2487 14.9024 30.3424 14.7245 30.399 14.5336C30.4556 14.3426 30.474 14.1424 30.4533 13.9444C30.4325 13.7463 30.3729 13.5543 30.2779 13.3792L27.3423 7.9704C27.1502 7.6169 26.8256 7.35416 26.4399 7.23999C26.0541 7.12581 25.6388 7.16955 25.2853 7.36158C24.9318 7.55362 24.6691 7.87821 24.5549 8.26396C24.4407 8.64971 24.4845 9.06502 24.6765 9.41852L27.6122 14.8258Z" fill="#323232"/>
<path d="M8.14064 27.5965C8.29742 27.7258 8.47856 27.8221 8.67332 27.88C8.86807 27.9378 9.07246 27.9559 9.27436 27.9333C9.47625 27.9106 9.67152 27.8476 9.84859 27.7479C10.0256 27.6483 10.1809 27.5141 10.3051 27.3533C10.4293 27.1926 10.5199 27.0085 10.5716 26.812C10.6232 26.6155 10.6349 26.4106 10.6058 26.2096C10.5768 26.0085 10.5076 25.8153 10.4024 25.6415C10.2973 25.4676 10.1583 25.3167 9.99363 25.1977L5.50825 21.7328C5.35147 21.6036 5.17032 21.5072 4.97557 21.4494C4.78082 21.3915 4.57642 21.3734 4.37453 21.3961C4.17264 21.4188 3.97736 21.4818 3.8003 21.5814C3.62324 21.681 3.468 21.8152 3.34381 21.976C3.21961 22.1368 3.12899 22.3209 3.07733 22.5174C3.02567 22.7138 3.01402 22.9187 3.04307 23.1198C3.07212 23.3209 3.14128 23.514 3.24645 23.6879C3.35161 23.8617 3.49064 24.0126 3.65526 24.1317L8.14064 27.5965Z" fill="#323232"/>
<path d="M37.7778 11.9916C37.8714 12.3039 38.063 12.5777 38.3244 12.7724C38.5858 12.9672 38.903 13.0725 39.229 13.0728C39.3768 13.0724 39.5238 13.0509 39.6657 13.0091C39.8564 12.952 40.0341 12.8578 40.1885 12.732C40.3429 12.6062 40.4709 12.4512 40.5654 12.2759C40.6599 12.1006 40.7189 11.9084 40.7391 11.7103C40.7593 11.5122 40.7403 11.312 40.6831 11.1213L38.9211 5.25448C38.864 5.06371 38.7698 4.88607 38.644 4.73169C38.5182 4.57732 38.3632 4.44923 38.1879 4.35475C38.0126 4.26027 37.8204 4.20125 37.6223 4.18104C37.4242 4.16084 37.224 4.17986 37.0333 4.23701C36.8425 4.29416 36.6649 4.38832 36.5105 4.51412C36.3561 4.63993 36.228 4.79491 36.1335 4.97021C36.0391 5.14551 35.98 5.33771 35.9598 5.53583C35.9396 5.73394 35.9586 5.9341 36.0158 6.12487L37.7778 11.9916Z" fill="#323232"/>
<path d="M48.5561 12.3177C48.9582 12.3177 49.3439 12.158 49.6283 11.8736C49.9127 11.5892 50.0724 11.2035 50.0724 10.8014V4.73596C50.0724 4.3338 49.9127 3.94811 49.6283 3.66373C49.3439 3.37936 48.9582 3.2196 48.5561 3.2196C48.1539 3.2196 47.7682 3.37936 47.4838 3.66373C47.1995 3.94811 47.0397 4.3338 47.0397 4.73596V10.8014C47.0397 11.2035 47.1995 11.5892 47.4838 11.8736C47.7682 12.158 48.1539 12.3177 48.5561 12.3177Z" fill="#323232"/>
<path d="M27.9443 59.4203C19.5751 55.6011 12.2307 49.8521 6.51361 42.6449C9.42728 39.0057 12.7474 35.7115 16.4093 32.8265C16.7258 32.5781 16.9307 32.2142 16.9789 31.8148C17.0271 31.4154 16.9147 31.0132 16.6664 30.6967C16.418 30.3802 16.0541 30.1753 15.6547 30.1271C15.2553 30.0789 14.8531 30.1914 14.5366 30.4397C10.3699 33.7264 6.6241 37.5139 3.38385 41.7168C3.17827 41.9825 3.06672 42.3089 3.06672 42.6449C3.06672 42.9808 3.17827 43.3072 3.38385 43.5729C9.51181 51.6007 17.5233 57.9951 26.7099 62.1907C27.0773 62.3544 27.4947 62.3654 27.8702 62.2214C28.2457 62.0773 28.5486 61.79 28.7123 61.4226C28.876 61.0553 28.887 60.6379 28.743 60.2624C28.5989 59.8869 28.3116 59.584 27.9443 59.4203Z" fill="#323232"/>
<path d="M93.7298 43.5729C93.9354 43.3072 94.0469 42.9808 94.0469 42.6449C94.0469 42.3089 93.9354 41.9825 93.7298 41.7169C82.2479 26.8869 65.7818 18.3832 48.5561 18.3832C38.1603 18.4252 27.9943 21.4451 19.2616 27.0855C18.9226 27.3019 18.6834 27.6441 18.5966 28.0368C18.5099 28.4295 18.5827 28.8406 18.7991 29.1796C19.0155 29.5187 19.3576 29.7578 19.7504 29.8446C20.1431 29.9313 20.5542 29.8585 20.8932 29.6421C24.7416 27.1875 28.8921 25.2425 33.2409 23.8557C30.4344 26.1357 28.1744 29.0154 26.6269 32.2834C25.0794 35.5513 24.2837 39.1245 24.2982 42.7403C24.3128 46.3561 25.1372 49.9227 26.711 53.1781C28.2847 56.4335 30.5678 59.295 33.3925 61.5523V63.8738C32.186 63.8738 31.0289 64.3531 30.1758 65.2062C29.3227 66.0593 28.8434 67.2164 28.8434 68.4229C28.8434 69.6294 29.3227 70.7865 30.1758 71.6396C31.0289 72.4927 32.186 72.972 33.3925 72.972H63.7196C64.1218 72.972 64.5075 73.1317 64.7918 73.4161C65.0762 73.7005 65.236 74.0862 65.236 74.4883C65.236 74.8905 65.0762 75.2762 64.7918 75.5605C64.5075 75.8449 64.1218 76.0047 63.7196 76.0047H33.3925C32.9903 76.0047 32.6046 76.1644 32.3203 76.4488C32.0359 76.7332 31.8761 77.1189 31.8761 77.521C31.8761 77.9232 32.0359 78.3089 32.3203 78.5933C32.6046 78.8776 32.9903 79.0374 33.3925 79.0374C33.3925 83.059 34.9901 86.9159 37.8338 89.7596C40.6775 92.6034 44.5344 94.2009 48.5561 94.2009C52.5777 94.2009 56.4346 92.6034 59.2783 89.7596C62.122 86.9159 63.7196 83.059 63.7196 79.0374C64.5994 79.0413 65.4613 78.7888 66.2001 78.3109C66.9388 77.833 67.5223 77.1502 67.8793 76.3461C68.2363 75.5419 68.3514 74.6512 68.2105 73.7828C68.0697 72.9143 67.6789 72.1056 67.0859 71.4556C67.6789 70.8056 68.0697 69.9969 68.2105 69.1285C68.3514 68.26 68.2363 67.3693 67.8793 66.5651C67.5223 65.761 66.9388 65.0783 66.2001 64.6003C65.4613 64.1224 64.5994 63.8699 63.7196 63.8738V61.5523C66.5663 59.2931 68.8639 56.4181 70.4397 53.1433C72.0155 49.8685 72.8286 46.2791 72.8177 42.6449C72.8141 40.9029 72.624 39.1664 72.2506 37.465C72.2099 37.2688 72.1307 37.0825 72.0176 36.9171C71.9044 36.7517 71.7596 36.6103 71.5915 36.5012C71.4234 36.392 71.2354 36.3173 71.0382 36.2813C70.841 36.2453 70.6387 36.2488 70.4429 36.2915C70.2471 36.3342 70.0616 36.4152 69.8974 36.53C69.7331 36.6448 69.5932 36.791 69.4857 36.9602C69.3783 37.1294 69.3055 37.3183 69.2715 37.5158C69.2375 37.7133 69.243 37.9156 69.2877 38.111C69.6151 39.6001 69.7818 41.1201 69.785 42.6449C69.7937 45.938 69.03 49.1873 67.5553 52.1318C66.0805 55.0763 63.9358 57.6339 61.2934 59.5992C61.1051 59.7405 60.9523 59.9236 60.847 60.1342C60.7417 60.3447 60.6869 60.5769 60.6869 60.8123V63.8738H54.6215V53.138C57.1081 51.7106 59.0058 49.4451 59.9753 46.7468C60.9449 44.0485 60.923 41.0933 59.9136 38.4097C59.8139 38.1433 59.6413 37.9104 59.4155 37.7374C59.1898 37.5645 58.9199 37.4585 58.6368 37.4316C58.3536 37.4024 58.0679 37.4544 57.8132 37.5814C57.5584 37.7083 57.3449 37.9052 57.1978 38.1489C56.9314 38.5946 56.5541 38.9638 56.1026 39.2202C55.6511 39.4767 55.1408 39.6117 54.6215 39.6122C53.8172 39.6122 53.0458 39.2926 52.477 38.7239C51.9083 38.1551 51.5888 37.3838 51.5888 36.5794C51.5888 36.0601 51.7234 35.5495 51.9796 35.0977C52.2358 34.6459 52.6048 34.2683 53.0505 34.0016C53.2931 33.8533 53.4891 33.6397 53.6161 33.3854C53.7431 33.131 53.7961 32.846 53.7689 32.5629C53.7417 32.2799 53.6354 32.0102 53.4623 31.7847C53.2892 31.5591 53.0561 31.3868 52.7897 31.2874C50.956 30.5977 48.9822 30.3634 47.038 30.6047C45.0938 30.846 43.2372 31.5556 41.6277 32.6727C40.0182 33.7897 38.7039 35.2808 37.7977 37.0177C36.8915 38.7547 36.4206 40.6857 36.4252 42.6449C36.4336 44.7709 36.9978 46.8578 38.0618 48.6985C39.1258 50.5391 40.6525 52.0696 42.4906 53.138V63.8738H36.4252V60.8093C36.4252 60.5739 36.3704 60.3417 36.2651 60.1311C36.1599 59.9206 36.007 59.7374 35.8187 59.5962C33.2755 57.6837 31.1951 55.2236 29.7315 52.398C28.268 49.5725 27.4588 46.4539 27.3638 43.2733C27.2689 40.0926 27.8907 36.9314 29.1831 34.0236C30.4755 31.1158 32.4055 28.536 34.8301 26.4752C37.2547 24.4144 40.1118 22.9254 43.1899 22.1185C46.2679 21.3115 49.4881 21.2074 52.6119 21.8136C55.7357 22.4199 58.683 23.7211 61.2358 25.6209C63.7885 27.5207 65.8812 29.9704 67.3589 32.7886C67.4515 32.9649 67.5779 33.1212 67.7309 33.2487C67.8839 33.3762 68.0606 33.4723 68.2507 33.5315C68.4409 33.5907 68.6408 33.6119 68.8392 33.5938C69.0375 33.5757 69.2304 33.5188 69.4067 33.4262C69.583 33.3336 69.7394 33.2072 69.8669 33.0541C69.9943 32.9011 70.0904 32.7245 70.1496 32.5343C70.2088 32.3442 70.23 32.1442 70.2119 31.9459C70.1939 31.7475 70.1369 31.5547 70.0443 31.3783C68.5273 28.4889 66.4451 25.9338 63.9213 23.8648C74.4566 27.3859 83.7304 33.9145 90.5985 42.6449C84.8814 49.8521 77.537 55.6011 69.1679 59.4203C68.986 59.5013 68.8218 59.6174 68.6848 59.7619C68.5477 59.9064 68.4405 60.0765 68.3692 60.2624C68.2978 60.4483 68.2638 60.6465 68.2691 60.8456C68.2744 61.0447 68.3188 61.2407 68.3998 61.4226C68.4809 61.6045 68.597 61.7687 68.7414 61.9058C68.8859 62.0428 69.056 62.15 69.2419 62.2214C69.4279 62.2927 69.626 62.3267 69.8251 62.3214C70.0242 62.3161 70.2203 62.2717 70.4022 62.1907C79.5894 57.9953 87.6014 51.6009 93.7298 43.5729ZM48.5561 91.1682C45.3399 91.1646 42.2564 89.8854 39.9822 87.6112C37.7081 85.337 36.4288 82.2536 36.4252 79.0374H60.6869C60.6833 82.2536 59.4041 85.337 57.1299 87.6112C54.8557 89.8854 51.7722 91.1646 48.5561 91.1682ZM65.236 68.4229C65.236 68.8251 65.0762 69.2108 64.7918 69.4951C64.5075 69.7795 64.1218 69.9393 63.7196 69.9393H33.3925C32.9903 69.9393 32.6046 69.7795 32.3203 69.4951C32.0359 69.2108 31.8761 68.8251 31.8761 68.4229C31.8761 68.0207 32.0359 67.635 32.3203 67.3507C32.6046 67.0663 32.9903 66.9065 33.3925 66.9065H63.7196C64.1218 66.9065 64.5075 67.0663 64.7918 67.3507C65.0762 67.635 65.236 68.0207 65.236 68.4229ZM44.659 50.8544C42.7989 49.9658 41.2956 48.4719 40.3955 46.6173C39.4954 44.7627 39.2519 42.6574 39.7047 40.6463C40.1575 38.6352 41.2799 36.8375 42.888 35.5476C44.4961 34.2578 46.4946 33.5523 48.5561 33.5467C48.8214 33.5467 49.0868 33.5589 49.3491 33.5816C48.6933 34.7362 48.4345 36.074 48.6124 37.3898C48.7903 38.7056 49.3951 39.9267 50.3339 40.8657C51.2727 41.8047 52.4937 42.4096 53.8095 42.5878C55.1252 42.7659 56.4631 42.5074 57.6178 41.8518C57.6421 42.1141 57.6542 42.3795 57.6542 42.6449C57.6471 44.3639 57.1553 46.0461 56.2353 47.4983C55.3153 48.9504 54.0044 50.1137 52.4531 50.8544C52.195 50.9773 51.977 51.1706 51.8241 51.4121C51.6711 51.6536 51.5896 51.9333 51.5888 52.2191V63.8738H45.5233V52.2237C45.5234 51.9371 45.4422 51.6564 45.2893 51.414C45.1363 51.1717 44.9178 50.9776 44.659 50.8544Z" fill="#323232"/>
<path d="M79.9568 63.278C79.828 63.1257 79.6706 63.0004 79.4934 62.909C79.3162 62.8176 79.1227 62.762 78.924 62.7454C78.7254 62.7288 78.5254 62.7515 78.3354 62.8121C78.1455 62.8728 77.9694 62.9703 77.8172 63.099C77.665 63.2278 77.5396 63.3852 77.4482 63.5624C77.3568 63.7396 77.3012 63.9331 77.2846 64.1318C77.268 64.3305 77.2907 64.5305 77.3514 64.7204C77.412 64.9103 77.5095 65.0864 77.6383 65.2386L81.6248 69.9742C81.7532 70.1264 81.9104 70.2519 82.0873 70.3434C82.2642 70.4349 82.4574 70.4906 82.6559 70.5075C82.8543 70.5243 83.0542 70.5019 83.244 70.4415C83.4338 70.381 83.6098 70.2839 83.7621 70.1554C83.9143 70.027 84.0397 69.8698 84.1312 69.6929C84.2227 69.516 84.2785 69.3228 84.2953 69.1243C84.3121 68.9258 84.2897 68.726 84.2293 68.5362C84.1689 68.3464 84.0717 68.1703 83.9433 68.0181L79.9568 63.278Z" fill="#323232"/>
<path d="M89.02 55.5642C88.8687 55.428 88.6915 55.3237 88.4991 55.2574C88.3066 55.1911 88.1028 55.1643 87.8997 55.1785C87.6966 55.1927 87.4985 55.2476 87.3171 55.34C87.1357 55.4324 86.9748 55.5604 86.844 55.7163C86.7131 55.8722 86.615 56.0529 86.5554 56.2476C86.4959 56.4422 86.4761 56.6469 86.4973 56.8493C86.5186 57.0518 86.5804 57.2479 86.679 57.4259C86.7776 57.604 86.9111 57.7604 87.0715 57.8857L91.7722 61.8283C92.0813 62.0757 92.4749 62.1924 92.869 62.1534C93.263 62.1144 93.6261 61.9229 93.8808 61.6197C94.1354 61.3165 94.2614 60.9257 94.2318 60.5309C94.2022 60.1361 94.0193 59.7685 93.7222 59.5067L89.02 55.5642Z" fill="#323232"/>
<path d="M17.1554 63.278L13.1689 68.012C12.9095 68.3195 12.7829 68.7174 12.8168 69.1182C12.8508 69.5191 13.0426 69.89 13.3501 70.1494C13.6575 70.4087 14.0554 70.5354 14.4563 70.5014C14.8571 70.4674 15.228 70.2756 15.4874 69.9681L19.4739 65.2386C19.6052 65.0868 19.7051 64.9104 19.7677 64.7197C19.8303 64.529 19.8544 64.3277 19.8386 64.1276C19.8229 63.9274 19.7675 63.7324 19.6758 63.5539C19.5841 63.3753 19.4578 63.2167 19.3043 63.0874C19.1509 62.958 18.9732 62.8603 18.7817 62.8001C18.5902 62.7399 18.3887 62.7184 18.1888 62.7367C17.9889 62.755 17.7946 62.8128 17.6172 62.9067C17.4398 63.0007 17.2828 63.129 17.1554 63.2841V63.278Z" fill="#323232"/>
<path d="M8.14064 55.5248L3.65526 58.9881C3.49064 59.1072 3.35161 59.2581 3.24645 59.4319C3.14128 59.6058 3.07212 59.799 3.04307 60C3.01402 60.2011 3.02567 60.406 3.07733 60.6025C3.12899 60.7989 3.21961 60.983 3.34381 61.1438C3.468 61.3046 3.62324 61.4388 3.8003 61.5384C3.97736 61.638 4.17264 61.7011 4.37453 61.7237C4.57642 61.7464 4.78082 61.7283 4.97557 61.6705C5.17032 61.6126 5.35147 61.5162 5.50825 61.387L9.99363 57.9237C10.1583 57.8046 10.2973 57.6537 10.4024 57.4799C10.5076 57.306 10.5768 57.1129 10.6058 56.9118C10.6349 56.7107 10.6232 56.5058 10.5716 56.3094C10.5199 56.1129 10.4293 55.9288 10.3051 55.768C10.1809 55.6072 10.0256 55.473 9.84859 55.3734C9.67152 55.2738 9.47625 55.2108 9.27436 55.1881C9.07246 55.1654 8.86807 55.1835 8.67332 55.2413C8.47856 55.2992 8.29742 55.3956 8.14064 55.5248Z" fill="#323232"/>
</svg>
